Bold.sfdir
StartChar: exclam
Encoding: 33 33 1
Width: 349
Flags: W
HStem: 0 155<120.792 227.012>
VStem: 96 156<24.9875 130.208 476.375 681.803> 147 54<225.296 306.167>
LayerCount: 2
Fore
SplineSet
96 78 m 0xc0
 96 117 128 155 174 155 c 0
 215 155 252 122 252 77 c 0
 252 39 220 0 174 0 c 0
 129 0 96 37 96 78 c 0xc0
96 634 m 0
 96 679 139 705 174 705 c 0
 211 705 253 680 253 633 c 0
 253 622 250 611 249 600 c 2
 201 256 l 2
 198 233 195 225 174 225 c 0
 151 225 151 236 147 265 c 2xa0
 100 599 l 2
 98 610 96 622 96 634 c 0
EndSplineSet
EndChar
StartChar: quotedbl
Encoding: 34 34 2
Width: 574
Flags: W
VStem: 127 127<505.654 695.446> 320 127<506.682 695.766>
LayerCount: 2
Fore
SplineSet
127 650 m 0
 127 688 158 710 191 710 c 0
 224 710 254 689 254 649 c 0
 254 636 254 640 209 359 c 1
 172 359 l 1
 131 616 l 2
 130 627 127 638 127 650 c 0
320 650 m 0
 320 686 348 710 383 710 c 0
 418 710 447 687 447 650 c 0
 447 638 444 627 443 616 c 2
 402 359 l 1
 365 359 l 1
 365 359 320 638 320 650 c 0
EndSplineSet
EndChar
StartChar: numbersign
Encoding: 35 35 3
Width: 957
Flags: MW
LayerCount: 2
Fore
SplineSet
64 138 m 0
 64 156 83 157 93 157 c 2
 295 157 l 1
 353 343 l 1
 94 343 l 2
 81 343 64 344 64 361 c 0
 64 378 81 379 93 379 c 2
 366 379 l 1
 371 396 457 673 461 681 c 0
 465 687 471 693 478 693 c 0
 490 693 496 681 495 670 c 0
 495 669 493 664 490 654 c 0
 480 622 455 541 404 379 c 1
 635 379 l 1
 643 407 670 492 723 660 c 0
 728 673 732 693 748 693 c 0
 760 693 766 681 764 670 c 0
 764 669 762 662 758 649 c 0
 747 614 722 533 673 379 c 1
 857 379 l 2
 871 379 892 378 892 361 c 0
 892 343 874 343 862 343 c 2
 661 343 l 1
 603 157 l 1
 862 157 l 2
 875 157 892 156 892 139 c 0
 892 122 876 120 864 120 c 2
 591 120 l 1
 583 92 556 8 503 -160 c 0
 498 -174 494 -193 478 -193 c 0
 467 -193 462 -183 462 -174 c 0
 462 -168 465 -160 476 -124 c 4
 488 -86 511 -15 553 120 c 1
 321 120 l 1
 313 92 286 8 233 -160 c 0
 229 -174 224 -193 209 -193 c 0
 198 -193 192 -183 192 -174 c 0
 192 -167 196 -158 198 -150 c 2
 283 120 l 1
 100 120 l 2
 85 120 64 121 64 138 c 0
333 157 m 1
 565 157 l 1
 623 343 l 1
 392 343 l 1
 333 157 l 1
EndSplineSet
EndChar
StartChar: dollar
Encoding: 36 36 4
Width: 574
Flags: MW
LayerCount: 2
Fore
SplineSet
63 185 m 0
 63 239 103 252 125 252 c 0
 161 252 188 225 188 189 c 0
 188 171 181 140 142 130 c 0
 136 129 130 127 123 127 c 1
 149 78 187 52 263 43 c 1
 263 293 l 1
 242 298 221 302 201 310 c 0
 163 324 124 351 97 389 c 4
 76 418 63 455 63 497 c 0
 63 580 111 686 263 699 c 1
 263 750 l 1
 311 750 l 1
 311 699 l 1
 465 690 510 593 510 522 c 0
 510 469 470 456 448 456 c 0
 415 456 385 480 385 518 c 0
 385 535 392 570 434 579 c 0
 438 580 443 581 448 581 c 1
 434 603 406 643 311 651 c 1
 311 428 l 1
 411 409 460 359 485 311 c 0
 506 269 510 228 510 210 c 0
 510 151 487 14 311 -5 c 1
 311 -55 l 1
 263 -55 l 1
 263 -5 l 1
 94 7 63 127 63 185 c 0
144 546 m 0
 144 528 150 484 210 456 c 0
 224 449 242 443 263 439 c 1
 263 651 l 1
 194 642 144 609 144 546 c 0
311 44 m 1
 416 57 429 132 429 162 c 0
 429 181 423 242 348 272 c 0
 337 276 325 280 311 283 c 1
 311 44 l 1
EndSplineSet
EndChar
StartChar: ampersand
Encoding: 38 38 6
Width: 893
Flags: W
HStem: -11 47<214.782 371.091 597.564 747.12> 397 47<615 686.873 734.719 836> 669 36<309.13 389.316>
VStem: 48 128<81.2436 205.704> 172 104<435.024 612.962> 415 47<512.283 646.772> 782 47<68.5364 118>
LayerCount: 2
Fore
SplineSet
48 138 m 0xf6
 48 166 58 193 79 218 c 0
 86 226 120 255 141 273 c 2
 215 336 l 1
 185 405 172 469 172 528 c 0xee
 172 643 269 705 352 705 c 0
 430 705 462 627 462 574 c 0
 462 535 433 494 407 464 c 0
 379 433 334 391 320 379 c 1
 359 295 434 207 497 141 c 1
 568 209 626 291 680 374 c 0
 683 378 685 383 688 387 c 1
 664 397 637 397 615 397 c 1
 615 444 l 1
 642 442 726 441 737 441 c 0
 764 441 804 442 836 444 c 1
 836 397 l 1
 783 397 750 397 736 377 c 2
 654 258 l 2
 608 191 575 157 529 110 c 1
 575 66 624 36 671 36 c 0
 690 36 778 43 782 118 c 1
 829 118 l 1
 826 34 748 -11 666 -11 c 0
 563 -11 483 36 455 52 c 1
 394 12 327 -11 256 -11 c 0
 146 -11 48 45 48 138 c 0xf6
176 174 m 0xf6
 176 145 185 36 268 36 c 0
 275 36 347 36 415 80 c 1
 372 112 336 149 307 186 c 4
 274 227 250 267 231 302 c 1
 190 273 176 221 176 174 c 0xf6
276 565 m 0xee
 276 503 293 444 305 415 c 1
 372 475 415 529 415 574 c 0
 415 604 402 669 353 669 c 0
 328 669 276 648 276 565 c 0xee
EndSplineSet
EndChar
StartChar: quotesingle
Encoding: 39 39 7
Width: 318
Flags: W
VStem: 95 127<506.422 695.942>
LayerCount: 2
Fore
SplineSet
95 650 m 0
 95 688 125 710 159 710 c 0
 182 710 222 698 222 648 c 0
 222 643 222 640 219 620 c 6
 215 590 203 524 177 359 c 1
 140 359 l 1
 100 614 l 2
 98 626 95 638 95 650 c 0
EndSplineSet
EndChar
StartChar: parenleft
Encoding: 40 40 8
Width: 446
Flags: W
VStem: 108 97<80.8503 420.777>
LayerCount: 2
Fore
SplineSet
108 251 m 0
 108 357 131 541 287 696 c 0
 305 713 347 750 364 750 c 0
 372 750 382 747 382 736 c 0
 382 731 381 730 366 715 c 0
 256 604 205 447 205 250 c 0
 205 162 217 70 243 -9 c 0
 285 -137 350 -198 379 -225 c 0
 379 -226 382 -230 382 -235 c 0
 382 -246 372 -249 364 -249 c 0
 345 -249 254 -182 188 -67 c 0
 141 16 108 126 108 251 c 0
EndSplineSet
EndChar
StartChar: parenright
Encoding: 41 41 9
Width: 446
Flags: MW
LayerCount: 2
Fore
SplineSet
64 -235 m 0
 64 -230 65 -229 80 -214 c 0
 190 -103 241 54 241 251 c 0
 241 408 207 585 81 713 c 0
 64 729 64 731 64 736 c 0
 64 747 74 750 82 750 c 0
 101 750 192 683 258 568 c 0
 305 485 338 375 338 250 c 0
 338 144 315 -40 159 -195 c 0
 141 -212 99 -249 82 -249 c 0
 74 -249 64 -246 64 -235 c 0
EndSplineSet
EndChar
StartChar: asterisk
Encoding: 42 42 10
Width: 574
Flags: W
HStem: 392 87<81.9993 104 470 492.001> 577 87<81.9993 104 470 492.001>
VStem: 243 88<311.555 478 578 744.445>
LayerCount: 2
Fore
SplineSet
74 440 m 0
 74 469 95 476 104 479 c 2
 245 528 l 1
 104 577 l 2
 95 580 74 587 74 616 c 0
 74 645 98 664 118 664 c 0
 124 664 133 662 145 653 c 2
 268 560 l 1
 246 688 l 2
 243 704 243 706 243 711 c 0
 243 739 270 750 287 750 c 0
 304 750 331 740 331 711 c 0
 331 706 331 704 328 688 c 2
 306 560 l 1
 429 653 l 2
 441 662 450 664 456 664 c 0
 476 664 500 645 500 616 c 0
 500 587 479 580 470 577 c 2
 329 528 l 1
 470 479 l 2
 479 476 500 469 500 440 c 0
 500 411 476 392 456 392 c 0
 451 392 442 393 429 403 c 2
 307 495 l 1
 320 418 l 2
 324 393 331 350 331 345 c 0
 331 317 304 306 287 306 c 0
 270 306 243 316 243 345 c 0
 243 350 243 352 246 368 c 2
 268 496 l 1
 145 403 l 2
 133 394 124 392 118 392 c 0
 98 392 74 411 74 440 c 0
EndSplineSet
EndChar
StartChar: plus
Encoding: 43 43 11
Width: 893
Flags: MW
LayerCount: 2
Fore
SplineSet
64 250 m 0
 64 266 84 268 97 268 c 2
 428 268 l 1
 428 596 l 2
 428 600 428 605 428 609 c 0
 429 621 433 632 446 632 c 0
 463 632 465 613 465 600 c 0
 465 596 464 592 464 590 c 2
 464 268 l 1
 790 268 l 2
 796 268 803 268 809 267 c 0
 820 266 828 261 828 250 c 0
 828 240 821 235 813 233 c 4
 808 232 802 232 797 232 c 2
 464 232 l 1
 464 -95 l 2
 464 -112 463 -132 446 -132 c 0
 435 -132 431 -124 429 -114 c 0
 428 -110 428 -104 428 -100 c 2
 428 232 l 1
 101 232 l 2
 96 232 91 232 87 232 c 0
 72 233 64 238 64 250 c 0
EndSplineSet
EndChar
StartChar: comma
Encoding: 44 44 12
Width: 318
Flags: MW
LayerCount: 2
Fore
SplineSet
81 78 m 0
 81 121 112 156 158 156 c 0
 216 156 250 99 250 31 c 0
 250 -108 145 -194 130 -194 c 0
 122 -194 111 -184 111 -174 c 0
 111 -168 114 -165 120 -160 c 0
 141 -142 202 -92 213 10 c 4
 213 13 214 17 214 20 c 1
 213 19 211 17 208 15 c 0
 199 9 182 0 159 0 c 0
 108 0 81 38 81 78 c 0
EndSplineSet
EndChar
StartChar: hyphen
Encoding: 45 45 13
Width: 382
Flags: MW
LayerCount: 2
Fore
SplineSet
12 174 m 1
 12 271 l 1
 318 271 l 1
 318 174 l 1
 12 174 l 1
EndSplineSet
EndChar
StartChar: slash
Encoding: 47 47 15
Width: 574
Flags: MW
LayerCount: 2
Fore
SplineSet
64 -231 m 0
 64 -224 68 -217 76 -197 c 2
 468 721 l 2
 471 730 478 748 492 748 c 0
 501 748 509 740 509 731 c 0
 509 722 504 714 501 706 c 2
 106 -221 l 2
 102 -230 96 -249 81 -249 c 0
 72 -249 64 -240 64 -231 c 0
EndSplineSet
EndChar
StartChar: zero
Encoding: 48 48 16
Width: 574
Flags: MW
LayerCount: 2
Fore
SplineSet
45 319 m 0
 45 382 45 504 110 582 c 0
 146 625 202 655 287 655 c 0
 363 655 415 631 451 596 c 4
 529 519 529 385 529 319 c 0
 529 252 528 128 456 52 c 0
 420 14 367 -11 287 -11 c 0
 207 -11 154 14 118 52 c 0
 46 128 45 253 45 319 c 0
173 331 m 0
 173 276 173 172 182 120 c 0
 195 47 251 25 287 25 c 0
 317 25 380 39 394 132 c 0
 401 184 401 275 401 331 c 0
 401 413 401 519 384 556 c 0
 365 600 324 619 287 619 c 0
 263 619 193 609 181 520 c 0
 173 468 173 403 173 331 c 0
EndSplineSet
EndChar
StartChar: one
Encoding: 49 49 17
Width: 574
Flags: W
HStem: 3 44<96 235 354 494> 544 47<85 232.237>
VStem: 235 119<47 564>
LayerCount: 2
Fore
SplineSet
85 544 m 1
 85 591 l 1
 105 591 l 2
 126 591 229 591 306 648 c 0
 315 655 317 655 328 655 c 0
 354 655 354 645 354 623 c 2
 354 47 l 1
 494 47 l 5
 494 47 l 1
 494 0 l 1
 450 3 344 3 295 3 c 0
 246 3 140 3 96 0 c 1
 96 47 l 1
 96 47 l 1
 235 47 l 1
 235 564 l 1
 176 545 121 544 105 544 c 2
 85 544 l 1
EndSplineSet
EndChar
StartChar: two
Encoding: 50 50 18
Width: 574
Flags: MW
LayerCount: 2
Fore
SplineSet
57 0 m 1
 57 18 l 2
 57 38 57 40 70 52 c 2
 271 257 l 2
 341 328 379 396 379 465 c 0
 379 540 333 608 247 608 c 0
 211 608 173 597 144 573 c 1
 147 572 152 571 156 569 c 4
 175 561 201 543 201 501 c 0
 201 451 161 429 129 429 c 0
 105 429 57 444 57 503 c 0
 57 593 151 655 272 655 c 0
 413 655 517 581 517 466 c 0
 517 371 453 324 339 240 c 0
 294 207 242 164 195 125 c 1
 342 125 l 2
 358 125 433 125 444 131 c 0
 458 138 467 202 470 222 c 1
 517 222 l 1
 486 0 l 1
 57 0 l 1
EndSplineSet
EndChar
StartChar: three
Encoding: 51 51 19
Width: 574
Flags: W
HStem: -11 43<168.612 331.679> 330 35<192.007 295.996> 616 39<186.978 329.084>
VStem: 48 153<88.1211 195.875> 80 139<459.313 560.701> 357 137<440.636 582.054> 373 153<98.6317 256.659>
LayerCount: 2
Fore
SplineSet
48 139 m 0xf2
 48 190 83 217 125 217 c 0
 169 217 201 186 201 141 c 0
 201 100 176 75 143 66 c 1
 191 36 243 32 269 32 c 0
 373 32 373 134 373 181 c 0xf2
 373 232 373 330 264 330 c 2
 220 330 l 2
 202 330 192 330 192 348 c 0
 192 354 194 364 204 365 c 0
 209 366 211 367 252 369 c 0
 290 371 314 390 330 414 c 4
 357 455 357 511 357 519 c 0
 357 552 354 616 271 616 c 0
 240 616 196 608 161 580 c 1
 165 579 219 568 219 510 c 0
 219 473 194 441 149 441 c 0
 111 441 80 468 80 511 c 0
 80 591 158 655 277 655 c 0
 418 655 494 593 494 516 c 0xec
 494 430 421 373 352 352 c 1
 497 321 526 235 526 180 c 0
 526 89 453 -11 274 -11 c 0
 145 -11 48 49 48 139 c 0xf2
EndSplineSet
EndChar
StartChar: four
Encoding: 52 52 20
Width: 574
Flags: W
HStem: 3 44<208 320 445 542> 156 47<84 320 445 542>
VStem: 320 125<47 156> 331 114<203 513>
LayerCount: 2
Fore
SplineSet
32 156 m 1xe0
 32 203 l 1
 381 640 l 2
 393 655 394 656 415 656 c 0
 443 656 445 651 445 624 c 2
 445 203 l 1xd0
 542 203 l 1
 542 156 l 1
 445 156 l 1
 445 47 l 1
 542 47 l 5
 542 47 l 1
 542 0 l 1
 507 3 420 3 380 3 c 0
 337 3 246 3 208 0 c 1
 208 47 l 1
 208 47 l 1
 320 47 l 1
 320 156 l 1
 32 156 l 1xe0
84 203 m 1
 331 203 l 1
 331 513 l 1
 84 203 l 1
EndSplineSet
EndChar
StartChar: five
Encoding: 53 53 21
Width: 574
Flags: MW
LayerCount: 2
Fore
SplineSet
57 159 m 0
 57 220 109 229 124 229 c 0
 148 229 191 214 191 161 c 0
 191 125 169 103 140 96 c 0
 136 95 131 94 126 94 c 1
 168 37 231 32 255 32 c 0
 297 32 325 44 343 64 c 5
 375 100 375 158 375 205 c 0
 375 254 375 307 354 340 c 0
 341 360 320 373 286 373 c 0
 245 373 191 363 152 317 c 0
 145 309 143 305 130 305 c 0
 108 305 108 318 108 336 c 2
 108 628 l 2
 108 644 108 655 122 655 c 0
 125 655 126 654 135 651 c 0
 161 642 214 623 290 623 c 0
 333 623 386 629 443 651 c 0
 454 655 455 655 458 655 c 0
 470 655 472 644 472 637 c 0
 472 612 380 499 234 499 c 0
 200 499 189 501 161 506 c 1
 161 374 l 1
 208 406 261 409 290 409 c 0
 438 409 517 316 517 201 c 0
 517 79 419 -11 259 -11 c 0
 135 -11 57 74 57 159 c 0
EndSplineSet
EndChar
StartChar: six
Encoding: 54 54 22
Width: 574
Flags: MW
LayerCount: 2
Fore
SplineSet
48 317 m 0
 48 569 213 655 349 655 c 0
 455 655 497 592 497 530 c 0
 497 492 473 466 434 466 c 0
 395 466 372 494 372 528 c 0
 372 558 390 585 426 590 c 1
 403 613 369 616 351 616 c 0
 290 616 236 580 212 533 c 0
 205 518 184 475 184 361 c 2
 184 342 l 1
 226 418 282 418 304 418 c 0
 425 418 526 345 526 205 c 0
 526 71 430 -11 291 -11 c 0
 221 -11 145 13 98 89 c 1
 57 158 48 238 48 317 c 0
186 210 m 0
 186 192 186 119 202 87 c 0
 210 71 237 32 289 32 c 0
 341 32 366 51 378 84 c 4
 390 115 390 158 390 207 c 0
 390 259 390 305 376 336 c 0
 364 365 340 382 295 382 c 0
 240 382 186 335 186 210 c 0
EndSplineSet
EndChar
StartChar: seven
Encoding: 55 55 23
Width: 574
Flags: W
HStem: 519 125<170.753 416> 656 20G<96.2441 147>
VStem: 64 47<422 472.8> 99 47<653.595 676> 193 125<2.64517 200.135>
LayerCount: 2
Fore
SplineSet
64 422 m 1xe8
 99 676 l 1
 146 676 l 1xd8
 148 666 149 657 170 653 c 1
 184 649 331 644 354 644 c 2
 558 644 l 1
 558 609 558 607 548 596 c 2
 393 416 l 2
 358 375 337 316 328 249 c 0
 321 202 318 154 318 106 c 2
 318 60 l 2
 318 -6 271 -11 255 -11 c 0
 249 -11 193 -11 193 59 c 0
 193 207 265 342 361 454 c 2
 416 519 l 1
 247 519 l 2
 230 519 149 519 138 513 c 0
 134 511 121 498 111 422 c 1
 64 422 l 1xe8
EndSplineSet
EndChar
StartChar: eight
Encoding: 56 56 24
Width: 574
Flags: MW
LayerCount: 2
Fore
SplineSet
48 161 m 0
 48 235 92 292 176 329 c 1
 151 343 132 359 118 376 c 4
 88 412 80 450 80 480 c 0
 80 576 150 655 289 655 c 0
 403 655 494 610 494 508 c 0
 494 450 463 406 393 370 c 1
 416 357 447 340 473 314 c 0
 503 285 526 245 526 187 c 0
 526 77 445 -11 285 -11 c 0
 156 -11 48 40 48 161 c 0
134 161 m 0
 134 83 191 32 289 32 c 0
 346 32 440 48 440 132 c 0
 440 180 403 201 359 226 c 0
 304 257 257 284 222 302 c 1
 187 282 134 239 134 161 c 0
155 539 m 0
 155 505 183 488 199 479 c 2
 349 395 l 1
 393 424 419 458 419 507 c 0
 419 575 369 616 285 616 c 0
 245 616 155 609 155 539 c 0
EndSplineSet
EndChar
StartChar: nine
Encoding: 57 57 25
Width: 574
Flags: W
HStem: -11 43<155.09 308.968> 227 36<219.083 332.209> 616 39<222.686 342.497>
VStem: 48 136<339.349 537.929> 77 125<68.5925 164.243> 390 136<184.77 492.291>
LayerCount: 2
Fore
SplineSet
48 440 m 0xf4
 48 510 76 567 122 604 c 5
 164 637 222 655 289 655 c 0
 526 655 526 396 526 329 c 0
 526 73 369 -11 239 -11 c 0
 128 -11 77 46 77 114 c 0
 77 152 101 178 140 178 c 0
 179 178 202 150 202 116 c 0xec
 202 71 165 57 153 54 c 1
 183 34 219 32 237 32 c 0
 306 32 349 77 366 116 c 0
 381 150 390 209 390 282 c 2
 390 304 l 1
 352 234 305 227 270 227 c 0
 147 227 48 302 48 440 c 0xf4
184 438 m 0xf4
 184 384 184 338 199 306 c 0
 212 279 235 263 279 263 c 0
 363 263 389 365 389 428 c 0
 389 462 389 520 377 553 c 0
 373 563 350 616 291 616 c 0
 242 616 216 599 201 572 c 0
 184 539 184 491 184 438 c 0xf4
EndSplineSet
EndChar
StartChar: colon
Encoding: 58 58 26
Width: 318
Flags: W
HStem: 0 156<105.215 212.785> 288 156<105.215 212.785>
VStem: 81 156<24.2149 131.785 312.215 419.785>
LayerCount: 2
Fore
SplineSet
81 78 m 0
 81 121 116 156 159 156 c 0
 202 156 237 121 237 78 c 0
 237 35 202 0 159 0 c 0
 116 0 81 35 81 78 c 0
81 366 m 0
 81 409 116 444 159 444 c 0
 202 444 237 409 237 366 c 0
 237 323 202 288 159 288 c 0
 116 288 81 323 81 366 c 0
EndSplineSet
EndChar
StartChar: semicolon
Encoding: 59 59 27
Width: 318
Flags: MW
LayerCount: 2
Fore
SplineSet
81 78 m 4
 81 121 112 156 158 156 c 4
 216 156 250 99 250 31 c 4
 250 -108 145 -194 130 -194 c 4
 122 -194 111 -184 111 -174 c 4
 111 -168 114 -165 120 -160 c 4
 140 -143 201 -93 213 8 c 4
 213 12 214 16 214 20 c 5
 214 20 212 18 210 17 c 4
 202 11 184 0 159 0 c 4
 108 0 81 38 81 78 c 4
81 367 m 0
 81 414 121 445 159 445 c 0
 200 445 237 412 237 367 c 0
 237 328 205 289 159 289 c 0
 118 289 81 322 81 367 c 0
EndSplineSet
EndChar
StartChar: less
Encoding: 60 60 28
Width: 893
Flags: MW
LayerCount: 2
Fore
SplineSet
96 250 m 1
 97 262 108 268 118 272 c 2
 757 566 l 2
 764 569 771 572 778 572 c 0
 787 572 795 565 795 555 c 0
 795 542 780 536 775 533 c 2
 225 281 l 2
 157 250 l 1
 227 218 l 2
 775 -34 l 2
 780 -36 795 -43 795 -56 c 0
 795 -66 787 -73 778 -73 c 0
 771 -73 764 -69 757 -66 c 2
 118 227 l 2
 109 232 97 238 96 250 c 1
EndSplineSet
EndChar
StartChar: equal
Encoding: 61 61 29
Width: 893
Flags: W
HStem: 120 37<64.0122 827.988> 343 36<64.0109 827.962>
LayerCount: 2
Fore
SplineSet
64 139 m 0
 64 155 80 157 93 157 c 2
 802 157 l 1
 824 156 828 146 828 139 c 0
 828 124 815 121 803 120 c 1
 92 120 l 2
 68 120 64 131 64 139 c 0
64 361 m 0
 64 376 79 379 93 379 c 2
 802 379 l 2
 823 379 828 368 828 362 c 0
 828 346 815 343 803 343 c 2
 92 343 l 2
 68 343 64 354 64 361 c 0
EndSplineSet
EndChar
StartChar: greater
Encoding: 62 62 30
Width: 893
Flags: MW
LayerCount: 2
Fore
SplineSet
97 -56 m 0
 97 -47 102 -41 117 -34 c 2
 651 211 l 6
 735 250 l 1
 706 262 678 276 649 289 c 2
 117 533 l 2
 112 536 97 542 97 555 c 0
 97 565 105 572 114 572 c 0
 121 572 128 569 135 566 c 2
 774 272 l 2
 783 268 795 262 795 250 c 0
 795 238 783 232 774 228 c 2
 135 -66 l 2
 128 -69 121 -73 114 -73 c 0
 105 -73 97 -66 97 -56 c 0
EndSplineSet
EndChar
StartChar: question
Encoding: 63 63 31
Width: 542
Flags: MW
LayerCount: 2
Fore
SplineSet
64 573 m 0
 64 594 70 614 84 633 c 4
 112 671 170 700 263 700 c 0
 300 700 478 700 478 571 c 0
 478 508 430 481 410 469 c 0
 372 447 279 386 279 283 c 2
 279 256 l 2
 279 232 279 226 255 226 c 0
 232 226 232 231 232 253 c 2
 232 291 l 2
 232 356 260 433 322 498 c 0
 342 518 350 534 350 578 c 0
 350 625 349 664 257 664 c 0
 211 664 170 652 144 633 c 1
 146 632 189 619 189 572 c 0
 189 531 158 509 126 509 c 0
 101 509 64 525 64 573 c 0
177 78 m 0
 177 121 212 156 255 156 c 0
 298 156 333 121 333 78 c 0
 333 35 298 0 255 0 c 0
 212 0 177 35 177 78 c 0
EndSplineSet
EndChar
StartChar: at
Encoding: 64 64 32
Width: 893
Flags: MW
LayerCount: 2
Fore
SplineSet
64 347 m 0
 64 546 201 700 447 700 c 0
 681 700 829 558 829 345 c 0
 829 285 820 128 699 128 c 0
 673 128 605 132 574 173 c 1
 536 141 491 128 445 128 c 0
 308 128 217 216 217 347 c 0
 217 479 309 566 445 566 c 0
 522 566 578 529 607 482 c 1
 607 482 l 1
 646 482 l 2
 675 482 676 480 676 453 c 2
 676 223 l 2
 676 209 676 164 709 164 c 0
 769 164 782 250 782 340 c 0
 782 561 629 664 446 664 c 0
 236 664 111 533 111 347 c 0
 111 177 219 30 450 30 c 0
 550 30 649 50 743 86 c 0
 759 93 761 93 777 93 c 2
 801 93 l 2
 816 93 829 93 829 79 c 0
 829 74 826 70 826 69 c 0
 811 61 743 34 646 14 c 4
 590 3 523 -6 451 -6 c 0
 184 -6 64 163 64 347 c 0
331 347 m 0
 331 219 388 164 448 164 c 0
 482 164 531 178 562 222 c 1
 562 222 l 1
 562 472 l 1
 562 472 l 1
 531 515 483 530 448 530 c 0
 388 530 331 476 331 347 c 0
EndSplineSet
EndChar
StartChar: A
Encoding: 65 65 33
Width: 868
Flags: W
HStem: 0 47<41 146.444 201.063 290 488 583 730 827> 193 47<275 503> 678 20G<420 442.5>
LayerCount: 2
Fore
SplineSet
41 0 m 1
 41 47 l 1
 62 47 l 2
 138 47 141 55 147 70 c 2
 395 672 l 2
 402 690 406 698 434 698 c 0
 451 698 463 698 474 672 c 2
 730 47 l 1
 827 47 l 5
 827 47 l 1
 827 0 l 1
 792 3 704 3 664 3 c 0
 621 3 526 3 488 0 c 1
 488 47 l 1
 583 47 l 1
 583 47 l 1
 523 193 l 1
 255 193 l 1
 205 72 l 2
 204 71 201 61 201 60 c 0
 201 47 288 47 290 47 c 1
 290 0 l 1
 253 3 197 3 158 3 c 0
 127 3 79 1 41 0 c 1
275 240 m 1
 503 240 l 1
 389 518 l 1
 275 240 l 1
EndSplineSet
EndChar
StartChar: C
Encoding: 67 67 35
Width: 829
Flags: W
HStem: -11 47<373.502 591.457> 650 47<368.048 582.386>
VStem: 64 153<216.819 469.324> 712 54<426.065 517.868> 719 47<151.754 247.992>
LayerCount: 2
Fore
SplineSet
64 343 m 0xe8
 64 548 217 697 466 697 c 0
 534 697 601 679 663 629 c 1
 729 688 l 2
 737 695 739 697 748 697 c 0
 766 697 766 688 766 669 c 2xe8
 766 454 l 2
 766 428 765 426 739 426 c 0
 716 426 715 428 712 447 c 0xf0
 690 574 595 650 487 650 c 0
 435 650 348 639 283 573 c 1
 220 507 217 399 217 343 c 0
 217 253 229 178 276 121 c 1
 328 60 412 36 490 36 c 0
 591 36 712 97 719 231 c 0
 720 248 729 248 742 248 c 0
 759 248 766 247 766 227 c 0
 766 112 653 -11 466 -11 c 0
 217 -11 64 138 64 343 c 0xe8
EndSplineSet
EndChar
StartChar: D
Encoding: 68 68 36
Width: 880
Flags: W
HStem: 0 47<39 147 283 541.471> 639 47<39 147 283 540.801>
VStem: 147 136<47 639> 670 147<208.719 468.685>
LayerCount: 2
Fore
SplineSet
39 0 m 1
 39 47 l 1
 39 47 l 5
 147 47 l 1
 147 639 l 1
 39 639 l 1
 39 639 l 1
 39 686 l 1
 469 686 l 2
 667 686 817 557 817 337 c 0
 817 123 667 0 470 0 c 2
 39 0 l 1
283 47 m 1
 283 47 l 1
 429 47 l 2
 490 47 578 63 626 131 c 0
 658 176 670 229 670 338 c 0
 670 431 662 499 627 550 c 0
 578 620 495 639 429 639 c 2
 283 639 l 1
 283 639 l 1
 283 47 l 1
EndSplineSet
EndChar
StartChar: E
Encoding: 69 69 37
Width: 754
Flags: W
HStem: 0 47<39 147 289 563.196> 329 47<289 423.516> 633 47<39 147 289 556.201>
VStem: 147 142<47 329 376 633> 450 47<212 303.63 401.37 493>
LayerCount: 2
Fore
SplineSet
39 0 m 1
 39 47 l 1
 39 47 l 1
 147 47 l 1
 147 633 l 1
 39 633 l 5
 39 633 l 1
 39 680 l 1
 660 680 l 1
 691 439 l 1
 644 439 l 1
 628 560 602 633 441 633 c 2
 289 633 l 1
 289 633 l 1
 289 376 l 1
 344 376 l 2
 441 376 450 419 450 493 c 1
 497 493 l 1
 497 212 l 1
 450 212 l 1
 450 286 440 329 344 329 c 2
 289 329 l 1
 289 47 l 1
 289 47 l 1
 441 47 l 2
 626 47 654 136 676 274 c 1
 723 274 l 1
 677 0 l 1
 39 0 l 1
EndSplineSet
EndChar
StartChar: F
Encoding: 70 70 38
Width: 722
Flags: MW
LayerCount: 2
Fore
SplineSet
39 0 m 1
 39 47 l 1
 39 47 l 1
 147 47 l 1
 147 47 l 1
 147 633 l 1
 147 633 l 1
 39 633 l 1
 39 633 l 1
 39 680 l 1
 644 680 l 1
 675 439 l 1
 628 439 l 1
 613 556 590 633 429 633 c 2
 289 633 l 1
 289 633 l 1
 289 364 l 1
 339 364 l 2
 436 364 444 407 444 481 c 1
 491 481 l 1
 491 200 l 1
 444 200 l 1
 444 274 435 317 339 317 c 2
 289 317 l 1
 289 47 l 1
 289 47 l 1
 424 47 l 1
 424 47 l 1
 424 0 l 1
 380 3 271 3 222 3 c 0
 178 3 77 3 39 0 c 1
EndSplineSet
EndChar
StartChar: G
Encoding: 71 71 39
Width: 903
Flags: W
HStem: -11 47<374.423 584.13> 0 21G<747.5 758> 229 44<479 623 765 845> 650 47<366.587 581.617>
VStem: 64 153<219.261 468.247> 623 142<70.4648 229> 711 54<426.065 517.868>
LayerCount: 2
Fore
SplineSet
64 343 m 0xba
 64 550 219 697 465 697 c 0
 517 697 589 687 662 629 c 1
 728 688 l 2
 736 695 738 697 747 697 c 0
 765 697 765 688 765 669 c 2
 765 454 l 2
 765 428 764 426 738 426 c 0
 715 426 714 428 711 447 c 0xba
 689 574 594 650 487 650 c 0
 391 650 314 613 274 563 c 1
 237 514 217 456 217 344 c 0
 217 253 230 182 273 127 c 0
 322 65 408 36 494 36 c 0
 526 36 558 42 584 57 c 0
 623 80 623 109 623 128 c 2
 623 229 l 1
 479 229 l 5
 479 229 l 1
 479 276 l 1
 533 273 626 273 684 273 c 0
 723 273 810 273 845 276 c 1
 845 229 l 1
 765 229 l 1xbc
 765 28 l 2
 765 13 765 0 751 0 c 0x7a
 744 0 684 26 653 53 c 1
 603 -9 500 -11 467 -11 c 0
 209 -11 64 144 64 343 c 0xba
EndSplineSet
EndChar
StartChar: H
Encoding: 72 72 40
Width: 899
Flags: MW
LayerCount: 2
Fore
SplineSet
39 0 m 1
 39 47 l 1
 39 47 l 1
 147 47 l 1
 147 639 l 1
 39 639 l 1
 39 639 l 1
 39 686 l 1
 77 683 175 683 218 683 c 0
 261 683 359 683 397 686 c 1
 397 639 l 1
 397 639 l 1
 289 639 l 1
 289 380 l 1
 610 380 l 1
 610 639 l 1
 502 639 l 1
 502 639 l 1
 502 686 l 1
 540 683 638 683 681 683 c 0
 724 683 822 683 860 686 c 1
 860 639 l 1
 860 639 l 5
 752 639 l 1
 752 47 l 1
 860 47 l 1
 860 47 l 1
 860 0 l 1
 822 3 724 3 681 3 c 0
 638 3 540 3 502 0 c 1
 502 47 l 1
 502 47 l 1
 610 47 l 1
 610 333 l 1
 289 333 l 1
 289 47 l 1
 397 47 l 1
 397 47 l 1
 397 0 l 1
 359 3 261 3 218 3 c 0
 175 3 77 3 39 0 c 1
EndSplineSet
EndChar
StartChar: I
Encoding: 73 73 41
Width: 435
Flags: MW
LayerCount: 2
Fore
SplineSet
33 0 m 1
 33 47 l 1
 33 47 l 1
 147 47 l 1
 147 47 l 1
 147 639 l 1
 147 639 l 1
 33 639 l 1
 33 639 l 1
 33 686 l 1
 74 683 172 683 218 683 c 0
 264 683 362 683 403 686 c 1
 403 639 l 1
 403 639 l 1
 289 639 l 1
 289 639 l 1
 289 47 l 1
 289 47 l 1
 403 47 l 1
 403 47 l 1
 403 0 l 1
 362 3 264 3 218 3 c 0
 172 3 74 3 33 0 c 1
EndSplineSet
EndChar
StartChar: L
Encoding: 76 76 44
Width: 690
Flags: MW
LayerCount: 2
Fore
SplineSet
39 0 m 1
 39 47 l 1
 39 47 l 1
 147 47 l 1
 147 47 l 1
 147 639 l 1
 147 639 l 1
 39 639 l 1
 39 639 l 1
 39 686 l 1
 77 683 178 683 222 683 c 0
 271 683 380 683 424 686 c 1
 424 639 l 1
 424 639 l 1
 289 639 l 1
 289 639 l 1
 289 47 l 1
 289 47 l 1
 392 47 l 2
 571 47 588 205 596 274 c 1
 643 274 l 1
 612 0 l 1
 39 0 l 1
EndSplineSet
EndChar
StartChar: N
Encoding: 78 78 46
Width: 899
Flags: W
HStem: 0 47<39 146.902 200.1 308> 639 47<39 147 591 698.9 752.098 860>
VStem: 147 53<50.9427 599> 699 53<205 635.057>
LayerCount: 2
Fore
SplineSet
39 0 m 1
 39 47 l 1
 64 47 l 2
 92 47 94 47 118 50 c 0
 146 53 147 54 147 76 c 2
 147 639 l 1
 147 639 l 5
 39 639 l 1
 39 639 l 1
 39 686 l 1
 268 686 l 2
 289 686 290 685 301 673 c 2
 699 205 l 1
 699 610 l 2
 699 632 698 633 669 636 c 0
 651 638 634 639 616 639 c 2
 591 639 l 1
 591 686 l 1
 632 683 684 683 726 683 c 0
 765 683 822 683 860 686 c 1
 860 639 l 1
 835 639 l 2
 807 639 805 639 781 636 c 0
 753 633 752 632 752 610 c 2
 752 32 l 2
 752 9 752 0 725 0 c 0
 709 0 708 1 698 13 c 2
 200 599 l 1
 200 599 l 1
 200 76 l 2
 200 54 201 53 230 50 c 0
 248 48 265 47 283 47 c 2
 308 47 l 1
 308 0 l 1
 267 3 215 3 173 3 c 0
 134 3 77 3 39 0 c 1
EndSplineSet
EndChar
StartChar: O
Encoding: 79 79 47
Width: 862
Flags: MW
LayerCount: 2
Fore
SplineSet
64 339 m 0
 64 549 203 697 432 697 c 0
 654 697 799 555 799 339 c 0
 799 134 661 -11 431 -11 c 0
 204 -11 64 132 64 339 c 0
217 354 m 0
 217 268 225 197 258 135 c 0
 299 59 372 31 431 31 c 0
 485 31 555 53 600 126 c 0
 642 195 646 284 646 354 c 0
 646 422 642 499 604 563 c 0
 564 629 495 657 431 657 c 0
 372 657 305 632 264 571 c 1
 220 503 217 418 217 354 c 0
EndSplineSet
EndChar
StartChar: P
Encoding: 80 80 48
Width: 785
Flags: MW
LayerCount: 2
Fore
SplineSet
39 0 m 1
 39 47 l 1
 39 47 l 1
 147 47 l 1
 147 47 l 1
 147 639 l 1
 147 639 l 1
 39 639 l 1
 39 639 l 1
 39 686 l 1
 456 686 l 2
 622 686 721 601 721 491 c 0
 721 374 605 302 466 302 c 2
 289 302 l 1
 289 47 l 5
 289 47 l 1
 397 47 l 1
 397 47 l 1
 397 0 l 1
 359 3 261 3 218 3 c 0
 175 3 77 3 39 0 c 1
283 343 m 1
 417 343 l 2
 568 343 568 420 568 491 c 0
 568 563 568 639 418 639 c 2
 283 639 l 1
 283 639 l 1
 283 343 l 1
EndSplineSet
EndChar
StartChar: Q
Encoding: 81 81 49
Width: 862
Flags: MW
LayerCount: 2
Fore
SplineSet
64 339 m 0
 64 549 203 697 432 697 c 0
 654 697 799 555 799 339 c 0
 799 230 756 82 592 18 c 1
 631 -41 661 -41 684 -41 c 0
 701 -41 763 -40 769 -2 c 0
 770 5 772 18 787 18 c 0
 805 18 805 0 805 -8 c 0
 805 -76 770 -194 668 -194 c 0
 575 -194 555 -115 527 -2 c 1
 487 -10 454 -11 432 -11 c 0
 200 -11 64 135 64 339 c 0
211 340 m 0
 211 262 214 110 337 51 c 1
 335 56 334 67 334 73 c 0
 334 121 380 155 431 155 c 0
 498 155 534 102 556 69 c 1
 652 135 652 284 652 340 c 0
 652 399 649 485 611 552 c 0
 563 637 485 657 431 657 c 0
 386 657 300 642 248 546 c 1
 211 475 211 380 211 340 c 0
370 73 m 0
 370 61 377 29 432 29 c 0
 459 29 489 34 514 45 c 1
 494 108 460 119 432 119 c 0
 399 119 370 100 370 73 c 0
EndSplineSet
EndChar
StartChar: T
Encoding: 84 84 52
Width: 799
Flags: MW
LayerCount: 2
Fore
SplineSet
42 434 m 1
 63 675 l 1
 736 675 l 1
 757 434 l 1
 710 434 l 1
 700 548 690 628 547 628 c 2
 471 628 l 1
 471 628 l 5
 471 47 l 1
 624 47 l 1
 624 47 l 1
 624 0 l 1
 570 3 459 3 400 3 c 0
 341 3 230 3 176 0 c 1
 176 47 l 1
 176 47 l 1
 329 47 l 1
 329 628 l 1
 329 628 l 1
 252 628 l 2
 108 628 98 547 89 434 c 1
 42 434 l 1
EndSplineSet
EndChar
StartChar: V
Encoding: 86 86 54
Width: 868
Flags: MW
LayerCount: 2
Fore
SplineSet
26 639 m 1
 26 686 l 1
 61 683 145 683 184 683 c 0
 227 683 323 683 361 686 c 1
 361 639 l 1
 267 639 l 1
 267 639 l 5
 480 160 l 1
 682 615 l 2
 683 618 686 623 686 627 c 0
 686 639 607 639 598 639 c 1
 598 686 l 1
 637 683 689 683 729 683 c 0
 756 683 804 685 842 686 c 1
 842 639 l 1
 823 639 l 2
 750 639 746 630 740 617 c 2
 474 16 l 2
 463 -8 450 -8 434 -8 c 0
 406 -8 402 0 394 18 c 2
 118 639 l 1
 26 639 l 1
EndSplineSet
EndChar
StartChar: X
Encoding: 88 88 56
Width: 868
Flags: W
HStem: 0 47<34 166.997 229.643 320 492 575 737 835> 639 47<49 147 309 392 500 590.357 652.003 786>
LayerCount: 2
Fore
SplineSet
34 0 m 1
 34 47 l 1
 63 47 l 2
 83 47 104 48 124 50 c 0
 156 53 158 55 167 67 c 2
 369 332 l 1
 147 639 l 1
 49 639 l 5
 49 639 l 1
 49 686 l 1
 84 683 171 683 211 683 c 0
 256 683 351 683 392 686 c 1
 392 639 l 1
 309 639 l 1
 309 639 l 1
 452 442 l 1
 584 617 l 2
 586 620 591 626 592 628 c 1
 557 639 518 639 500 639 c 1
 500 686 l 1
 536 683 613 683 652 683 c 0
 695 683 744 683 786 686 c 1
 786 639 l 1
 757 639 l 2
 729 639 723 639 699 636 c 0
 664 633 663 632 652 618 c 2
 484 397 l 1
 737 47 l 1
 835 47 l 1
 835 47 l 1
 835 0 l 1
 800 3 713 3 673 3 c 0
 628 3 533 3 492 0 c 1
 492 47 l 1
 575 47 l 1
 575 47 l 1
 401 288 l 1
 236 69 l 2
 234 66 229 60 228 58 c 1
 263 47 302 47 320 47 c 1
 320 0 l 1
 284 3 207 3 168 3 c 0
 125 3 76 3 34 0 c 1
EndSplineSet
EndChar
StartChar: Y
Encoding: 89 89 57
Width: 868
Flags: MW
LayerCount: 2
Fore
SplineSet
19 639 m 1
 19 686 l 1
 54 683 144 683 184 683 c 0
 229 683 326 683 367 686 c 1
 367 639 l 1
 282 639 l 1
 282 639 l 1
 485 342 l 1
 672 617 l 2
 677 623 677 625 679 629 c 1
 653 639 626 639 603 639 c 1
 603 686 l 1
 640 683 696 683 735 683 c 0
 763 683 809 685 849 686 c 1
 849 639 l 1
 828 639 l 2
 811 639 793 638 776 636 c 0
 754 633 746 633 737 619 c 2
 502 274 l 1
 502 47 l 1
 611 47 l 1
 611 47 l 1
 611 0 l 1
 573 3 477 3 434 3 c 0
 392 3 294 3 258 0 c 1
 258 47 l 1
 258 47 l 5
 366 47 l 1
 366 274 l 1
 117 639 l 1
 19 639 l 1
 19 639 l 1
EndSplineSet
EndChar
StartChar: Z
Encoding: 90 90 58
Width: 701
Flags: MW
LayerCount: 2
Fore
SplineSet
64 26 m 0
 64 37 64 40 72 52 c 2
 472 639 l 1
 342 639 l 2
 202 639 135 578 127 445 c 1
 80 445 l 1
 92 686 l 1
 606 686 l 2
 627 686 638 686 638 661 c 0
 638 650 638 649 630 637 c 2
 231 51 l 1
 371 51 l 2
 576 51 590 173 598 284 c 1
 645 284 l 1
 627 0 l 1
 96 0 l 2
 74 0 64 0 64 26 c 0
EndSplineSet
EndChar
StartChar: bracketleft
Encoding: 91 91 59
Width: 318
Flags: W
HStem: -250 36<214 294> 714 36<214 294>
VStem: 105 109<-214 714>
LayerCount: 2
Fore
SplineSet
105 -250 m 1
 105 750 l 1
 294 750 l 1
 294 714 l 1
 214 714 l 1
 214 -214 l 1
 294 -214 l 1
 294 -250 l 1
 105 -250 l 1
EndSplineSet
EndChar
StartChar: backslash
Encoding: 92 92 60
Width: 574
Flags: W
VStem: 64 47<710 745.521> 460 49<-244.781 -204>
LayerCount: 2
Fore
SplineSet
64 732 m 0
 64 739 71 748 81 748 c 0
 98 748 105 722 111 710 c 2
 500 -203 l 2
 504 -212 509 -222 509 -232 c 0
 509 -239 502 -249 492 -249 c 0
 476 -249 469 -224 460 -204 c 2
 69 714 l 2
 67 720 64 726 64 732 c 0
EndSplineSet
EndChar
StartChar: bracketright
Encoding: 93 93 61
Width: 318
Flags: W
HStem: -250 36<25 105> 714 36<25 105>
VStem: 105 109<-214 714>
LayerCount: 2
Fore
SplineSet
25 -214 m 1
 105 -214 l 1
 105 714 l 1
 25 714 l 1
 25 750 l 1
 214 750 l 1
 214 -250 l 1
 25 -250 l 1
 25 -214 l 1
EndSplineSet
EndChar
StartChar: asciicircum
Encoding: 94 94 62
Width: 702
Flags: MW
LayerCount: 2
Fore
SplineSet
132 502 m 1
 351 632 l 1
 569 502 l 1
 547 460 l 1
 351 550 l 1
 154 460 l 1
 132 502 l 1
EndSplineSet
EndChar
StartChar: underscore
Encoding: 95 95 63
Width: 893
Flags: W
HStem: -308 61<97.4531 794.908>
LayerCount: 2
Fore
SplineSet
96 -278 m 0
 96 -267 102 -247 135 -247 c 2
 756 -247 l 2
 790 -247 796 -265 796 -278 c 0
 796 -290 790 -307 756 -308 c 1
 135 -308 l 2
 100 -308 96 -287 96 -278 c 0
EndSplineSet
EndChar
StartChar: grave
Encoding: 96 96 64
Width: 574
Flags: W
HStem: 494 168
VStem: 112 219
LayerCount: 2
Fore
SplineSet
112 599 m 0
 112 630 138 662 171 662 c 0
 197 662 203 652 292 570 c 0
 305 558 318 547 331 534 c 1
 306 494 l 1
 137 552 112 553 112 599 c 0
EndSplineSet
EndChar
StartChar: a
Encoding: 97 97 65
Width: 558
Flags: W
HStem: -6 36<183.632 306.057> 0 47<473.201 557.962> 234 31<260.424 357> 417 36<176.544 315.24>
VStem: 32 117<57.901 167.359> 72 125<313 409.895> 357 114<73.614 234 265 374.255>
LayerCount: 2
Fore
SplineSet
32 108 m 0xba
 32 186 105 224 184 244 c 0
 252 261 324 264 357 265 c 1
 357 299 l 2
 357 375 322 417 247 417 c 0
 235 417 203 416 175 410 c 1
 178 408 197 391 197 361 c 0
 197 319 165 298 134 298 c 0
 107 298 72 317 72 361 c 0
 72 449 194 453 251 453 c 0
 326 453 382 437 418 409 c 0
 454 382 471 343 471 299 c 2
 471 84 l 2
 471 61 471 48 532 47 c 0
 545 47 558 47 558 24 c 0
 558 0 546 0 526 0 c 2
 478 0 l 2x76
 374 0 374 46 374 77 c 1
 352 35 305 -6 225 -6 c 0
 156 -6 32 12 32 108 c 0xba
149 109 m 0xba
 149 65 189 30 240 30 c 0
 265 30 357 43 357 139 c 2
 357 234 l 1
 307 231 149 217 149 109 c 0xba
EndSplineSet
EndChar
StartChar: b
Encoding: 98 98 66
Width: 637
Flags: MW
LayerCount: 2
Fore
SplineSet
37 639 m 1
 37 686 l 1
 214 694 l 1
 214 401 l 1
 238 421 288 450 361 450 c 0
 506 450 600 356 600 223 c 0
 600 84 497 -6 348 -6 c 0
 259 -6 210 48 202 56 c 1
 153 0 l 1
 106 0 l 1
 106 600 l 2
 106 639 99 639 37 639 c 1
220 99 m 1
 220 99 l 1
 230 84 269 30 339 30 c 0
 371 30 417 41 446 82 c 1
 472 121 472 176 472 223 c 0
 472 263 472 320 449 361 c 0
 432 392 402 414 350 414 c 0
 295 414 247 385 220 350 c 1
 220 350 l 5
 220 99 l 1
EndSplineSet
EndChar
StartChar: c
Encoding: 99 99 67
Width: 510
Flags: MW
LayerCount: 2
Fore
SplineSet
38 222 m 0
 38 338 112 453 291 453 c 0
 349 453 465 447 465 361 c 0
 465 319 433 298 402 298 c 0
 375 298 340 317 340 361 c 0
 340 370 342 391 360 407 c 1
 347 410 330 413 295 413 c 0
 166 413 166 283 166 227 c 0
 166 181 166 34 305 34 c 0
 356 34 404 53 430 116 c 0
 435 129 436 131 454 131 c 0
 464 131 478 131 478 117 c 0
 478 110 448 -6 286 -6 c 0
 132 -6 38 89 38 222 c 0
EndSplineSet
EndChar
StartChar: d
Encoding: 100 100 68
Width: 637
Flags: W
HStem: -6 36<223.19 356.869> 0 47<533.055 601> 414 36<230.221 367.93> 639 47<355 422.945> 674 20G<355 532>
VStem: 38 128<119.098 321.584> 418 114<78.0928 376.088 405 637.98>
LayerCount: 2
Fore
SplineSet
38 221 m 0xa6
 38 362 143 450 289 450 c 0
 322 450 374 444 424 405 c 1
 424 600 l 2
 424 639 417 639 355 639 c 1
 355 686 l 1xb6
 532 694 l 1
 532 86 l 2
 532 47 539 47 601 47 c 1
 601 0 l 1x6e
 418 -6 l 1
 418 43 l 1
 387 18 339 -6 278 -6 c 0
 130 -6 38 89 38 221 c 0xa6
166 221 m 0
 166 180 166 122 190 80 c 0
 208 51 238 30 288 30 c 0
 364 30 405 85 418 103 c 1
 418 103 l 5
 418 353 l 1
 418 353 l 1
 396 382 356 414 299 414 c 0
 268 414 221 404 192 362 c 0
 166 323 166 269 166 221 c 0
EndSplineSet
EndChar
StartChar: f
Encoding: 102 102 70
Width: 350
Flags: W
HStem: 3 44<48 117 225 312> 397 47<42 117 225 340> 664 36<262.62 335.183>
VStem: 117 108<47 397 444 620.562> 314 123<565.667 660.946>
LayerCount: 2
Fore
SplineSet
42 397 m 1
 42 444 l 1
 117 444 l 1
 117 545 l 2
 117 658 225 700 323 700 c 0
 401 700 437 655 437 613 c 0
 437 572 405 551 375 551 c 0
 349 551 314 570 314 613 c 0
 314 632 322 651 337 662 c 1
 330 664 325 664 320 664 c 0
 295 664 219 655 219 545 c 2
 219 444 l 1
 340 444 l 1
 340 397 l 1
 225 397 l 1
 225 47 l 1
 312 47 l 5
 312 47 l 1
 312 0 l 1
 276 3 212 3 174 3 c 0
 128 3 83 1 48 0 c 1
 48 47 l 1
 117 47 l 1
 117 397 l 1
 42 397 l 1
EndSplineSet
EndChar
StartChar: h
Encoding: 104 104 72
Width: 637
Flags: MW
LayerCount: 2
Fore
SplineSet
45 0 m 1
 45 47 l 1
 114 47 l 1
 114 600 l 2
 114 639 107 639 45 639 c 1
 45 686 l 1
 222 694 l 1
 222 354 l 1
 223 354 l 1
 245 392 296 450 392 450 c 0
 445 450 485 439 511 413 c 4
 534 390 546 355 546 306 c 2
 546 47 l 1
 615 47 l 1
 615 0 l 1
 587 1 528 3 489 3 c 0
 451 3 391 1 363 0 c 1
 363 47 l 1
 432 47 l 1
 432 317 l 2
 432 393 411 414 377 414 c 0
 314 414 228 365 228 256 c 2
 228 47 l 1
 297 47 l 1
 297 0 l 1
 269 1 210 3 171 3 c 0
 133 3 73 1 45 0 c 1
EndSplineSet
EndChar
StartChar: i
Encoding: 105 105 73
Width: 318
Flags: W
HStem: 0 47<47 116 224 286> 395 47<50 114.965> 430 20G<50 224> 539 156<102.215 209.399>
VStem: 78 156<563.215 670.785> 116 108<47 393.416>
LayerCount: 2
Fore
SplineSet
47 0 m 1xb4
 47 47 l 1
 116 47 l 1
 116 356 l 2
 116 395 109 395 50 395 c 1
 50 442 l 1xd4
 224 450 l 1
 224 47 l 1
 286 47 l 1
 286 0 l 1
 250 1 199 3 169 3 c 0
 127 3 78 1 47 0 c 1xb4
78 617 m 0x98
 78 660 113 695 156 695 c 0
 198 695 234 661 234 617 c 0
 234 573 198 539 156 539 c 0
 113 539 78 574 78 617 c 0x98
EndSplineSet
EndChar
StartChar: k
Encoding: 107 107 75
Width: 605
Flags: MW
LayerCount: 2
Fore
SplineSet
37 0 m 1
 37 47 l 1
 106 47 l 1
 106 600 l 2
 106 639 99 639 37 639 c 1
 37 686 l 1
 214 694 l 1
 214 237 l 1
 403 386 l 5
 403 386 l 1
 395 394 392 397 369 397 c 1
 369 444 l 1
 392 443 457 441 484 441 c 0
 510 441 535 441 562 444 c 1
 562 397 l 1
 495 397 486 390 472 379 c 2
 342 278 l 1
 342 278 l 1
 511 67 l 2
 524 51 527 47 570 47 c 2
 587 47 l 1
 587 0 l 1
 553 2 519 3 483 3 c 0
 478 3 391 2 361 0 c 1
 361 47 l 1
 374 47 392 47 392 56 c 0
 392 59 376 79 367 91 c 2
 266 217 l 1
 246 203 238 197 209 174 c 1
 209 47 l 1
 278 47 l 1
 278 0 l 1
 242 1 194 3 157 3 c 0
 121 3 74 1 37 0 c 1
EndSplineSet
EndChar
StartChar: l
Encoding: 108 108 76
Width: 318
Flags: W
HStem: 0 47<47 116 224 293> 639 47<47 114.945> 674 20G<47 224>
VStem: 116 108<47 637.19>
LayerCount: 2
Fore
SplineSet
47 0 m 1xb0
 47 47 l 1
 116 47 l 1
 116 600 l 2
 116 639 109 639 47 639 c 1
 47 686 l 1xd0
 224 694 l 1
 224 47 l 1
 293 47 l 1
 293 0 l 1
 259 1 213 3 170 3 c 0
 127 3 79 1 47 0 c 1xb0
EndSplineSet
EndChar
StartChar: m
Encoding: 109 109 77
Width: 957
Flags: MW
LayerCount: 2
Fore
SplineSet
45 0 m 1
 45 47 l 1
 114 47 l 1
 114 47 l 1
 114 356 l 2
 114 395 107 395 45 395 c 1
 45 442 l 1
 217 450 l 1
 217 342 l 1
 249 405 306 450 393 450 c 0
 431 450 523 447 543 354 c 1
 569 400 621 450 712 450 c 0
 765 450 805 440 830 415 c 0
 854 392 866 356 866 306 c 2
 866 47 l 1
 935 47 l 1
 935 0 l 1
 907 1 848 3 809 3 c 0
 771 3 711 1 683 0 c 1
 683 47 l 1
 752 47 l 1
 752 47 l 5
 752 317 l 2
 752 394 730 414 696 414 c 0
 634 414 547 364 547 256 c 2
 547 47 l 1
 547 47 l 1
 616 47 l 1
 616 0 l 1
 588 1 529 3 490 3 c 0
 452 3 392 1 364 0 c 1
 364 47 l 1
 433 47 l 1
 433 47 l 1
 433 317 l 2
 433 394 411 414 377 414 c 0
 315 414 228 365 228 256 c 2
 228 47 l 1
 228 47 l 1
 297 47 l 1
 297 0 l 1
 269 1 210 3 171 3 c 0
 133 3 73 1 45 0 c 1
EndSplineSet
EndChar
StartChar: n
Encoding: 110 110 78
Width: 637
Flags: MW
LayerCount: 2
Fore
SplineSet
45 0 m 1
 45 47 l 1
 114 47 l 1
 114 47 l 1
 114 356 l 2
 114 395 107 395 45 395 c 1
 45 442 l 1
 217 450 l 1
 217 342 l 1
 243 393 296 450 392 450 c 0
 444 450 484 439 510 414 c 0
 534 391 546 356 546 306 c 2
 546 47 l 1
 615 47 l 1
 615 0 l 1
 587 1 528 3 489 3 c 0
 451 3 391 1 363 0 c 1
 363 47 l 1
 432 47 l 1
 432 47 l 1
 432 317 l 2
 432 393 411 414 377 414 c 0
 314 414 228 365 228 256 c 2
 228 47 l 1
 228 47 l 1
 297 47 l 1
 297 0 l 1
 269 1 210 3 171 3 c 0
 133 3 73 1 45 0 c 1
EndSplineSet
EndChar
StartChar: o
Encoding: 111 111 79
Width: 574
Flags: W
HStem: -6 40<212.88 360.841> 417 36<219.713 357.876>
VStem: 32 128<119.931 322.065> 414 128<120.014 322.113>
LayerCount: 2
Fore
SplineSet
32 218 m 0
 32 351 123 453 287 453 c 0
 450 453 542 352 542 218 c 0
 542 95 455 -6 287 -6 c 0
 120 -6 32 94 32 218 c 0
160 229 m 0
 160 184 160 133 178 94 c 0
 195 59 226 34 287 34 c 0
 342 34 373 54 391 84 c 4
 414 124 414 180 414 229 c 0
 414 277 414 332 393 366 c 0
 371 401 329 417 287 417 c 0
 238 417 196 396 177 359 c 0
 160 325 160 274 160 229 c 0
EndSplineSet
EndChar
StartChar: p
Encoding: 112 112 80
Width: 637
Flags: W
HStem: -194 47<37 106 220 289> -6 36<272.669 396.269> 395 47<37 105.136> 410 40<272.554 406.941>
VStem: 106 114<-147 39 72.3068 368.538> 472 128<123.851 325.459>
LayerCount: 2
Fore
SplineSet
37 -147 m 1xdc
 106 -147 l 1
 106 357 l 2
 106 395 99 395 37 395 c 1
 37 442 l 1xec
 214 450 l 1
 214 401 l 1
 237 419 290 450 365 450 c 0
 509 450 600 356 600 223 c 0
 600 84 498 -6 348 -6 c 0
 307 -6 263 4 220 39 c 1
 220 39 l 5
 220 -147 l 1
 289 -147 l 1
 289 -194 l 1
 261 -193 202 -191 163 -191 c 0
 125 -191 65 -193 37 -194 c 1
 37 -147 l 1xdc
220 117 m 2
 220 98 220 97 231 84 c 0
 276 30 323 30 337 30 c 0
 402 30 472 82 472 223 c 0
 472 349 416 410 349 410 c 0xdc
 327 410 275 404 235 363 c 0
 221 349 220 348 220 329 c 2
 220 117 l 2
EndSplineSet
EndChar
StartChar: q
Encoding: 113 113 81
Width: 605
Flags: MW
LayerCount: 2
Fore
SplineSet
38 222 m 0
 38 361 141 450 287 450 c 0
 347 450 403 420 438 371 c 1
 491 450 l 1
 532 450 l 1
 532 -147 l 5
 532 -147 l 1
 601 -147 l 1
 601 -194 l 1
 573 -193 514 -191 475 -191 c 0
 437 -191 377 -193 349 -194 c 1
 349 -147 l 1
 418 -147 l 1
 418 -147 l 1
 418 48 l 1
 372 8 327 -6 278 -6 c 0
 139 -6 38 81 38 222 c 0
166 221 m 0
 166 88 226 30 288 30 c 0
 318 30 369 41 409 100 c 0
 424 121 424 124 424 142 c 2
 424 281 l 2
 424 331 376 410 300 410 c 0
 240 410 166 363 166 221 c 0
EndSplineSet
EndChar
StartChar: r
Encoding: 114 114 82
Width: 472
Flags: MW
LayerCount: 2
Fore
SplineSet
37 0 m 1
 37 47 l 1
 106 47 l 1
 106 356 l 2
 106 395 99 395 37 395 c 1
 37 442 l 1
 203 450 l 1
 203 337 l 1
 226 400 266 450 336 450 c 0
 388 450 442 421 442 368 c 0
 442 328 410 307 381 307 c 0
 352 307 320 327 320 368 c 0
 320 397 338 413 339 414 c 1
 337 414 335 414 333 414 c 0
 238 409 214 290 214 222 c 2
 214 47 l 1
 301 47 l 5
 301 47 l 1
 301 0 l 1
 265 3 201 3 163 3 c 0
 117 3 72 1 37 0 c 1
EndSplineSet
EndChar
StartChar: t
Encoding: 116 116 84
Width: 446
Flags: MW
LayerCount: 2
Fore
SplineSet
21 397 m 1
 21 433 l 1
 120 436 169 535 170 635 c 1
 217 635 l 1
 217 444 l 1
 363 444 l 1
 363 397 l 1
 217 397 l 1
 217 121 l 2
 217 98 217 34 275 34 c 0
 303 34 335 58 335 126 c 2
 335 177 l 1
 382 177 l 1
 382 124 l 2
 382 51 337 -6 261 -6 c 0
 190 -6 103 16 103 123 c 2
 103 397 l 1
 21 397 l 1
EndSplineSet
EndChar
StartChar: u
Encoding: 117 117 85
Width: 637
Flags: W
HStem: -6 36<240.906 374.098> 0 47<547.055 615> 395 47<45 112.945 363 430.945> 430 20G<45 228 363 546>
VStem: 114 114<45.7713 393.19> 432 114<48.8101 72 83.6119 393.19>
LayerCount: 2
Fore
SplineSet
45 395 m 1xac
 45 442 l 1xac
 228 450 l 1x1c
 228 109 l 2
 228 55 231 30 308 30 c 0
 381 30 432 83 432 165 c 2
 432 356 l 2
 432 395 425 395 363 395 c 1
 363 442 l 1xac
 546 450 l 1
 546 86 l 2
 546 47 553 47 615 47 c 1
 615 0 l 1x5c
 438 -6 l 1
 438 72 l 1
 392 -6 320 -6 294 -6 c 0
 195 -6 114 16 114 123 c 2
 114 356 l 2
 114 395 107 395 45 395 c 1xac
EndSplineSet
EndChar
StartChar: v
Encoding: 118 118 86
Width: 605
Flags: W
HStem: 397 47<26 90 210 264 410 457.979 506.002 580>
LayerCount: 2
Fore
SplineSet
26 397 m 1
 26 444 l 1
 67 443 112 441 140 441 c 0
 141 441 231 442 264 444 c 1
 264 397 l 1
 210 397 l 1
 210 397 l 5
 337 124 l 1
 453 374 l 2
 458 384 458 385 458 386 c 0
 458 394 429 397 410 397 c 1
 410 444 l 1
 431 443 476 441 501 441 c 0
 526 441 555 442 580 444 c 1
 580 397 l 1
 516 397 512 390 506 376 c 2
 340 20 l 2
 330 -1 320 -4 303 -4 c 0
 290 -4 277 -4 265 21 c 2
 90 397 l 1
 26 397 l 1
EndSplineSet
EndChar
StartChar: x
Encoding: 120 120 88
Width: 605
Flags: MW
LayerCount: 2
Fore
SplineSet
22 0 m 1
 22 47 l 1
 70 47 106 47 123 66 c 2
 254 213 l 1
 98 397 l 1
 27 397 l 1
 27 444 l 1
 60 443 105 441 137 441 c 0
 169 441 232 443 258 444 c 1
 258 397 l 1
 218 397 l 1
 218 397 l 1
 316 282 l 1
 400 376 l 2
 404 380 404 382 408 388 c 1
 396 395 384 397 370 397 c 1
 370 444 l 1
 398 443 448 441 473 441 c 0
 478 441 530 442 565 444 c 1
 565 397 l 1
 482 397 476 390 463 376 c 2
 346 246 l 1
 514 47 l 1
 585 47 l 1
 585 0 l 1
 552 1 507 3 475 3 c 0
 442 3 381 1 355 0 c 1
 355 47 l 1
 394 47 l 1
 394 47 l 5
 284 177 l 1
 187 68 l 2
 180 60 180 59 180 58 c 0
 180 52 199 47 217 47 c 1
 217 0 l 1
 197 1 139 3 114 3 c 0
 109 3 57 2 22 0 c 1
EndSplineSet
EndChar
StartChar: y
Encoding: 121 121 89
Width: 605
Flags: MW
LayerCount: 2
Fore
SplineSet
22 -108 m 0
 22 -69 51 -50 79 -50 c 0
 113 -50 137 -74 137 -107 c 0
 137 -142 114 -156 105 -160 c 1
 113 -163 115 -164 129 -164 c 0
 200 -164 232 -96 254 -48 c 2
 277 0 l 1
 90 397 l 1
 26 397 l 1
 26 444 l 1
 67 443 112 441 140 441 c 0
 141 441 231 442 264 444 c 1
 264 397 l 1
 210 397 l 1
 210 397 l 5
 337 127 l 1
 452 373 l 2
 453 374 457 384 457 385 c 0
 457 397 412 397 410 397 c 1
 410 444 l 1
 431 443 476 441 501 441 c 0
 526 441 556 442 580 444 c 1
 580 397 l 1
 516 397 513 390 506 376 c 2
 291 -81 l 2
 264 -138 206 -200 129 -200 c 0
 69 -200 22 -159 22 -108 c 0
EndSplineSet
EndChar
StartChar: z
Encoding: 122 122 90
Width: 510
Flags: MW
LayerCount: 2
Fore
SplineSet
32 22 m 0
 32 31 32 33 41 44 c 2
 320 408 l 1
 235 408 l 2
 132 408 101 372 95 269 c 1
 48 269 l 1
 60 444 l 1
 427 444 l 2
 445 444 459 444 459 423 c 0
 459 414 457 412 449 401 c 2
 172 40 l 1
 258 40 l 2
 390 40 406 101 415 202 c 1
 462 202 l 1
 444 0 l 1
 64 0 l 2
 45 0 32 0 32 22 c 0
EndSplineSet
EndChar
StartChar: braceleft
Encoding: 123 123 91
Width: 574
Flags: MW
LayerCount: 2
Fore
SplineSet
78 250 m 0
 78 274 104 265 141 275 c 0
 198 292 219 325 226 351 c 4
 229 363 230 373 230 379 c 2
 230 603 l 2
 230 631 228 691 316 726 c 0
 341 736 391 750 468 750 c 0
 481 750 495 749 495 732 c 0
 495 706 469 718 425 705 c 0
 349 682 344 631 344 608 c 2
 344 378 l 2
 344 351 338 280 223 250 c 1
 344 219 344 145 344 115 c 2
 344 -100 l 2
 344 -113 344 -126 348 -139 c 0
 359 -174 395 -198 437 -208 c 0
 468 -216 496 -208 496 -232 c 0
 496 -250 479 -250 472 -250 c 2
 467 -250 l 2
 376 -250 251 -230 232 -138 c 0
 230 -127 230 -115 230 -103 c 2
 230 112 l 2
 230 136 228 153 216 172 c 0
 193 207 152 226 112 230 c 0
 95 232 78 231 78 250 c 0
EndSplineSet
EndChar
StartChar: bar
Encoding: 124 124 92
Width: 318
Flags: MW
LayerCount: 2
Fore
SplineSet
129 -209 m 2
 129 705 l 2
 129 715 127 749 159 749 c 0
 171 749 189 743 189 710 c 2
 189 -205 l 2
 189 -223 188 -249 159 -249 c 0
 128 -249 129 -216 129 -209 c 2
EndSplineSet
EndChar
StartChar: braceright
Encoding: 125 125 93
Width: 574
Flags: MW
LayerCount: 2
Fore
SplineSet
78 -231 m 0
 78 -208 106 -216 137 -208 c 0
 175 -199 214 -176 226 -139 c 0
 230 -126 230 -113 230 -100 c 2
 230 115 l 2
 230 151 234 220 350 250 c 1
 226 281 230 362 230 385 c 2
 230 600 l 2
 230 612 230 624 227 636 c 0
 216 677 168 708 105 713 c 0
 95 714 78 713 78 731 c 0
 78 750 94 750 106 750 c 0
 109 750 113 750 116 750 c 4
 201 749 322 728 341 640 c 0
 344 628 344 615 344 603 c 2
 344 386 l 2
 344 293 429 273 463 269 c 0
 476 268 496 271 496 250 c 0
 496 230 474 232 461 230 c 0
 411 225 356 196 346 142 c 0
 344 132 344 122 344 112 c 2
 344 -103 l 2
 344 -139 340 -200 242 -232 c 0
 198 -246 143 -250 106 -250 c 2
 102 -250 l 2
 89 -250 78 -247 78 -231 c 0
EndSplineSet
EndChar
StartChar: asciitilde
Encoding: 126 126 94
Width: 702
Flags: W
HStem: 586 74<336.626 544.075> 620 74<156.005 363.932>
LayerCount: 2
Fore
SplineSet
95 611 m 1x80
 145 665 161 694 237 694 c 0x40
 317 694 403 660 483 660 c 0x80
 541 660 561 679 579 694 c 1x40
 605 669 l 1
 557 617 541 586 464 586 c 0x80
 384 586 297 620 217 620 c 0x40
 160 620 139 601 121 586 c 1
 95 611 l 1x80
EndSplineSet
EndChar
StartChar: exclamdown
Encoding: 161 161 100
Width: 350
Flags: MW
LayerCount: 2
Fore
SplineSet
96 -134 m 0
 96 -123 98 -112 100 -102 c 2
 148 241 l 2
 150 258 149 274 174 274 c 0
 202 274 198 257 202 235 c 2
 251 -116 l 2
 252 -122 253 -128 253 -134 c 0
 253 -177 214 -205 175 -205 c 0
 138 -205 96 -179 96 -134 c 0
97 422 m 0
 97 461 129 500 174 500 c 0
 219 500 252 463 252 422 c 0
 252 383 220 344 175 344 c 0
 130 344 97 381 97 422 c 0
EndSplineSet
EndChar
StartChar: cent
Encoding: 162 162 101
Width: 575
Flags: MW
LayerCount: 2
Fore
SplineSet
38 223 m 0
 38 314 91 437 295 452 c 1
 295 545 l 1
 343 545 l 1
 343 453 l 1
 417 452 530 448 530 362 c 0
 530 324 501 299 467 299 c 0
 433 299 405 324 405 361 c 0
 405 385 414 396 423 407 c 1
 397 411 370 412 343 412 c 1
 343 35 l 1
 427 38 464 69 484 100 c 0
 499 123 496 131 518 131 c 0
 529 131 541 129 541 117 c 0
 540 94 503 7 343 -5 c 1
 343 -97 l 1
 295 -97 l 1
 295 -5 l 1
 92 10 38 132 38 223 c 0
166 223 m 0
 166 175 172 65 295 40 c 1
 295 411 l 1
 201 395 166 337 166 223 c 0
EndSplineSet
EndChar
StartChar: sterling
Encoding: 163 163 102
Width: 735
Flags: MW
LayerCount: 2
Fore
SplineSet
63 51 m 0
 63 100.696830596 115.062564114 135.779608107 192.99999569 138.7898681 c 4
 196.611958579 138.92937677 200.279495578 139 204 139 c 0
 223 139 242 137 261 134 c 1
 262 212 l 1
 262 323 l 1
 202 323 l 2
 191.877419912 323 184.031875994 323.910814468 180.000000312 331.264318841 c 0
 178.057298889 334.807499368 177 339.846450795 177 347 c 0
 177 353.667024867 178.102046791 358.497305082 179.999999817 361.99179792 c 0
 184.36495527 370.028511874 192.939605603 371 202 371 c 2
 262 371 l 1
 262 483 l 2
 262 492 261 501 261 510 c 0
 261 665 385 704 476 704 c 0
 592 704 669 613 669 524 c 0
 669 471 628 458 606 458 c 0
 574 458 544 483 544 520 c 0
 544 539.190603825 552.351003972 573.413014798 595 581.457310669 c 0
 599.021183023 582.215771336 603.347266978 582.741514832 608 583 c 1
 570 655 513 667 478 667 c 0
 435 667 404 646 389 616 c 0
 377 592 376 559 376 526 c 2
 376 371 l 1
 466 371 l 2
 482 371 492 369 492 347 c 0
 492 326 482 323 466 323 c 2
 376 323 l 1
 376 185 l 2
 376 154 374 137 363 108 c 1
 391 99 485 66 551 66 c 0
 598 66 644 86 653 130 c 0
 656 145 659 153 676 153 c 0
 682.855110532 153 688.114795309 152.12976777 692.000000189 150.223593919 c 0
 698.316481701 147.124577967 701 141.28740789 701 132 c 0
 701 77 645 -5 527 -5 c 0
 439 -5 334 40 319 40 c 0
 302 40 267 -5 161 -5 c 0
 113 -5 63 4 63 51 c 0
128 49 m 0
 128 42 135 31 162 31 c 0
 192 31 215 41 236 62 c 1
 217 65 199 67 180 67 c 2
 179 67 l 2
 153 67 128 64 128 49 c 0
EndSplineSet
EndChar
StartChar: currency
Encoding: 164 164 106
Width: 773
Flags: MW
LayerCount: 2
Fore
SplineSet
155 285 m 0
 155 144 247 55 385 55 c 0
 530 55 616 148 616 286 c 0
 616 428 525 516 387 516 c 0
 242 516 155 424 155 285 c 0
53 -18 m 0
 53 3 85 26 155 97 c 1
 155 98 l 1
 113 151 95 219 95 286 c 0
 95 343 109 416 155 474 c 1
 155 475 l 1
 53 576 53 573 53 589 c 0
 53 605 67 619 82 619 c 0
 84.6686074197 619 87.2838038476 618.572712066 90 617.646869715 c 0
 102.37275163 613.429494819 116.669001276 598.695861174 148 567.224307125 c 2
 160.790635742 556.104710034 180.36328125 534.49609375 198 517 c 9
 198 517 l 17
 251 559 319 577 386 577 c 2
 387 577 l 2
 460 577 525 555 574 517 c 1
 575 517 l 1
 674 617 672 619 689 619 c 0
 705 619 719 605 719 589 c 0
 719 570.829695182 687.93359375 544.48828125 617 474 c 9
 617 474 l 17
 658 421 677 353 677 286 c 0
 677 206 653 145 617 97 c 9
 617 97 l 17
 697.786132812 17.2880859375 719 -1.59794923475 719 -18 c 0
 719 -33 706 -47 690 -47 c 0
 686.841170705 -47 683.956741979 -46.5759263931 681 -45.5268427595 c 0
 665.23624965 -39.933695771 647.417034032 -16.5749754964 575 55 c 1
 574 55 l 1
 521 13 451 -5 385 -5 c 0
 297 -5 239 24 197 55 c 9
 197 55 l 21
 112.717773438 -30.4150390625 99.4004919384 -47 82 -47 c 0
 66 -47 53 -32 53 -18 c 0
EndSplineSet
EndChar
StartChar: yen
Encoding: 165 165 95
Width: 869
Flags: MW
LayerCount: 2
Fore
SplineSet
19 638 m 1
 19 686 l 1
 66 684 114 683 177 683 c 0
 240 683 303 684 367 686 c 1
 367 638 l 1
 367 638 l 1
 283 638 l 1
 405 458 l 1
 546 458 l 2
 564 458 565 461 576 476 c 0
 675 618 675 622 675 626 c 0
 675 633 658 638 603 638 c 1
 603 686 l 1
 648 684 693 683 738 683 c 0
 772 683 805 684 849 686 c 1
 849 638 l 1
 848 638 l 2
 750 638 748 633 732 610 c 2
 629 458 l 1
 764 458 l 2
 783 458 801 458 801 440 c 0
 801 437 800 434 798 431 c 0
 794 426 786 422 772 422 c 2
 603 422 l 1
 603 422 l 1
 529 303 503 293 503 256 c 2
 503 236 l 1
 765 236 l 2
 780 236 801 236 801 218 c 0
 801 201 784 199 772 199 c 0
 769 199 767 200 765 200 c 2
 503 200 l 1
 503 48 l 1
 503 48 l 1
 611 48 l 1
 611 48 l 1
 611 0 l 1
 551 2 490 3 430 3 c 0
 396 3 344 3 258 0 c 1
 258 48 l 1
 258 48 l 1
 366 48 l 1
 366 48 l 1
 366 200 l 1
 104 200 l 2
 101 200 99 199 97 199 c 0
 84 199 68 201 68 218 c 0
 68 235 84 236 98 236 c 2
 366 236 l 1
 366 262 l 2
 366 277 362 281 277 404 c 0
 266 420 261 422 250 422 c 2
 101 422 l 2
 76 422 68 431 68 439 c 0
 68 446 73 453 78 456 c 1
 84 458 99 458 145 458 c 2
 240 458 l 1
 117 638 l 1
 19 638 l 1
431 422 m 1
 484 343 l 1
 539 422 l 1
 431 422 l 1
EndSplineSet
EndChar
StartChar: brokenbar
Encoding: 166 166 98
Width: 192
Flags: MW
LayerCount: 2
Fore
SplineSet
65 126 m 2
 65 137 64 155 81 164 c 0
 86 167 90 168 95 168 c 0
 106 168 125 162 125 129 c 2
 125 -210 l 2
 125 -246 105 -250 96 -250 c 0
 84 -250 65 -243 65 -211 c 2
 65 126 l 2
65 371 m 2
 65 706 l 2
 65 719 64 736 82 746 c 0
 87 748 91 749 95 749 c 0
 106 749 125 743 125 710 c 2
 125 374 l 2
 125 351 120 332 95 332 c 0
 84 332 65 338 65 371 c 2
EndSplineSet
EndChar
StartChar: section
Encoding: 167 167 105
Width: 529
Flags: MW
LayerCount: 2
Fore
SplineSet
80 253 m 0
 80 330 132 368 155 381 c 1
 115 421 80 470 80 542 c 0
 80 636 168 699 265 699 c 0
 334 699 393 670 419 626 c 0
 428 611 433 593 433 575 c 0
 433 536 403 517 375 517 c 0
 345 517 319 540 319 574 c 0
 319 610 346 623 360 629 c 1
 335 650 306 663 266 663 c 0
 197 663 150 601 150 548 c 0
 150 494 247 480 303 453 c 0
 421 396 448 299 448 246 c 0
 448 169 396 132 374 118 c 1
 414 78 449 29 449 -43 c 0
 449 -137 361 -200 263 -200 c 0
 199 -200 144 -175 116 -136 c 4
 103 -118 96 -98 96 -76 c 0
 96 -38 124 -17 153 -17 c 0
 184 -17 210 -41 210 -74 c 0
 210 -94 201 -117 168 -129 c 1
 192 -148 220 -163 263 -163 c 0
 314 -163 369 -126 377 -59 c 0
 378 -56 378 -54 378 -51 c 0
 378 7 289 16 225 47 c 0
 165 75 80 145 80 253 c 0
150 263 m 0
 150 209 216 203 300 166 c 0
 311 161 322 155 334 149 c 1
 356 169 378 199 378 240 c 0
 378 255 373 266 357 278 c 0
 319 307 285 306 216 340 c 0
 209 343 202 347 195 351 c 1
 160 318 150 285 150 263 c 0
EndSplineSet
EndChar
StartChar: dieresis
Encoding: 168 168 214
Width: 575
Flags: W
HStem: 530 156<154.5 195 152 196.5 378 417>
VStem: 97 155<586.5 627.5> 321 155<585.5 629.5>
LayerCount: 2
Fore
SplineSet
97 608 m 0
 97 647 129 686 175 686 c 0
 215 686 252 653 252 608 c 0
 252 565 218 530 175 530 c 0
 134 530 97 563 97 608 c 0
321 608 m 0
 321 651 356 686 398 686 c 0
 439 686 476 653 476 608 c 0
 476 561 436 530 398 530 c 0
 358 530 321 563 321 608 c 0
EndSplineSet
EndChar
StartChar: copyright
Encoding: 169 169 142
Width: 1277
Flags: W
HStem: -261 61<467.044 811.428> -11 48<565.676 773.465> 443 48<566.943 758.86> 700 61<468.992 807.887>
VStem: 63 61<109.343 390.705> 319 153<143.98 336.759> 827 66<297.316 382.751> 845 48<99.8022 177.935> 1152 61<107.913 388.97>
LayerCount: 2
Fore
SplineSet
319 240 m 0
 319 390 453 491 648 491 c 0
 706 491 749 481 802 449 c 9
 802 449 l 17
 836.438476562 471.345703125 864.193574613 490 876 490 c 0
 894 490 893 474 893 462 c 2
 893 325 l 2
 893 302 891 293 868 293 c 0
 856.894764363 293 850.654114527 294.171103989 846.790533882 297 c 4
 837.781584081 303.596311686 841.697028422 319.206226163 827 350 c 0
 811 384 766 443 674 443 c 0
 573 443 525 402 505 378 c 1
 490 358 472 323 472 242 c 0
 472 193 476 151 496 117 c 0
 519 76 575 37 678 37 c 0
 752 37 835 73 845 155 c 0
 847 168 848 178 869 178 c 0
 882 178 893 176 893 157 c 0
 893 92 825 -11 651 -11 c 0
 444 -11 319 96 319 240 c 0
63 250 m 0
 63 504 235 761 640 761 c 0
 984 761 1213 556 1213 249 c 0
 1213 -5 1040 -261 635 -261 c 0
 292 -261 63 -56 63 250 c 0
124 250 m 0
 124 -2 302 -200 637 -200 c 0
 954 -200 1152 -20 1152 250 c 0
 1152 469 1008 700 638 700 c 0
 316 700 124 515 124 250 c 0
EndSplineSet
EndChar
StartChar: ordfeminine
Encoding: 170 170 130
Width: 511
Flags: W
HStem: 278 37<46.0138 462.938> 370 36<162.543 277.269> 375 48.447<407.763 492.884> 511 32<198.723 293> 722 36<160.256 258.868>
VStem: 31 118<416.873 483.505> 71 125<602.283 697.143> 293 114<425.433 511 543 677.023>
LayerCount: 2
Fore
SplineSet
31 451 m 0
 31 487 62 538 293 543 c 1
 293 582 l 2
 293 602 295 722 218 722 c 0
 204 722 183 718 159 708 c 1
 161.847386371 706.466791954 165.222486947 704.50181774 168.757530971 702 c 4
 181.362050155 693.079542579 196 677.33395977 196 650 c 0
 196 613 168 588 133 588 c 0
 99 588 71 613 71 651 c 0
 71 715 138 758 224 758 c 0
 300 758 408 723 408 581 c 0
 408 572 407 563 407 555 c 2
 407 429 l 1
 423.301689787 424.675061893 438.275207529 423.891915905 450.999998437 423.447031368 c 0
 476.523681316 422.554671569 493 423.02324832 493 399 c 0
 493 375 475 375 464 375 c 2
 412 375 l 2
 400.954886485 375 390.988808897 375.095209052 382 375.449585485 c 2
 340.531550051 377.084445179 319.862236094 384.235144726 310 413 c 1
 297 398 272 370 187 370 c 0
 118 370 31 381 31 451 c 0
46 296 m 0
 46 314 65 315 73 315 c 2
 438 315 l 1
 459 314 463 303 463 295 c 0
 463 289 458 278 436 278 c 2
 73 278 l 2
 53 278 46 286 46 296 c 0
149 451 m 0
 149 433 166 406 210 406 c 0
 243 406 276 415 288 436 c 0
 294 445 293 456 293 466 c 2
 293 511 l 1
 179 505 149 475 149 451 c 0
EndSplineSet
EndChar
StartChar: guillemotleft
Encoding: 171 171 108
Width: 639
Flags: MW
LayerCount: 2
Fore
SplineSet
127 222 m 0
 127 236 137 236 195 279 c 1
 366 402 380 444 404 444 c 0
 414 444 421 439 421 431 c 0
 421 413 315 289 245 222 c 1
 302 171 421 32 421 14 c 0
 421 6 414 1 404 1 c 0
 390 1 382 13 335 55 c 0
 208.072529621 166.566821098 150.426643489 193.165661515 132.999999771 210.358610017 c 4
 128.871159436 214.432081674 127 217.977559732 127 222 c 0
334 222 m 0
 334 234.274599595 345.685989657 239.454134041 382 270.972183498 c 0
 401.89688201 288.241300991 429.187281994 313.417439782 466 352 c 0
 502 390 506 402 523 402 c 0
 538 402 539 392 539 389 c 0
 539 373 469 275 425 222 c 1
 459 184 539 73 539 56 c 0
 539 52 536 43 523 43 c 0
 499 43 497 72 381 175 c 0
 350 202 334 210 334 222 c 0
EndSplineSet
EndChar
StartChar: logicalnot
Encoding: 172 172 143
Width: 766
Flags: W
HStem: 310 60<103 641 100 655>
VStem: 641 61<100 310 310 310>
LayerCount: 2
Fore
SplineSet
64 340 m 0
 64 351 70 370 103 370 c 2
 655 370 l 2
 657 370 659 371 661 371 c 0
 699 371 702 350 702 328 c 2
 702 100 l 2
 702 67 684 61 672 61 c 0
 660 61 642 67 641 100 c 1
 641 310 l 1
 100 310 l 1
 68 311 64 331 64 340 c 0
EndSplineSet
EndChar
StartChar: softhyphen
Encoding: 173 173 141
Width: 192
Flags: MW
LayerCount: 2
Fore
SplineSet
12 174 m 1
 12 271 l 1
 318 271 l 1
 318 174 l 1
 12 174 l 1
EndSplineSet
EndChar
StartChar: uni00AD
Encoding: 173 173 141
Width: 192
Flags: W
HStem: 174 97<12 318 12 318>
LayerCount: 2
Fore
SplineSet
12 174 m 1
 12 271 l 1
 318 271 l 1
 318 174 l 1
 12 174 l 1
EndSplineSet
EndChar
StartChar: registered
Encoding: 174 174 144
Width: 1277
Flags: MW
LayerCount: 2
Fore
SplineSet
274 0 m 1
 274 48 l 1
 274 48 l 1
 383 48 l 1
 383 48 l 1
 383 402 l 1
 383 432 l 1
 274 432 l 1
 274 432 l 1
 274 480 l 1
 593 480 l 2
 818 480 877 402 877 346 c 0
 877 282 801 250 753 238 c 1
 757 235 806 216 821 164 c 0
 835 115 831 26 900 26 c 0
 933 26 951 54 956 80 c 0
 958 90 958 110 980 110 c 0
 992 110 1004 105 1004 86 c 0
 1004 59 982 -11 892 -11 c 2
 876 -11 l 2
 736 -11 681 12 681 104 c 2
 681 141 l 2
 681 192 652 222 596 222 c 2
 519 222 l 1
 519 48 l 1
 519 48 l 1
 628 48 l 1
 628 48 l 1
 628 0 l 1
 541 3 490 3 455 3 c 0
 395 3 335 2 274 0 c 1
519 258 m 1
 578 258 l 2
 627 258 698 258 717 298 c 0
 724 314 724 330 724 350 c 0
 723 424 682 432 585 432 c 2
 519 432 l 1
 519 432 l 1
 519 258 l 1
63 250 m 0
 63 504 235 761 640 761 c 0
 984 761 1213 556 1213 249 c 0
 1213 -5 1040 -261 635 -261 c 0
 292 -261 63 -56 63 250 c 0
124 250 m 0
 124 -2 302 -200 637 -200 c 0
 954 -200 1152 -20 1152 250 c 0
 1152 469 1008 700 638 700 c 0
 316 700 124 515 124 250 c 0
EndSplineSet
EndChar
StartChar: macron
Encoding: 175 175 126
Width: 575
Flags: W
HStem: 645 52<80 495 80 495>
LayerCount: 2
Fore
SplineSet
80 645 m 1
 80 697 l 1
 495 697 l 1
 495 645 l 1
 80 645 l 1
EndSplineSet
EndChar
StartChar: degree
Encoding: 176 176 145
Width: 383
Flags: W
HStem: 431 61<172 212 172 230> 625 61<171 211>
VStem: 64 61<536 579.5 536 595> 258 61<537.5 580.5>
LayerCount: 2
Fore
SplineSet
64 559 m 0
 64 631 114 686 192 686 c 0
 269 686 319 631 319 558 c 0
 319 485 269 431 191 431 c 0
 114 431 64 485 64 559 c 0
125 558 m 0
 125 514 153 492 191 492 c 0
 233 492 258 516 258 559 c 0
 258 602 230 625 192 625 c 0
 150 625 125 601 125 558 c 0
EndSplineSet
EndChar
StartChar: plusminus
Encoding: 177 177 146
Width: 894
Flags: MW
LayerCount: 2
Fore
SplineSet
64 -8 m 0
 64 19 87 23 106 23 c 2
 416 23 l 1
 416 315 l 1
 109 315 l 2
 102 315 93 315 86 317 c 0
 73 321 64 333 64 346 c 0
 64 374 91 376 104 376 c 2
 416 376 l 1
 416 683 l 2
 416 691 416 699 418 706 c 0
 421 719 433 728 446 728 c 0
 459 728 471 719 475 706 c 0
 477 699 477 690 477 682 c 2
 477 376 l 1
 783 376 l 2
 791 376 799 376 807 374 c 0
 819 370 829 359 829 346 c 0
 829 332 819 321 807 317 c 0
 799 315 791 315 783 315 c 2
 477 315 l 1
 477 23 l 1
 790 23 l 2
 824 23 828 1 828 -8 c 0
 828 -20 823 -37 789 -38 c 1
 104 -38 l 2
 68 -38 64 -17 64 -8 c 0
EndSplineSet
EndChar
StartChar: two.superior
Encoding: 178 178 147
Width: 511
Flags: MW
LayerCount: 2
Fore
SplineSet
57 347 m 1
 57 435 l 1
 58 454 64 457 85 466 c 0
 234 534 314 560 314 628 c 0
 314 658 296 698 228 710 c 0
 218 712 207 713 195 713 c 1
 199 701 201 695 201 683 c 0
 201 640 169 611 129 611 c 0
 87 611 57 644 57 683 c 0
 57 761 162 761 235 761 c 0
 418 761 453 681 453 628 c 8
 453 547 325 518 286 506 c 1
 263 500 223 484 192 473 c 1
 260 473 l 2
 338 473 374 473 382 481 c 0
 388 486 391 494 393 501 c 0
 396 511 400 531 402 541 c 9
 449 541 l 1
 422 347 l 1
 57 347 l 1
EndSplineSet
EndChar
StartChar: uni00B2
Encoding: 178 178 147
Width: 511
Flags: W
HStem: 347 126<192 391.085> 713 48<195.219 275.235>
VStem: 57 144<631.159 711.496> 314 139<576.399 679.713> 402 47<490.704 541>
LayerCount: 2
Fore
SplineSet
57 347 m 1
 57 435 l 1
 58 454 64 457 85 466 c 0
 234 534 314 560 314 628 c 0
 314 657.703155134 296.446037394 698.091330985 228 709.825555179 c 0
 218.098627467 711.523022696 207.132267857 712.620866629 195 713 c 1
 199 701 201 695 201 683 c 0
 201 640 169 611 129 611 c 0
 87 611 57 644 57 683 c 0
 57 761 162 761 235 761 c 0
 418 761 453 681 453 628 c 8
 453 547 325 518 286 506 c 1
 263 500 223 484 192 473 c 1
 260 473 l 2
 338 473 374 473 382 481 c 0
 388 486 391.12418759 493.965703461 393 501 c 0
 395.666666667 511 400.22265625 531 402 541 c 9
 449 541 l 1
 422 347 l 1
 57 347 l 1
EndSplineSet
EndChar
StartChar: three.superior
Encoding: 179 179 148
Width: 511
Flags: MW
LayerCount: 2
Fore
SplineSet
47 473 m 0
 47 519 82 549 124 549 c 0
 166 549 200 519 200 473 c 0
 200 435 178 417 168 409 c 1
 195 402 224 401 238 401 c 0
 298 401 309 431 309 474 c 0
 309 537 280 549 246 551 c 4
 238 551 230 551 222 551 c 0
 202 551 199 553 194 560 c 1
 190 568 192 577 198 583 c 0
 213 596 245 578 272 609 c 0
 287 626 292 649 292 671 c 0
 292 699 283 721 241 721 c 0
 216 721 198 717 174 706 c 1
 178 704 182 702 187 699 c 0
 203 689 219 671 219 641 c 0
 219 600 187 572 149 572 c 0
 112 572 80 598 80 642 c 0
 80 692 124 761 246 761 c 0
 377 761 430 714 430 667 c 0
 430 613 386 587 341 570 c 1
 395 560 462 532 462 475 c 0
 462 428 413 357 244 357 c 0
 84 357 47 426 47 473 c 0
EndSplineSet
EndChar
StartChar: acute
Encoding: 180 180 215
Width: 575
Flags: MW
LayerCount: 2
Fore
SplineSet
243 535 m 1
 371 653 376 662 403 662 c 0
 438 662 461 627 461 599 c 0
 461 554 422 547 325 514 c 4
 308 508 289 502 268 494 c 1
 243 535 l 1
EndSplineSet
EndChar
StartChar: micro
Encoding: 181 181 149
Width: 639
Flags: MW
LayerCount: 2
Fore
SplineSet
44 -147 m 1
 44 -147 l 1
 114 -147 l 1
 114 359 l 1
 113 388 104 394 55 394 c 2
 44 394 l 1
 44 442 l 1
 228 450 l 1
 228 147 l 2
 228 138 227 128 227 118 c 0
 227 56 231 31 308 31 c 0
 356 31 426.410697544 58.2139508855 432 170 c 2
 432 170 l 1
 432 355 l 2
 432 385.998801518 429 394 372 394 c 2
 363 394 l 1
 363 442 l 1
 546 450 l 1
 546 85 l 2
 546 54 554 48 606 48 c 2
 616 48 l 1
 616 0 l 1
 438 -5 l 1
 438 38 l 1
 437 72 l 1
 390 -4 325 -5 295 -5 c 2
 292 -5 l 2
 271 -5 249 -4 228 -1 c 1
 228 -147 l 1
 297 -147 l 1
 297 -147 l 1
 297 -195 l 1
 259.016995671 -193.273499803 221.779192075 -192.292200339 184 -192.056101607 c 0
 178.015290807 -192.018700536 172.016995671 -192 166 -192 c 0
 117 -192 81 -193 44 -195 c 1
 44 -147 l 1
EndSplineSet
EndChar
StartChar: paragraph
Encoding: 182 182 216
Width: 703
Flags: MW
LayerCount: 2
Fore
SplineSet
63 457 m 0
 63 595 187 694 364 694 c 2
 623 694 l 2
 642 694 669 691 669 664 c 0
 669 653 662 642 652 637 c 0
 643 633 632 634 622 634 c 2
 574 634 l 1
 574 -134 l 1
 623 -134 l 2
 633 -134 643 -133 652 -138 c 0
 662 -143 669 -154 669 -165 c 0
 669 -176 662 -195 630 -195 c 2
 316 -195 l 1
 282 -194 278 -173 278 -164 c 0
 278 -154 284 -144 294 -139 c 1
 303 -133 313 -134 323 -134 c 2
 373 -134 l 1
 373 220 l 1
 204 229 63 315 63 457 c 0
433 -134 m 1
 513 -134 l 1
 513 634 l 1
 433 634 l 1
 433 -134 l 1
EndSplineSet
EndChar
StartChar: periodcentered
Encoding: 183 183 116
Width: 275
Flags: W
HStem: 158 21<116.5 160>
VStem: 59 156<216.5 258.5 216.5 259.5>
LayerCount: 2
Fore
SplineSet
59 236 m 0
 59 283 99 314 137 314 c 0
 178 314 215 281 215 236 c 0
 215 197 183 158 137 158 c 0
 96 158 59 191 59 236 c 0
EndSplineSet
EndChar
StartChar: cedilla
Encoding: 184 184 128
Width: 511
Flags: MW
LayerCount: 2
Fore
SplineSet
102 -163 m 1
 113 -163 l 2
 220 -163 292 -155 293 -110 c 1
 292 -89 277 -61 198 -60 c 1
 198 0 l 1
 312 0 l 1
 312 -30 l 1
 335 -33 408 -46 408 -110 c 0
 408 -181 310 -199 116 -199 c 2
 102 -199 l 1
 102 -163 l 1
EndSplineSet
EndChar
StartChar: one.superior
Encoding: 185 185 150
Width: 511
Flags: MW
LayerCount: 2
Fore
SplineSet
80 638 m 1
 80 686 l 1
 251 690 262 761 298 761 c 0
 322 761 323 744 323 728 c 2
 323 395 l 1
 431 395 l 1
 431 395 l 1
 431 347 l 1
 372 347 l 1
 416 348 l 1
 313 350 l 1
 194 349 l 1
 111 347 l 1
 96 347 l 1
 96 395 l 1
 96 395 l 1
 203 395 l 1
 203 659 l 1
 156 643 129 639 80 638 c 1
EndSplineSet
EndChar
StartChar: uni00B9
Encoding: 185 185 150
Width: 511
Flags: W
HStem: 347 48<96 203 323 431> 347 1<372 416> 638 48<80 199.083>
VStem: 203 120<395 659>
LayerCount: 2
Fore
SplineSet
80 638 m 1x70
 80 686 l 1
 251 690 262 761 298 761 c 0
 322 761 323 744 323 728 c 2
 323 395 l 1
 431 395 l 1
 431 395 l 1
 431 347 l 1
 372 347 l 1xb0
 416 348 l 1
 313 350 l 1x70
 194 349 l 1
 111 347 l 1
 96 347 l 1
 96 395 l 1xb0
 96 395 l 1
 203 395 l 1
 203 659 l 1
 156 643 129 639 80 638 c 1x70
EndSplineSet
EndChar
StartChar: ordmasculine
Encoding: 186 186 134
Width: 511
Flags: MW
LayerCount: 2
Fore
SplineSet
31 560 m 0
 31 653 93 758 255 758 c 0
 398 758 478 670 478 560 c 0
 478 447 394 370 254 370 c 0
 118 370 31 446 31 560 c 0
159 543 m 2
 159 484 162 429 226 413 c 0
 236 411 245 410 254 410 c 2
 261 410 l 1
 289 412 318 423 334 448 c 1
 346 469 350 500 350 577 c 0
 350 595 349 613 348 630 c 0
 347 647 345 665 337 680 c 0
 321 707 292 722 255 722 c 0
 252 722 250 722 247 721 c 0
 219 720 190 709 175 684 c 1
 164 669 159 644 159 583 c 2
 159 543 l 2
EndSplineSet
EndChar
StartChar: guillemotright
Encoding: 187 187 121
Width: 639
Flags: MW
LayerCount: 2
Fore
SplineSet
98 56 m 0
 98 72 168 170 213 223 c 1
 179 261 98 372 98 389 c 0
 98 397 105 402 115 402 c 0
 119 402 123 401 127 399 c 0
 146 386 161 354 256 270 c 1
 286 245 303 234 303 222 c 0
 303 217 300 212 292 205 c 0
 269 185 220 147 145 65 c 0
 138 56 126 42 114 42 c 0
 110 42 105 44 101 48 c 0
 99 50 98 55 98 56 c 0
217 15 m 0
 217 30 314 148 392 223 c 1
 334 276 217 413 217 430 c 0
 217 441 227 444 234 444 c 0
 245 444 258 430 294 398 c 4
 330 365 390 314 494 242 c 0
 500 238 510 232 510 222 c 0
 510 209 499 208 442 166 c 0
 288 53 256 1 234 1 c 0
 227 1 217 4 217 15 c 0
EndSplineSet
EndChar
StartChar: onequarter
Encoding: 188 188 151
Width: 511
Flags: W
HStem: -195 48<144 256 381 479> -112 48<92 256 381 479> 247 61<3.33396 506.318> 371 45<95 202 322 430> 677 47<80 199.081>
VStem: 202 120<416 685> 267 114<-64 95>
LayerCount: 2
Fore
SplineSet
92 -64 m 1
 267 -64 l 1
 267 95 l 1x3280
 92 -64 l 1
2 278 m 0x32
 2 305 31 308 42 308 c 2
 463 308 l 2
 473 308 482 308 491 304 c 0
 501 299 508 288 508 277 c 0
 508 266 502 247 468 247 c 2
 40 247 l 5
 6 248 2 268 2 278 c 0x32
31 -85 m 2
 31 -67 30 -65 57 -41 c 2
 297 178 l 2
 320 199 324 200 349 200 c 2
 350 200 l 2
 367 200 381 199 381 172 c 2
 381 -64 l 1
 479 -64 l 1
 479 -112 l 1
 381 -112 l 1
 381 -147 l 1
 479 -147 l 1
 479 -147 l 1
 479 -195 l 1xb280
 333 -192 l 1x7280
 144 -195 l 1
 144 -147 l 1
 144 -147 l 1
 256 -147 l 1xb280
 256 -112 l 1
 31 -112 l 1
 31 -85 l 2
80 677 m 1
 80 724 l 1
 134 727 195 724 261 750 c 0
 271 755 281 761 295 761 c 0
 317 761 322 751 322 732 c 2
 322 416 l 1
 430 416 l 1
 430 416 l 1
 430 368 l 1x3b
 247 371 l 1x37
 95 368 l 1
 95 416 l 1
 95 416 l 1
 202 416 l 5
 202 685 l 1x3b
 139 675 123 679 80 677 c 1
EndSplineSet
EndChar
StartChar: onehalf
Encoding: 189 189 152
Width: 511
Flags: W
HStem: -195 120.015<60.4795 149.748 192 391.454> 153.615 45.7197<195.219 275.235> 247 61<3.33396 506.318> 371 45<95 202 322 430> 677 47<80 199.081>
VStem: 57 144<75.6614 152.182> 202 120<416 685> 314 139<23.5024 121.909> 402 47<-58.1221 -10.2148>
LayerCount: 2
Fore
SplineSet
57 -195 m 1
 57 -111.1796875 l 1
 58 -93.08203125 64 -90.224609375 85 -81.65234375 c 0
 234 -16.8828125 314 7.8828125 314 72.65234375 c 0
 314 100.944335938 296.446289062 139.415039062 228 150.590820312 c 0
 218.098632812 152.208984375 207.131835938 153.25390625 195 153.615234375 c 1
 199 142.184570312 201 136.469726562 201 125.040039062 c 0
 201 84.08203125 169 56.4599609375 129 56.4599609375 c 0
 87 56.4599609375 57 87.892578125 57 125.040039062 c 0
 57 199.334960938 162 199.334960938 235 199.334960938 c 0
 418 199.334960938 453 123.134765625 453 72.65234375 c 8
 453 -4.5 325 -32.1220703125 286 -43.552734375 c 1
 263 -49.267578125 223 -64.5078125 192 -74.9853515625 c 1
 260 -74.9853515625 l 2
 338 -74.9853515625 374 -74.9853515625 382 -67.365234375 c 0
 388 -62.6025390625 391.124023438 -55.0146484375 393 -48.3154296875 c 0
 395.666992188 -38.7900390625 400.22265625 -19.740234375 402 -10.21484375 c 9
 449 -10.21484375 l 1
 422 -195 l 1
 57 -195 l 1
2 278 m 0xe6
 2 305 31 308 42 308 c 2
 463 308 l 2
 473 308 482 308 491 304 c 0
 501 299 508 288 508 277 c 0
 508 266 502 247 468 247 c 2
 40 247 l 1
 6 248 2 268 2 278 c 0xe6
80 677 m 1
 80 724 l 1
 134 727 195 724 261 750 c 0
 271 755 281 761 295 761 c 0
 317 761 322 751 322 732 c 2
 322 416 l 1
 430 416 l 1
 430 416 l 1
 430 368 l 1xf6
 247 371 l 1xee
 95 368 l 1
 95 416 l 1
 95 416 l 1
 202 416 l 1xf6
 202 685 l 1
 139 675 123 679 80 677 c 1
EndSplineSet
EndChar
StartChar: threequarters
Encoding: 190 190 153
Width: 511
Flags: MW
LayerCount: 2
Fore
SplineSet
2 278 m 0
 2 305 31 308 42 308 c 2
 463 308 l 2
 473 308 482 308 491 304 c 0
 501 299 508 288 508 277 c 0
 508 266 502 247 468 247 c 2
 40 247 l 1
 6 248 2 268 2 278 c 0
31 -85 m 2
 31 -67 30 -65 57 -41 c 2
 297 178 l 2
 320 199 324 200 349 200 c 2
 350 200 l 2
 367 200 381 199 381 172 c 2
 381 -64 l 1
 479 -64 l 1
 479 -112 l 1
 381 -112 l 1
 381 -147 l 1
 381 -147 l 1
 479 -147 l 1
 479 -147 l 1
 479 -195 l 1
 333 -192 l 1
 144 -195 l 1
 144 -147 l 1
 144 -147 l 1
 256 -147 l 1
 256 -147 l 1
 256 -112 l 1
 31 -112 l 1
 31 -85 l 2
47 473 m 0
 47 519 82 549 124 549 c 0
 166 549 200 519 200 473 c 0
 200 435 178 417 168 409 c 1
 195 402 224 401 238 401 c 0
 298 401 309 431 309 474 c 0
 309 537 280 549 246 551 c 0
 238 551 230 551 222 551 c 0
 202 551 199 553 194 560 c 1
 190 568 192 577 198 583 c 0
 213 596 245 578 272 609 c 0
 287 626 292 649 292 671 c 0
 292 699 283 721 241 721 c 0
 216 721 198 717 174 706 c 1
 177 705 181 703 184 701 c 0
 201 691 219 673 219 641 c 0
 219 600 187 572 149 572 c 0
 112 572 80 598 80 642 c 0
 80 658 84 675 94 692 c 0
 103 708 117 722 136 734 c 0
 162 750 198 761 246 761 c 0
 377 761 430 714 430 667 c 0
 430 613 386 587 341 570 c 1
 395 560 462 532 462 475 c 0
 462 428 413 357 244 357 c 0
 145 357 93 384 68 415 c 0
 52 434 47 455 47 473 c 0
92 -64 m 1
 267 -64 l 1
 267 95 l 1
 92 -64 l 1
EndSplineSet
EndChar
StartChar: questiondown
Encoding: 191 191 124
Width: 543
Flags: MW
LayerCount: 2
Fore
SplineSet
63 -71 m 0
 63 2 116 25 144 49 c 0
 226 120 231 191 231 226 c 2
 231 243 l 1
 231 243 228 274 256 274 c 0
 276 274 279 263 279 247 c 0
 279 244 278 241 278 238 c 2
 278 225 l 2
 278 77 212 14 199 -17 c 0
 192 -36 191 -59 191 -73 c 2
 191 -78 l 2
 191 -136 194 -164 258 -164 c 0
 341 -164 379 -142 396 -131 c 1
 391.955306227 -129.49768517 388.27119024 -127.821758813 384.918329174 -126.000000486 c 4
 359.257834995 -112.057514344 353 -89.573183736 353 -71 c 0
 353 -34 381 -9 416 -9 c 0
 451 -9 478 -34 478 -73 c 0
 478 -124 438 -200 251 -200 c 0
 89 -200 63 -123 63 -71 c 0
177 422 m 0
 177 461 209 500 254 500 c 0
 299 500 332 463 332 422 c 0
 332 383 301 344 255 344 c 0
 210 344 177 381 177 422 c 0
EndSplineSet
EndChar
StartChar: Agrave
Encoding: 192 192 154
Width: 868
Flags: MW
LayerCount: 2
Fore
SplineSet
41 0 m 1
 41 47 l 1
 62 47 l 2
 138 47 141 55 147 70 c 2
 395 672 l 2
 402 690 406 698 434 698 c 0
 451 698 463 698 474 672 c 2
 730 47 l 1
 827 47 l 5
 827 47 l 1
 827 0 l 1
 792 3 704 3 664 3 c 0
 621 3 526 3 488 0 c 1
 488 47 l 1
 583 47 l 1
 583 47 l 1
 523 193 l 1
 255 193 l 1
 205 72 l 2
 204 71 201 61 201 60 c 0
 201 47 288 47 290 47 c 1
 290 0 l 1
 253 3 197 3 158 3 c 0
 127 3 79 1 41 0 c 1
275 240 m 1
 503 240 l 1
 389 518 l 1
 275 240 l 1
279 812 m 0
 279 841 300 875 335 875 c 0
 361 875 369 863 505 778 c 1
 489 733 l 1
 293 761 300 763 287 783 c 0
 281 792 279 802 279 812 c 0
EndSplineSet
EndChar
StartChar: Acircumflex
Encoding: 194 194 156
Width: 868
Flags: MW
LayerCount: 2
Fore
SplineSet
41 0 m 1
 41 47 l 1
 62 47 l 2
 138 47 141 55 147 70 c 2
 395 672 l 2
 402 690 406 698 434 698 c 0
 451 698 463 698 474 672 c 2
 730 47 l 1
 827 47 l 5
 827 47 l 1
 827 0 l 1
 792 3 704 3 664 3 c 0
 621 3 526 3 488 0 c 1
 488 47 l 1
 583 47 l 1
 583 47 l 1
 523 193 l 1
 255 193 l 1
 205 72 l 2
 204 71 201 61 201 60 c 0
 201 47 288 47 290 47 c 1
 290 0 l 1
 253 3 197 3 158 3 c 0
 127 3 79 1 41 0 c 1
275 240 m 1
 503 240 l 1
 389 518 l 1
 275 240 l 1
276 774 m 1
 276 775 l 1
 433 900 l 1
 434 900 l 1
 591 775 l 1
 591 774 l 1
 564 736 l 1
 564 736 l 1
 434 817 l 1
 433 817 l 1
 304 736 l 1
 304 736 l 1
 276 774 l 1
EndSplineSet
EndChar
StartChar: Atilde
Encoding: 195 195 157
Width: 868
Flags: W
HStem: 0 47<41 146.444 201.063 290 488 583 730 827> 193 47<275 503> 678 20G<420 442.5> 786 73<429.062 594.081> 820 74<274.455 441.349>
LayerCount: 2
Fore
SplineSet
41 0 m 1
 41 47 l 1
 62 47 l 2
 138 47 141 55 147 70 c 2
 395 672 l 2
 402 690 406 698 434 698 c 0
 451 698 463 698 474 672 c 2
 730 47 l 1
 827 47 l 5
 827 47 l 1
 827 0 l 1
 792 3 704 3 664 3 c 0
 621 3 526 3 488 0 c 1
 488 47 l 1
 583 47 l 1
 583 47 l 1
 523 193 l 1
 255 193 l 1
 205 72 l 2
 204 71 201 61 201 60 c 0
 201 47 288 47 290 47 c 1
 290 0 l 1
 253 3 197 3 158 3 c 0
 127 3 79 1 41 0 c 1
275 240 m 1
 503 240 l 1
 389 518 l 1
 275 240 l 1
210 811 m 5xa0
 260 862 282 894 345 894 c 4x60
 412 894 477 859 544 859 c 4xa0
 597 859 621 885 632 894 c 5x60
 657 868 l 5
 607 817 585 786 522 786 c 4xa0
 454 786 392 820 324 820 c 4x60
 286 820 263 809 235 786 c 5
 210 811 l 5xa0
EndSplineSet
EndChar
StartChar: Adieresis
Encoding: 196 196 158
Width: 869
Flags: MW
LayerCount: 2
Fore
SplineSet
41 0 m 1
 41 47 l 1
 62 47 l 2
 138 47 141 55 147 70 c 2
 395 672 l 2
 402 690 406 698 434 698 c 0
 451 698 463 698 474 672 c 2
 730 47 l 1
 827 47 l 5
 827 47 l 1
 827 0 l 1
 792 3 704 3 664 3 c 0
 621 3 526 3 488 0 c 1
 488 47 l 1
 583 47 l 1
 583 47 l 1
 523 193 l 1
 255 193 l 1
 205 72 l 2
 204 71 201 61 201 60 c 0
 201 47 288 47 290 47 c 1
 290 0 l 1
 253 3 197 3 158 3 c 0
 127 3 79 1 41 0 c 1
275 240 m 1
 503 240 l 1
 389 518 l 1
 275 240 l 1
244 816 m 0
 244 860 280 894 321 894 c 0
 362 894 399 862 399 816 c 0
 399 777 368 738 322 738 c 0
 281 738 244 771 244 816 c 0
467 816 m 0
 467 855 499 894 545 894 c 0
 585 894 623 861 623 816 c 0
 623 774 588 738 545 738 c 0
 504 738 467 771 467 816 c 0
EndSplineSet
EndChar
StartChar: Aring
Encoding: 197 197 159
Width: 868
Flags: W
HStem: 0 48<40 146.359 203.013 289 487 582 730 827> 192 48<274 503> 866 36<378.768 487.755>
VStem: 314 47<712.435 851.643> 505 48<712.728 851.767>
LayerCount: 2
Fore
SplineSet
40 0 m 1xbe
 40 48 l 1
 139 48 139.637912936 52.7370604637 150 78 c 2
 392 668 l 1
 392 668 l 1
 328 691 314 741 314 782 c 0
 314 854 362 902 433 902 c 0
 505 902 553 854 553 782 c 0
 553 742 539 691 475 668 c 1
 475 668 l 1
 730 48 l 1
 827 48 l 5
 827 48 l 1
 827 0 l 1xbe
 764 2 716 3 669 3 c 0x7e
 608 3 548 2 487 0 c 1
 487 48 l 1
 487 48 l 1
 582 48 l 1
 582 48 l 1
 522 192 l 1
 254 192 l 1
 218 103 203 73 203 62 c 0
 203 53 220 48 289 48 c 1
 289 0 l 1xbe
 245 2 201 3 156 3 c 0x7e
 122 3 87 2 40 0 c 1xbe
274 240 m 1
 503 240 l 1
 389 518 l 1
 274 240 l 1
361 782 m 0
 361 740 367 698 432 698 c 0
 501 698 505 741 505 782 c 0
 505 825 500 866 434 866 c 0
 366 866 361 824 361 782 c 0
EndSplineSet
EndChar
StartChar: AE
Encoding: 198 198 129
Width: 1041
Flags: MW
LayerCount: 2
Fore
SplineSet
40 0 m 1
 40 48 l 1
 139 48 139 52 150 77 c 2
 386 638 l 1
 309 638 l 1
 309 686 l 1
 946 686 l 1
 976 444 l 1
 929 444 l 1
 913 569 893 636 738 638 c 1
 614 638 l 1
 614 638 l 1
 614 638 l 1
 614 354 l 1
 669 354 l 2
 697 354 727 354 751 371 c 0
 771 385 779 406 782 436 c 0
 783 446 783 458 783 470 c 1
 831 470 l 1
 831 189 l 1
 783 189 l 1
 783 200 783 211 782 220 c 0
 780 251 772 274 751 289 c 0
 727 306 697 306 669 306 c 2
 614 306 l 1
 614 48 l 1
 614 48 l 1
 718 48 l 2
 782 48 866 49 911 115 c 0
 941 158 950 216 960 275 c 1
 1008 275 l 1
 962 0 l 1
 400 0 l 1
 400 48 l 1
 400 48 l 1
 481 48 l 1
 481 48 l 1
 481 306 l 1
 304 306 l 1
 237 138 205 83 205 64 c 0
 205 54 212 53 227 51 c 0
 248 49 269 48 290 48 c 1
 290 0 l 1
 245 2 201 3 157 3 c 0
 134 3 98 3 40 0 c 1
325 354 m 1
 481 354 l 1
 481 638 l 1
 481 638 l 1
 444 638 l 1
 325 354 l 1
EndSplineSet
EndChar
StartChar: Edieresis
Encoding: 203 203 164
Width: 755
Flags: MW
LayerCount: 2
Fore
SplineSet
39 0 m 1
 39 47 l 1
 39 47 l 1
 147 47 l 1
 147 633 l 1
 39 633 l 5
 39 633 l 1
 39 680 l 1
 660 680 l 1
 691 439 l 1
 644 439 l 1
 628 560 602 633 441 633 c 2
 289 633 l 1
 289 633 l 1
 289 376 l 1
 344 376 l 2
 441 376 450 419 450 493 c 1
 497 493 l 1
 497 212 l 1
 450 212 l 1
 450 286 440 329 344 329 c 2
 289 329 l 1
 289 47 l 1
 289 47 l 1
 441 47 l 2
 626 47 654 136 676 274 c 1
 723 274 l 1
 677 0 l 1
 39 0 l 1
198 816 m 0
 198 863 238 894 276 894 c 0
 317 894 354 861 354 816 c 0
 354 777 322 738 276 738 c 0
 235 738 198 771 198 816 c 0
421 816 m 0
 421 857 453 894 499 894 c 0
 540 894 577 862 577 816 c 0
 577 769 537 738 499 738 c 0
 459 738 421 771 421 816 c 0
EndSplineSet
EndChar
StartChar: Igrave
Encoding: 204 204 165
Width: 435
Flags: MW
LayerCount: 2
Fore
SplineSet
33 0 m 1
 33 47 l 1
 33 47 l 1
 147 47 l 1
 147 639 l 1
 33 639 l 1
 33 639 l 1
 33 686 l 1
 74 683 172 683 218 683 c 0
 264 683 362 683 403 686 c 1
 403 639 l 1
 403 639 l 1
 289 639 l 1
 289 47 l 1
 403 47 l 1
 403 47 l 1
 403 0 l 1
 362 3 264 3 218 3 c 0
 172 3 74 3 33 0 c 1
79 812 m 0
 79 843 102 875 135 875 c 0
 158 875 167 866 264 804 c 4
 276 796 290 787 305 778 c 1
 289 733 l 1
 220 743 172 749 140 756 c 0
 93 767 79 780 79 812 c 0
EndSplineSet
EndChar
StartChar: Iacute
Encoding: 205 205 166
Width: 436
Flags: W
HStem: 0 47<33 147 289 403> 639 44<33 147 289 403> 753 122<226.933 318.491>
VStem: 147 142<47 639>
LayerCount: 2
Fore
SplineSet
33 0 m 1
 33 47 l 1
 33 47 l 1
 147 47 l 1
 147 639 l 1
 33 639 l 1
 33 639 l 1
 33 686 l 1
 74 683 172 683 218 683 c 0
 264 683 362 683 403 686 c 1
 403 639 l 1
 403 639 l 5
 289 639 l 1
 289 47 l 1
 403 47 l 1
 403 47 l 1
 403 0 l 1
 362 3 264 3 218 3 c 0
 172 3 74 3 33 0 c 1
108 778 m 1x38
 245 866 256 875 278 875 c 0
 310 875 334 843 334 812 c 0
 334 760 282 758 250 753 c 0
 208 746 166 739 124 733 c 1
 108 778 l 1x38
EndSplineSet
EndChar
StartChar: Icircumflex
Encoding: 206 206 167
Width: 435
Flags: W
HStem: 0 47<33 147 289 403> 639 44<33 147 289 403>
VStem: 147 142<47 639>
LayerCount: 2
Fore
SplineSet
33 0 m 1
 33 47 l 1
 33 47 l 1
 147 47 l 1
 147 639 l 1
 33 639 l 1
 33 639 l 1
 33 686 l 1
 74 683 172 683 218 683 c 0
 264 683 362 683 403 686 c 1
 403 639 l 1
 403 639 l 1
 289 639 l 1
 289 47 l 1
 403 47 l 1
 403 47 l 1
 403 0 l 1
 362 3 264 3 218 3 c 0
 172 3 74 3 33 0 c 1
61 775 m 1x38
 218 900 l 1
 218 900 l 1
 375 775 l 1
 347 736 l 1
 218 817 l 1
 218 817 l 1
 88 736 l 1
 61 775 l 1x38
EndSplineSet
EndChar
StartChar: Idieresis
Encoding: 207 207 168
Width: 436
Flags: MW
LayerCount: 2
Fore
SplineSet
33 0 m 1
 33 47 l 5
 33 47 l 1
 147 47 l 1
 147 639 l 1
 33 639 l 1
 33 639 l 1
 33 686 l 1
 74 683 172 683 218 683 c 0
 264 683 362 683 403 686 c 1
 403 639 l 1
 403 639 l 1
 289 639 l 1
 289 47 l 1
 403 47 l 1
 403 47 l 1
 403 0 l 1
 362 3 264 3 218 3 c 0
 172 3 74 3 33 0 c 1
28 816 m 0
 28 855 60 894 106 894 c 0
 147 894 184 861 184 816 c 0
 184 777 152 738 106 738 c 0
 65 738 28 771 28 816 c 0
251 816 m 0
 251 855 283 893 329 893 c 0
 370 893 407 860 407 815 c 0
 407 777 375 738 329 738 c 0
 284 738 251 775 251 816 c 0
EndSplineSet
EndChar
StartChar: Ntilde
Encoding: 209 209 170
Width: 899
Flags: MW
LayerCount: 2
Fore
SplineSet
39 0 m 1
 39 47 l 1
 64 47 l 2
 92 47 94 47 118 50 c 0
 146 53 147 54 147 76 c 2
 147 639 l 1
 147 639 l 5
 39 639 l 1
 39 639 l 1
 39 686 l 1
 268 686 l 2
 289 686 290 685 301 673 c 2
 699 205 l 1
 699 610 l 2
 699 632 698 633 669 636 c 0
 651 638 634 639 616 639 c 2
 591 639 l 1
 591 686 l 1
 632 683 684 683 726 683 c 0
 765 683 822 683 860 686 c 1
 860 639 l 1
 835 639 l 2
 807 639 805 639 781 636 c 0
 753 633 752 632 752 610 c 2
 752 32 l 2
 752 9 752 0 725 0 c 0
 709 0 708 1 698 13 c 2
 200 599 l 1
 200 599 l 1
 200 76 l 2
 200 54 201 53 230 50 c 0
 248 48 265 47 283 47 c 2
 308 47 l 1
 308 0 l 1
 267 3 215 3 173 3 c 0
 134 3 77 3 39 0 c 1
226 811 m 5
 276 862 298 894 361 894 c 4
 428 894 493 859 560 859 c 4
 613 859 637 885 648 894 c 5
 673 868 l 5
 623 817 601 786 538 786 c 4
 470 786 408 820 340 820 c 4
 302 820 279 809 251 786 c 5
 226 811 l 5
EndSplineSet
EndChar
StartChar: Ograve
Encoding: 210 210 171
Width: 862
Flags: W
HStem: -11 42<346.799 515.861> 657 40<346.969 520.847> 733 45<501.413 520.644> 763.536 111.464<322.711 416.113>
VStem: 64 153<211.017 469.319> 646 153<210.151 471.396>
LayerCount: 2
Fore
SplineSet
64 339 m 0
 64 549 203 697 432 697 c 0
 654 697 799 555 799 339 c 0
 799 134 661 -11 431 -11 c 0
 204 -11 64 132 64 339 c 0
217 354 m 0
 217 268 225 197 258 135 c 0
 299 59 372 31 431 31 c 0
 485 31 555 53 600 126 c 0
 642 195 646 284 646 354 c 0
 646 422 642 499 604 563 c 0
 564 629 495 657 431 657 c 0
 372 657 305 632 264 571 c 1
 220 503 217 418 217 354 c 0
308 812 m 0
 308 843 331 875 364 875 c 0
 367.789133551 875 371.302602467 874.678391259 375 873.84367659 c 4
 395.697345242 869.171098772 422.158190492 848.42007661 535 778 c 1
 518 733 l 1
 427.244627123 745.888336977 373.402416473 752.143840115 342.999999949 763.536348218 c 0
 316.788595939 773.358384316 308 786.998758197 308 812 c 0
EndSplineSet
EndChar
StartChar: Oacute
Encoding: 211 211 172
Width: 863
Flags: MW
LayerCount: 2
Fore
SplineSet
64 339 m 0
 64 549 203 697 432 697 c 0
 654 697 799 555 799 339 c 0
 799 134 661 -11 431 -11 c 0
 204 -11 64 132 64 339 c 0
217 354 m 0
 217 268 225 197 258 135 c 0
 299 59 372 31 431 31 c 0
 485 31 555 53 600 126 c 0
 642 195 646 284 646 354 c 0
 646 422 642 499 604 563 c 0
 564 629 495 657 431 657 c 0
 372 657 305 632 264 571 c 1
 220 503 217 418 217 354 c 0
327 778 m 1
 483 877 478 875 497 875 c 2
 498 875 l 2
 530 875 554 843 554 812 c 0
 554 760 503 757 470 752 c 0
 443.087696746 748.155385249 416.175393491 743.900185427 389 739.760581007 c 4
 373.76480842 737.43981732 358.446927621 735.155385249 343 733 c 1
 327 778 l 1
EndSplineSet
EndChar
StartChar: Ocircumflex
Encoding: 212 212 173
Width: 862
Flags: W
HStem: -11 42<346.799 515.861> 657 40<346.969 520.847>
VStem: 64 153<211.017 469.319> 646 153<210.151 471.396>
LayerCount: 2
Fore
SplineSet
64 339 m 0
 64 549 203 697 432 697 c 0
 654 697 799 555 799 339 c 0
 799 134 661 -11 431 -11 c 0
 204 -11 64 132 64 339 c 0
217 354 m 0
 217 268 225 197 258 135 c 0
 299 59 372 31 431 31 c 0
 485 31 555 53 600 126 c 0
 642 195 646 284 646 354 c 0
 646 422 642 499 604 563 c 0
 564 629 495 657 431 657 c 0
 372 657 305 632 264 571 c 1
 220 503 217 418 217 354 c 0
274 775 m 1
 274 775 l 1
 431 900 l 1
 432 900 l 1
 588 775 l 5
 588 775 l 1
 561 736 l 1
 561 736 l 1
 432 817 l 1
 431 817 l 1
 301 736 l 1
 301 736 l 1
 274 775 l 1
EndSplineSet
EndChar
StartChar: Otilde
Encoding: 213 213 174
Width: 862
Flags: MW
LayerCount: 2
Fore
SplineSet
64 339 m 0
 64 549 203 697 432 697 c 0
 654 697 799 555 799 339 c 0
 799 134 661 -11 431 -11 c 0
 204 -11 64 132 64 339 c 0
217 354 m 0
 217 268 225 197 258 135 c 0
 299 59 372 31 431 31 c 0
 485 31 555 53 600 126 c 0
 642 195 646 284 646 354 c 0
 646 422 642 499 604 563 c 0
 564 629 495 657 431 657 c 0
 372 657 305 632 264 571 c 1
 220 503 217 418 217 354 c 0
208 812 m 1
 258 863 279 894 343 894 c 0
 409 894 474 860 541 860 c 0
 594 860 618 885 629 894 c 1
 654 868 l 1
 604 817 583 786 519 786 c 0
 453 786 388 820 321 820 c 0
 284 820 261 810 233 786 c 1
 208 812 l 1
EndSplineSet
EndChar
StartChar: Odieresis
Encoding: 214 214 175
Width: 863
Flags: W
HStem: -11 42<346.799 515.861> 657 40<346.969 520.847> 738 156<266.85 372.012 489.988 595.012>
VStem: 64 153<211.017 469.319> 242 155<763.36 869.208> 465 155<762.792 869.208> 646 153<210.151 471.396>
LayerCount: 2
Fore
SplineSet
64 339 m 0
 64 549 203 697 432 697 c 0
 654 697 799 555 799 339 c 0
 799 134 661 -11 431 -11 c 0
 204 -11 64 132 64 339 c 0
217 354 m 0
 217 268 225 197 258 135 c 0
 299 59 372 31 431 31 c 0
 485 31 555 53 600 126 c 0
 642 195 646 284 646 354 c 0
 646 422 642 499 604 563 c 0
 564 629 495 657 431 657 c 0
 372 657 305 632 264 571 c 1
 220 503 217 418 217 354 c 0
242 816 m 0
 242 859 277 894 319 894 c 0
 360 894 397 861 397 816 c 0
 397 769 357 738 319 738 c 0
 279 738 242 771 242 816 c 0
465 816 m 0
 465 855 497 894 542 894 c 0
 583 894 620 861 620 816 c 0
 620 772 584 738 543 738 c 0
 502 738 465 771 465 816 c 0
EndSplineSet
EndChar
StartChar: multiply
Encoding: 215 215 176
Width: 894
Flags: W
LayerCount: 2
Fore
SplineSet
168 499 m 4
 168 511.704624025 176.608398486 524.40924805 189.572055106 527.99999989 c 0
 191.914231143 528.648749942 194.398573895 529 197 529 c 0
 209 529 218 521 227 512 c 2
 446 293 l 1
 447 293 l 1
 666 512 l 2
 682 528 690 529 696 529 c 0
 714 529 725 514 725 499 c 0
 725 487 715 476 707 468 c 2
 556 317 l 0
 489 250 l 1
 709 30 l 2
 725 14 725 6 725 0 c 0
 725 -17 710 -29 696 -29 c 0
 684 -29 676 -22 666 -13 c 2
 447 207 l 1
 446 207 l 1
 227 -12 l 2
 218 -22 209 -29 197 -29 c 0
 181 -29 168 -16 168 0 c 0
 168 13 176 22 186 32 c 2
 404 250 l 1
 185 469 l 2
 177 476 168 487 168 499 c 4
EndSplineSet
EndChar
StartChar: Oslash
Encoding: 216 216 132
Width: 894
Flags: W
HStem: -11 36<348.418 542.316> 660 37<350.185 544.928>
VStem: 63 142<211.533 469.262> 687 142<212.37 467.066>
LayerCount: 2
Fore
SplineSet
63 340 m 0
 63 554 214 697 445 697 c 0
 539 697 594 676 642 656 c 1
 705 746 l 1
 706 746 l 1
 738 723 l 1
 678 635 l 1
 678 635 l 1
 774 575 829 465 829 339 c 0
 829 130 681 -11 447 -11 c 0
 348 -11 293 12 250 29 c 1
 188 -60 l 1
 154 -37 l 1
 214 49 l 1
 71 139 63 292 63 340 c 0
205 338 m 0
 205 199 225 155 257 109 c 1
 606 605 l 1
 606 606 l 1
 594 616 542 660 446 660 c 0
 359 660 285 623 246 558 c 0
 206 492 205 402 205 338 c 0
285 79 m 1
 298 69 350 25 446 25 c 0
 533 25 607 61 647 125 c 1
 685 189 687 275 687 326 c 2
 687 340 l 2
 687 488 665 533 635 575 c 1
 285 79 l 5
 285 79 l 1
EndSplineSet
EndChar
StartChar: Ugrave
Encoding: 217 217 177
Width: 883
Flags: W
HStem: -11 47<364.3 578.911> 639 47<39 147 289 397 576 683.9 737.098 845> 733 45<513.904 531.644> 760.512 114.488<333.711 426.958>
VStem: 147 142<137.078 639> 684 53<135.47 635.057>
LayerCount: 2
Fore
SplineSet
39 639 m 1
 39 686 l 1
 77 683 175 683 218 683 c 0
 261 683 359 683 397 686 c 1
 397 639 l 1
 397 639 l 1
 289 639 l 1
 289 223 l 2
 289 167 291 36 466 36 c 0
 575 36 684 85 684 233 c 2
 684 610 l 2
 684 632 683 633 654 636 c 0
 636 638 619 639 601 639 c 2
 576 639 l 1
 576 686 l 1
 617 683 669 683 711 683 c 0
 750 683 807 683 845 686 c 1
 845 639 l 1
 820 639 l 2
 792 639 790 639 766 636 c 0
 738 633 737 632 737 610 c 2
 737 229 l 2
 737 216 736 202 734 189 c 0
 717 82 631 -11 462 -11 c 0
 255 -11 147 98 147 231 c 2
 147 639 l 1
 39 639 l 1
 39 639 l 1
319 812 m 0
 319 843 342 875 375 875 c 0
 381.07707321 875 386.445074698 874.172749659 393 871.728250838 c 4
 413.410873347 864.11651561 445.330029475 840.824116944 546 778 c 1
 529 733 l 1
 446.59695142 744.702208082 394.625385951 750.936259043 363 760.512303149 c 0
 329.765040153 770.575719983 319 784.329968185 319 812 c 0
EndSplineSet
EndChar
StartChar: Uacute
Encoding: 218 218 178
Width: 884
Flags: MW
LayerCount: 2
Fore
SplineSet
39 639 m 1
 39 686 l 1
 77 683 175 683 218 683 c 0
 261 683 359 683 397 686 c 1
 397 639 l 1
 397 639 l 1
 289 639 l 1
 289 639 l 1
 289 223 l 2
 289 167 291 36 466 36 c 0
 575 36 684 85 684 233 c 2
 684 610 l 2
 684 632 683 633 654 636 c 0
 636 638 619 639 601 639 c 2
 576 639 l 1
 576 686 l 1
 617 683 669 683 711 683 c 0
 750 683 807 683 845 686 c 1
 845 639 l 1
 820 639 l 2
 792 639 790 639 766 636 c 0
 738 633 737 632 737 610 c 2
 737 229 l 2
 737 216 736 202 734 189 c 0
 717 82 631 -11 462 -11 c 0
 255 -11 147 98 147 231 c 2
 147 639 l 1
 147 639 l 1
 39 639 l 1
 39 639 l 1
386 778 m 1
 542 877 537 875 556 875 c 2
 557 875 l 2
 589 875 613 843 613 812 c 0
 613 760 562 757 529 752 c 0
 502 748 476 744 449 740 c 4
 433 738 418 735 402 733 c 1
 386 778 l 1
EndSplineSet
EndChar
StartChar: Yacute
Encoding: 221 221 181
Width: 869
Flags: MW
LayerCount: 2
Fore
SplineSet
19 639 m 1
 19 686 l 1
 54 683 144 683 184 683 c 0
 229 683 326 683 367 686 c 1
 367 639 l 1
 282 639 l 1
 282 639 l 1
 485 342 l 1
 672 617 l 2
 677 623 677 625 679 629 c 1
 653 639 626 639 603 639 c 1
 603 686 l 1
 640 683 696 683 735 683 c 0
 763 683 809 685 849 686 c 1
 849 639 l 1
 828 639 l 2
 811 639 793 638 776 636 c 0
 754 633 746 633 737 619 c 2
 502 274 l 1
 502 47 l 1
 611 47 l 1
 611 47 l 1
 611 0 l 1
 573 3 477 3 434 3 c 0
 392 3 294 3 258 0 c 1
 258 47 l 1
 258 47 l 1
 366 47 l 1
 366 274 l 1
 117 639 l 1
 117 639 l 1
 19 639 l 1
 19 639 l 1
378 778 m 1
 518 867 527 875 549 875 c 0
 583 875 605 842 605 812 c 0
 605 760 553 758 520 753 c 0
 478 746 436 739 394 733 c 1
 378 778 l 1
EndSplineSet
EndChar
StartChar: Thorn
Encoding: 222 222 182
Width: 722
Flags: MW
LayerCount: 2
Fore
SplineSet
39 0 m 1
 39 48 l 1
 39 48 l 1
 147 48 l 1
 147 638 l 1
 39 638 l 1
 39 638 l 1
 39 686 l 1
 99 684 159 683 219 683 c 0
 276 683 331 684 387 686 c 1
 387 638 l 1
 387 638 l 1
 279 638 l 1
 279 565 l 1
 409 565 l 2
 618 565 658 442 658 371 c 0
 658 263 576 192 458 180 c 0
 439 178 420 178 401 178 c 2
 279 178 l 1
 279 48 l 1
 387 48 l 1
 387 48 l 1
 387 0 l 1
 331.672416132 1.8442527956 277.195149358 2.83818849768 222 2.98180710624 c 4
 217.338767966 2.99393570208 212.672416132 3 208 3 c 0
 174 3 124 3 39 0 c 1
279 226 m 1
 375 226 l 2
 387.503827264 226 398.921920526 227.045521631 409.338081209 228.999999613 c 0
 488.890002298 243.927042591 510 311.872780129 510 372 c 0
 510 436 487 517 394 517 c 2
 279 517 l 1
 279 226 l 1
EndSplineSet
EndChar
StartChar: germandbls
Encoding: 223 223 140
Width: 597
Flags: W
HStem: -5 36<360.789 463.205> 0 48<35 105> 397 48<35 105> 663 37<239.324 382.16>
VStem: 35 178<3 48 397 445> 105 108<48 397 445 635.691> 277 71<307.101 403.467> 277 49<65.9826 154.843> 420 48<453.97 630.69> 487 71<55.6552 157>
LayerCount: 2
Fore
SplineSet
35 0 m 1x5f80
 35 48 l 1
 35 48 l 1
 105 48 l 1x5f80
 105 397 l 1
 35 397 l 1
 35 445 l 1
 105 445 l 1
 105 532 l 2
 105 539 104 546 104 553 c 4
 104 670 194 700 300 700 c 2
 307 700 l 2
 386 700 468 671 468 556 c 0
 468 403 403 425 380 417 c 0
 362 410 348 391 348 360 c 0
 348 296 402 292 410 291 c 0
 426 288 488 284 530 227 c 0
 545 206 558 177 558 140 c 0
 558 74 528 -5 407 -5 c 0
 379 -5 360 0 336 16 c 1
 319 5 306 -5 294 -5 c 0
 280 -5 277 6 277 18 c 2
 277 133 l 2
 277 144.381197846 279.023932257 151.71453118 287.39081679 155 c 0
 290.78632795 156.333333333 295.226497308 157 301 157 c 0
 319 157 323 150 326 134 c 0
 336 85 348 31 407 31 c 0x9f80
 471 31 487 70 487 105 c 0
 487 139 466 163 442 174 c 0
 414 187 375 182 337 206 c 1
 295 234 277 280 277 324 c 0
 277 369 295 411 326 432 c 0
 356.315109715 451.517947351 377.490172239 449.996540789 391.960124799 452 c 0
 412.334398331 454.820950919 419.415275476 464.63021943 420 550 c 0
 420 615 404 663 303 663 c 0
 215 663 213 607 213 558 c 2
 213 0 l 1x5f80
 174 3 l 1x3f80
 106 1.53237410072 l 0
 35 0 l 1x5f80
EndSplineSet
EndChar
StartChar: agrave
Encoding: 224 224 183
Width: 559
Flags: MW
LayerCount: 2
Fore
SplineSet
32 108 m 0
 32 186 105 224 184 244 c 0
 252 261 324 264 357 265 c 1
 357 299 l 2
 357 375 322 417 247 417 c 0
 235 417 203 416 175 410 c 1
 178 408 197 391 197 361 c 0
 197 319 165 298 134 298 c 0
 107 298 72 317 72 361 c 0
 72 401 97 423 130 436 c 4
 169 451 220 453 251 453 c 0
 326 453 382 437 418 409 c 0
 454 382 471 343 471 299 c 2
 471 84 l 2
 471 61 471 48 532 47 c 0
 545 47 558 47 558 24 c 0
 558 0 546 0 526 0 c 2
 478 0 l 2
 374 0 374 46 374 77 c 1
 352 35 305 -6 225 -6 c 0
 156 -6 32 12 32 108 c 0
149 109 m 0
 149 65 189 30 240 30 c 0
 265 30 357 43 357 139 c 2
 357 234 l 1
 307 231 149 217 149 109 c 0
176 599 m 0
 176 630 202 662 235 662 c 0
 253 662 266 653 281 639 c 0
 304 619 384 545 395 534 c 1
 370 494 l 1
 292 521 244 535 216 548 c 4
 183 563 176 574 176 599 c 0
EndSplineSet
EndChar
StartChar: aacute
Encoding: 225 225 184
Width: 559
Flags: W
HStem: -6 36<183.632 306.057> 0 47<473.201 557.962> 234 31<260.424 357> 417 36<176.544 315.24>
VStem: 32 117<57.901 167.359> 72 125<313 409.895> 357 114<73.614 234 265 374.255>
LayerCount: 2
Fore
SplineSet
32 108 m 0xba
 32 186 105 224 184 244 c 0
 252 261 324 264 357 265 c 1
 357 299 l 2
 357 375 322 417 247 417 c 0
 235 417 203 416 175 410 c 1
 178 408 197 391 197 361 c 0
 197 319 165 298 134 298 c 0
 107 298 72 317 72 361 c 0
 72 449 194 453 251 453 c 0
 326 453 382 437 418 409 c 0
 454 382 471 343 471 299 c 2
 471 84 l 2
 471 61 471 48 532 47 c 0
 545 47 558 47 558 24 c 0
 558 0 546 0 526 0 c 2
 478 0 l 2x76
 374 0 374 46 374 77 c 1
 352 35 305 -6 225 -6 c 0
 156 -6 32 12 32 108 c 0xba
149 109 m 0xba
 149 65 189 30 240 30 c 0
 265 30 357 43 357 139 c 2
 357 234 l 1
 307 231 149 217 149 109 c 0xba
178 535 m 1x32
 306 653 311 662 338 662 c 0
 370 662 397 630 397 599 c 0
 397 554.211793134 358.437127942 546.558203805 262 514.484196064 c 4
 244.318520867 508.60351597 224.691529034 501.901914148 203 494 c 1
 178 535 l 1x32
EndSplineSet
EndChar
StartChar: adieresis
Encoding: 228 228 187
Width: 559
Flags: W
HStem: -6 36<183.632 306.057> 0 47<473.201 557.962> 234 31<260.424 357> 417 36<176.544 315.24> 530 156<121.988 227.15 345.85 451.012>
VStem: 32 117<57.901 167.359> 72 125<313 409.895> 97 155<554.792 661.208> 321 155<555.36 661.208> 357 114<73.614 234 265 374.255>
LayerCount: 2
Fore
SplineSet
32 108 m 0xba
 32 186 105 224 184 244 c 0
 252 261 324 264 357 265 c 1
 357 299 l 2
 357 375 322 417 247 417 c 0
 235 417 203 416 175 410 c 1
 178 408 197 391 197 361 c 0
 197 319 165 298 134 298 c 0
 107 298 72 317 72 361 c 0
 72 449 194 453 251 453 c 0
 326 453 382 437 418 409 c 0
 454 382 471 343 471 299 c 2
 471 84 l 2
 471 61 471 48 532 47 c 0
 545 47 558 47 558 24 c 0
 558 0 546 0 526 0 c 2
 478 0 l 2x76
 374 0 374 46 374 77 c 1
 352 35 305 -6 225 -6 c 0
 156 -6 32 12 32 108 c 0xba
149 109 m 0xba
 149 65 189 30 240 30 c 0
 265 30 357 43 357 139 c 2
 357 234 l 1
 307 231 149 217 149 109 c 0xba
97 608 m 4
 97 647 129 686 175 686 c 4
 215 686 252 653 252 608 c 4
 252 565 218 530 175 530 c 4
 134 530 97 563 97 608 c 4
321 608 m 4
 321 651 356 686 398 686 c 4
 439 686 476 653 476 608 c 4
 476 561 436 530 398 530 c 4
 358 530 321 563 321 608 c 4
EndSplineSet
EndChar
StartChar: aring
Encoding: 229 229 188
Width: 559
Flags: W
HStem: -6 36<183.632 306.057> 0 47<473.201 557.962> 234 31<260.424 357> 417 36<175.845 315.24> 487 35<192.971 315.779> 626 35<193.906 316.142>
VStem: 32 117<57.901 167.359> 72 125<313 409.895> 135 48<529.283 617.267> 326 48<530.358 617.495> 357 114<73.614 234 265 374.255>
LayerCount: 2
Fore
SplineSet
32 108 m 0xba
 32 186 105 224 184 244 c 0
 252 261 324 264 357 265 c 1
 357 299 l 2
 357 375 322 417 247 417 c 0
 235 417 203 416 175 410 c 1
 178 408 197 391 197 361 c 0
 197 319 165 298 134 298 c 0
 107 298 72 317 72 361 c 0
 72 400.976516163 97.177022861 423.61803298 129.999998662 436.42447341 c 4
 169.429989045 451.808752583 219.893879788 453 251 453 c 0
 326 453 382 437 418 409 c 0
 454 382 471 343 471 299 c 2
 471 84 l 2
 471 61 471 48 532 47 c 0
 545 47 558 47 558 24 c 0
 558 0 546 0 526 0 c 2
 478 0 l 2x76
 374 0 374 46 374 77 c 1
 352 35 305 -6 225 -6 c 0
 156 -6 32 12 32 108 c 0xba
149 109 m 0xba
 149 65 189 30 240 30 c 0
 265 30 357 43 357 139 c 2
 357 234 l 1
 307 231 149 217 149 109 c 0xba
135 574 m 0x3980
 135 609 162 661 255 661 c 0
 348 661 374 609 374 574 c 0
 374 539 349 487 253 487 c 0
 161 487 135 539 135 574 c 0x3980
183 574 m 0
 183 524 218 522 252 522 c 0
 293 522 326 525 326 574 c 0
 326 613 307 626 257 626 c 0
 216 626 183 621 183 574 c 0
EndSplineSet
EndChar
StartChar: ae
Encoding: 230 230 135
Width: 830
Flags: MW
LayerCount: 2
Fore
SplineSet
37 103 m 0
 37 161 89 242 358 248 c 1
 358 290 l 2
 358 335 352 367 324 391 c 1
 303 411 276 416 250 416 c 0
 235 416 204 415 175 410 c 1
 176 409 179 406 182 402 c 0
 188 394 196 380 196 361 c 0
 196 324 168 299 134 299 c 0
 103 299 71 320 71 362 c 1
 72 408 104 431 149 443 c 4
 178 451 213 453 250 453 c 0
 337 453 390 434 432 397 c 9
 432 397 l 17
 454 414 512 453 599 453 c 0
 758 453 798 337 798 247 c 0
 798 219 784 218 767 218 c 2
 472 218 l 1
 472 214 472 210 472 204 c 0
 474 154 488 35 621 35 c 0
 679 35 727 66 747 112 c 0
 752 123 756 135 774 135 c 0
 787 135 797 129 797 116 c 0
 797 92 749 -5 611 -5 c 0
 501 -5 444 44 427 59 c 1
 402 33 352 -5 227 -5 c 0
 142 -5 37 16 37 103 c 0
155 104 m 0
 155 62 193 31 242 31 c 0
 329 31 377 87 377 124 c 0
 377 142 362 149 358 215 c 1
 341 213 252 210 200 177 c 0
 178 163 155 137 155 104 c 0
472 251 m 1
 703 251 l 1
 702 279 699 306 693 330 c 0
 685 361 672 387 649 402 c 0
 635 411 619 416 597 416 c 0
 562 416 525 399 502 368 c 0
 478 335 473 292 472 251 c 1
EndSplineSet
EndChar
StartChar: ccedilla
Encoding: 231 231 189
Width: 511
Flags: MW
LayerCount: 2
Fore
SplineSet
38 222 m 0
 38 325 100 453 291 453 c 0
 381 453 466 434 466 361 c 0
 466 324 437 299 403 299 c 0
 370 299 341 323 341 360 c 0
 341 386 351 397 360 408 c 1
 347 409 320 412 293 412 c 0
 222 412 187 367 174 316 c 1
 167 284 166 254 166 217 c 0
 166 61 250 35 306 35 c 0
 361 35 406 63 428 113 c 0
 433 123 436 131 453 131 c 0
 467 131 477 128 477 116 c 0
 477 94 437 19 344 0 c 1
 344 -30 l 1
 367 -33 440 -46 440 -110 c 0
 440 -197 277 -199 152 -199 c 2
 134 -199 l 1
 134 -163 l 1
 161 -163 l 2
 213 -163 325 -158 325 -111 c 0
 325 -91 311 -61 230 -60 c 1
 230 -1 l 1
 230 -1 38 24 38 222 c 0
EndSplineSet
EndChar
StartChar: egrave
Encoding: 232 232 190
Width: 527
Flags: W
HStem: -6 40<225.984 385.659> 218 33<160 399> 417 36<220.144 341.11> 547.353 114.647<200.027 284.069>
VStem: 32 128<127.175 218 251 323.446> 399 95<251 347.125> 445 49<83.4296 134.931>
LayerCount: 2
Fore
SplineSet
32 225 m 0xf4
 32 350 119 453 279 453 c 0
 348 453 401 435 438 399 c 0
 488 349 494 276 494 245 c 0
 494 218 484 218 462 218 c 2
 160 218 l 1
 160 186 160 123 194 80 c 0
 215 53 248 34 302 34 c 0
 367 34 424 66 445 114 c 0
 451 130 453 135 470 135 c 0
 475 135 494 135 494 117 c 0
 494 100 451 -6 293 -6 c 0
 132 -6 32 91 32 225 c 0xf4
160 251 m 1
 399 251 l 1xf8
 398 286 396 417 279 417 c 0
 250 417 210 405 184 365 c 0
 163 332 162 290 160 251 c 1
184 599 m 0xf8
 184 630 210 662 242 662 c 2
 243 662 l 2
 269 662 277 651 363 571 c 0
 376 559 390 547 402 534 c 1
 378 494 l 1
 301.608252571 520.373341374 254.576952586 534.961151028 226 547.353275554 c 4
 191.730791894 562.213792713 184 573.916787987 184 599 c 0xf8
EndSplineSet
EndChar
StartChar: eacute
Encoding: 233 233 191
Width: 527
Flags: MW
LayerCount: 2
Fore
SplineSet
32 225 m 0
 32 350 119 453 279 453 c 0
 348 453 401 435 438 399 c 0
 488 349 494 276 494 245 c 0
 494 218 484 218 462 218 c 2
 160 218 l 1
 160 186 160 123 194 80 c 0
 215 53 248 34 302 34 c 0
 367 34 424 66 445 114 c 0
 451 130 453 135 470 135 c 0
 475 135 494 135 494 117 c 0
 494 100 451 -6 293 -6 c 0
 132 -6 32 91 32 225 c 0
160 251 m 1
 399 251 l 1
 398 286 396 417 279 417 c 0
 250 417 210 405 184 365 c 0
 163 332 162 290 160 251 c 1
154 535 m 1
 281 651 286 662 314 662 c 0
 347 662 372 630 372 599 c 0
 372 554 337 548 238 515 c 4
 220 509 201 502 179 494 c 1
 154 535 l 1
EndSplineSet
EndChar
StartChar: ecircumflex
Encoding: 234 234 192
Width: 527
Flags: W
HStem: -6 40<225.984 385.659> 218 33<160 399> 417 36<220.144 341.11>
VStem: 32 128<127.175 218 251 323.446> 399 95<251 347.125> 445 49<83.4296 134.931>
LayerCount: 2
Fore
SplineSet
32 225 m 0xf4
 32 350 119 453 279 453 c 0
 348 453 401 435 438 399 c 0
 488 349 494 276 494 245 c 0
 494 218 484 218 462 218 c 2
 160 218 l 1
 160 186 160 123 194 80 c 4
 215 53 248 34 302 34 c 0
 367 34 424 66 445 114 c 0
 451 130 453 135 470 135 c 0
 475 135 494 135 494 117 c 0
 494 100 451 -6 293 -6 c 0
 132 -6 32 91 32 225 c 0xf4
160 251 m 1
 399 251 l 1xf8
 398 286 396 417 279 417 c 0
 250 417 210 405 184 365 c 0
 163 332 162 290 160 251 c 1
103 510 m 1xf0
 262 658 l 1
 263 658 l 1
 421 510 l 1
 391 475 l 1
 390 475 l 1
 263 576 l 1
 262 576 l 1
 135 475 l 1
 134 475 l 1
 103 510 l 1xf0
EndSplineSet
EndChar
StartChar: edieresis
Encoding: 235 235 193
Width: 527
Flags: W
HStem: -6 40<225.984 385.659> 218 33<160 399> 417 36<220.144 341.11> 530 156<97.7918 203.012 321.374 427.012>
VStem: 32 128<127.175 218 251 323.446> 73 155<554.988 661.208> 296 156<554.792 661.208> 399 95<251 347.125> 445 49<83.4296 134.931>
LayerCount: 2
Fore
SplineSet
32 225 m 0xf4
 32 350 119 453 279 453 c 0
 348 453 401 435 438 399 c 0
 488 349 494 276 494 245 c 0
 494 218 484 218 462 218 c 2
 160 218 l 1
 160 186 160 123 194 80 c 4
 215 53 248 34 302 34 c 0
 367 34 424 66 445 114 c 0
 451 130 453 135 470 135 c 0
 475 135 494 135 494 117 c 0
 494 100 451 -6 293 -6 c 0
 132 -6 32 91 32 225 c 0xf4
160 251 m 1
 399 251 l 1xf8
 398 286 396 417 279 417 c 0
 250 417 210 405 184 365 c 0
 163 332 162 290 160 251 c 1
73 608 m 0xf8
 73 647 105 686 150 686 c 0
 191 686 228 653 228 608 c 0
 228 564 192 530 151 530 c 0
 106 530 73 567 73 608 c 0xf8
296 608 m 0xfc
 296 651 331 686 374 686 c 0
 415 686 452 653 452 608 c 0
 452 569 420 530 374 530 c 0
 334 530 296 563 296 608 c 0xfc
EndSplineSet
EndChar
StartChar: igrave
Encoding: 236 236 194
Width: 319
Flags: MW
LayerCount: 2
Fore
SplineSet
47 0 m 1
 47 47 l 1
 116 47 l 1
 116 47 l 1
 116 356 l 2
 116 395 109 395 50 395 c 1
 50 442 l 1
 224 450 l 1
 224 47 l 5
 224 47 l 1
 286 47 l 1
 286 0 l 1
 250 1 199 3 169 3 c 0
 127 3 78 1 47 0 c 1
-4 599 m 0
 -4 630 22 662 55 662 c 0
 73 662 86 653 101 639 c 0
 124 619 204 545 215 534 c 1
 190 494 l 1
 123 517 79 531 50 542 c 4
 5 560 -4 571 -4 599 c 0
EndSplineSet
EndChar
StartChar: iacute
Encoding: 237 237 195
Width: 319
Flags: MW
LayerCount: 2
Fore
SplineSet
47 0 m 1
 47 47 l 1
 116 47 l 1
 116 356 l 2
 116 395 109 395 50 395 c 1
 50 442 l 1
 224 450 l 1
 224 47 l 1
 286 47 l 1
 286 0 l 1
 250 1 199 3 169 3 c 0
 127 3 78 1 47 0 c 1
94 535 m 1
 222 653 227 662 254 662 c 0
 289 662 312 627 312 599 c 0
 312 564.329894676 288.89253294 551.911424298 234 533.192489529 c 4
 204.978618673 523.295891305 167.07274264 511.638200537 119 494 c 1
 94 535 l 1
EndSplineSet
EndChar
StartChar: idieresis
Encoding: 239 239 197
Width: 383
Flags: MW
LayerCount: 2
Fore
SplineSet
79 0 m 1
 79 47 l 1
 148 47 l 1
 148 356 l 2
 148 395 141 395 82 395 c 1
 82 442 l 1
 256 450 l 1
 256 47 l 1
 318 47 l 1
 318 0 l 1
 282 1 231 3 201 3 c 0
 159 3 110 1 79 0 c 1
13 608 m 0
 13 647 45 686 91 686 c 0
 131 686 168 653 168 608 c 0
 168 566 134 530 91 530 c 0
 51 530 13 562 13 608 c 0
236 608 m 0
 236 650 270 686 314 686 c 0
 354 686 391 654 391 608 c 0
 391 570 361 530 314 530 c 0
 273 530 236 563 236 608 c 0
EndSplineSet
EndChar
StartChar: eth
Encoding: 240 240 198
Width: 575
Flags: W
HStem: -5 40<216.865 353.738> 416 37<220.087 346.036> 568 78<276.764 307.098> 655 40<83.6062 175.724>
VStem: 31 128<121.965 319.688> 414 128<122.838 341.594>
LayerCount: 2
Fore
SplineSet
31 219 m 0
 31 371 149 453 282 453 c 0
 334 453 365 434 393 411 c 1
 367 480 333 522 286 568 c 1
 285 568 l 1
 254.824109561 548.888602722 234.259942962 536.606588173 220 529.118571611 c 0
 205.906294891 521.717847951 197.970684927 519 193 519 c 0
 186 519 184 523 181 528 c 0
 178 533 176 538 175 543 c 1
 175.333333322 548.333333156 179.333333068 553.222221898 185.999999337 558.296295792 c 4
 199.333332537 568.444444083 223.333332891 579.333333057 250 596 c 1
 205 624 167 644 108 655 c 0
 89 658 83 664 83 671 c 0
 83 681 92 695 136 695 c 0
 150.916814786 695 164.907601306 694.189725267 178.000003355 692.777567493 c 0
 266.720130291 683.208138103 314.186084926 646 329 646 c 0
 347 646 407 692 422 692 c 0
 432 692 443 680 443 669 c 0
 443 659 436 652 371 617 c 1
 395 598 413 585 440 555 c 0
 537 447 542 330 542 294 c 2
 542 236 l 2
 542 42 399 -5 286 -5 c 0
 131 -5 31 84 31 219 c 0
159 216 m 2
 159 170.106354547 162.807744538 129.924325901 177.515412096 99.000003303 c 0
 191.009355726 70.6276550486 213.67845847 50.0481073351 251 40 c 0
 263 37 275 35 286 35 c 0
 318 35 351 46 376 71 c 0
 413 110 414 173 414 219 c 0
 414 384 336 416 285 416 c 0
 245 416 213 399 193 377 c 0
 163 343 160 295 159 251 c 1
 159 216 l 2
EndSplineSet
EndChar
StartChar: ntilde
Encoding: 241 241 199
Width: 638
Flags: W
HStem: 0 47<45 114 228 297 363 432 546 615> 395 47<45 112.945> 414 36<309.565 415.454> 543 74<325.544 461.761> 577 74<198.921 335.277>
VStem: 114 114<47 340.945> 114 103<342 393.19> 432 114<47 396.655>
LayerCount: 2
Fore
SplineSet
139 568 m 1xa0
 186 619 208 651 260 651 c 0x60
 316 651 364 617 420 617 c 0xa0
 454 617 471 629 495 651 c 1x60
 522 626 l 1
 474 575 453 543 400 543 c 0xa0
 345 543 297 577 241 577 c 0x60
 207 577 190 565 165 543 c 1
 139 568 l 1xa0
45 0 m 1xb4
 45 47 l 1
 114 47 l 1xb4
 114 356 l 2
 114 395 107 395 45 395 c 1
 45 442 l 1xcc
 217 450 l 1
 217 342 l 1xac
 243 393 296 450 392 450 c 0
 444 450 484 439 510 414 c 4
 534 391 546 356 546 306 c 2
 546 47 l 1
 615 47 l 1
 615 0 l 1
 587 1 528 3 489 3 c 0
 451 3 391 1 363 0 c 1
 363 47 l 1
 432 47 l 1
 432 317 l 2
 432 393 411 414 377 414 c 0
 314 414 228 365 228 256 c 2
 228 47 l 1
 297 47 l 1
 297 0 l 1
 269 1 210 3 171 3 c 0
 133 3 73 1 45 0 c 1xb4
EndSplineSet
EndChar
StartChar: ograve
Encoding: 242 242 200
Width: 575
Flags: W
HStem: -6 40<212.88 360.841> 417 36<219.713 357.876> 550.819 111.181<192.141 266.325>
VStem: 32 128<119.931 322.065> 414 128<120.014 322.113>
LayerCount: 2
Fore
SplineSet
32 218 m 0
 32 351 123 453 287 453 c 0
 450 453 542 352 542 218 c 0
 542 95 455 -6 287 -6 c 0
 120 -6 32 94 32 218 c 0
160 229 m 0
 160 184 160 133 178 94 c 0
 195 59 226 34 287 34 c 0
 342 34 373 54 391 84 c 0
 414 124 414 180 414 229 c 0
 414 277 414 332 393 366 c 0
 371 401 329 417 287 417 c 0
 238 417 196 396 177 359 c 0
 160 325 160 274 160 229 c 0
176 599 m 0
 176 630 202 662 235 662 c 0
 253 662 266 653 281 639 c 0
 304 619 384 545 395 534 c 1
 370 494 l 1
 285.884493215 522.868043749 237.442116271 537.615473602 210 550.81903456 c 4
 182.307007097 564.143302859 176 575.895345042 176 599 c 0
EndSplineSet
EndChar
StartChar: oacute
Encoding: 243 243 201
Width: 575
Flags: MW
LayerCount: 2
Fore
SplineSet
32 218 m 0
 32 351 123 453 287 453 c 0
 450 453 542 352 542 218 c 0
 542 95 455 -6 287 -6 c 0
 120 -6 32 94 32 218 c 0
160 229 m 0
 160 184 160 133 178 94 c 0
 195 59 226 34 287 34 c 0
 342 34 373 54 391 84 c 0
 414 124 414 180 414 229 c 0
 414 277 414 332 393 366 c 0
 371 401 329 417 287 417 c 0
 238 417 196 396 177 359 c 0
 160 325 160 274 160 229 c 0
178 535 m 1
 306 653 311 662 338 662 c 0
 370 662 397 630 397 599 c 0
 397 555 359 547 264 515 c 4
 246 509 226 502 203 494 c 1
 178 535 l 1
EndSplineSet
EndChar
StartChar: otilde
Encoding: 245 245 203
Width: 575
Flags: MW
LayerCount: 2
Fore
SplineSet
95 568 m 1
 142 619 164 651 216 651 c 0
 272 651 320 617 376 617 c 0
 410 617 427 629 451 651 c 1
 478 626 l 1
 430 575 409 543 356 543 c 0
 301 543 253 577 197 577 c 0
 163 577 146 565 121 543 c 1
 95 568 l 1
32 218 m 0
 32 351 123 453 287 453 c 0
 450 453 542 352 542 218 c 0
 542 95 455 -6 287 -6 c 0
 120 -6 32 94 32 218 c 0
160 229 m 0
 160 184 160 133 178 94 c 0
 195 59 226 34 287 34 c 0
 342 34 373 54 391 84 c 4
 414 124 414 180 414 229 c 0
 414 277 414 332 393 366 c 0
 371 401 329 417 287 417 c 0
 238 417 196 396 177 359 c 0
 160 325 160 274 160 229 c 0
EndSplineSet
EndChar
StartChar: odieresis
Encoding: 246 246 204
Width: 575
Flags: W
HStem: -6 40<212.88 360.841> 417 36<219.713 357.876> 530 156<121.988 227.15 345.85 451.012>
VStem: 32 128<119.931 322.065> 97 155<554.792 661.208> 321 155<555.36 661.208> 414 128<120.014 322.113>
LayerCount: 2
Fore
SplineSet
32 218 m 0
 32 351 123 453 287 453 c 0
 450 453 542 352 542 218 c 0
 542 95 455 -6 287 -6 c 0
 120 -6 32 94 32 218 c 0
160 229 m 0
 160 184 160 133 178 94 c 0
 195 59 226 34 287 34 c 0
 342 34 373 54 391 84 c 4
 414 124 414 180 414 229 c 0
 414 277 414 332 393 366 c 0
 371 401 329 417 287 417 c 0
 238 417 196 396 177 359 c 0
 160 325 160 274 160 229 c 0
97 608 m 4
 97 647 129 686 175 686 c 4
 215 686 252 653 252 608 c 4
 252 565 218 530 175 530 c 4
 134 530 97 563 97 608 c 4
321 608 m 4
 321 651 356 686 398 686 c 4
 439 686 476 653 476 608 c 4
 476 561 436 530 398 530 c 4
 358 530 321 563 321 608 c 4
EndSplineSet
EndChar
StartChar: divide
Encoding: 247 247 205
Width: 894
Flags: W
HStem: -89 188<421 471> 220 60<85 785 114 785 785 787> 400 188<421 471>
VStem: 352 188<-22 30.5 -22 32 467 519.5>
LayerCount: 2
Fore
SplineSet
64 250 m 0
 64 267 79 277 89 279 c 0
 97 281 106 280 114 280 c 2
 785 280 l 2
 791 280 798 280 804 279 c 0
 818 276 828 264 828 250 c 0
 828 222 802 220 787 220 c 2
 102 220 l 2
 68 220 64 241 64 250 c 0
352 5 m 0
 352 59 396 99 446 99 c 0
 500 99 540 56 540 5 c 0
 540 -49 496 -89 446 -89 c 0
 396 -89 352 -49 352 5 c 0
352 494 m 0
 352 549 396 588 446 588 c 0
 500 588 540 545 540 494 c 0
 540 440 496 400 446 400 c 0
 396 400 352 440 352 494 c 0
EndSplineSet
EndChar
StartChar: oslash
Encoding: 248 248 138
Width: 575
Flags: W
HStem: -5 36<207.979 363.98> 416 37<209.94 362.023>
VStem: 31 114<120.154 318.821> 428 114<121.965 320.145>
LayerCount: 2
Fore
SplineSet
31 219 m 0
 31 333 106 453 286 453 c 0
 331 453 366 445 397 434 c 1
 469 551 l 1
 470 551 l 1
 500 532 l 1
 500 531 l 1
 430 419 l 1
 532 363 542 259 542 219 c 0
 542 84 443 -5 286 -5 c 0
 245 -5 209 1 177 12 c 1
 104 -107 l 1
 73 -88 l 1
 73 -87 l 1
 143 26 l 1
 43 80 31 176 31 219 c 0
145 209 m 2
 145 165 146 116 175 77 c 1
 371 393 l 1
 344 409 322 416 286 416 c 0
 241 416 200 401 174 367 c 0
 147 330 145 280 145 222 c 2
 145 209 l 2
202 52 m 1
 210 48 236 31 287 31 c 0
 350.9709962 31 385.918670735 55.0831818076 405.010759774 86.9999986596 c 4
 428 125.431799829 428 175.221700511 428 208 c 2
 428 231 l 2
 428 281 427 323 399 367 c 1
 398 367 l 1
 202 52 l 1
EndSplineSet
EndChar
StartChar: ugrave
Encoding: 249 249 206
Width: 638
Flags: MW
LayerCount: 2
Fore
SplineSet
45 395 m 1
 45 442 l 1
 228 450 l 1
 228 109 l 2
 228 80 229 59 242 46 c 4
 253 35 273 30 308 30 c 0
 381 30 432 83 432 165 c 2
 432 356 l 2
 432 395 425 395 363 395 c 1
 363 442 l 1
 546 450 l 1
 546 86 l 2
 546 47 553 47 615 47 c 1
 615 0 l 1
 438 -6 l 1
 438 72 l 1
 392 -6 320 -6 294 -6 c 0
 257 -6 223 -3 194 6 c 0
 146 22 114 56 114 123 c 2
 114 356 l 2
 114 395 107 395 45 395 c 1
204 599 m 0
 204 630 230 662 262 662 c 0
 281 662 294 653 309 639 c 0
 332 619 411 545 422 534 c 1
 398 494 l 1
 324 519 278 534 249 546 c 4
 212 562 204 573 204 599 c 0
EndSplineSet
EndChar
StartChar: uacute
Encoding: 250 250 207
Width: 638
Flags: MW
LayerCount: 2
Fore
SplineSet
45 395 m 1
 45 442 l 1
 228 450 l 1
 228 109 l 2
 228 55 231 30 308 30 c 0
 381 30 432 83 432 165 c 2
 432 356 l 2
 432 395 425 395 363 395 c 1
 363 442 l 1
 546 450 l 1
 546 86 l 2
 546 47 553 47 615 47 c 1
 615 0 l 1
 438 -6 l 1
 438 72 l 1
 392 -6 320 -6 294 -6 c 0
 195 -6 114 16 114 123 c 2
 114 356 l 2
 114 395 107 395 45 395 c 1
222 535 m 1
 350 653 355 662 382 662 c 0
 417 662 440 627 440 599 c 0
 440 554.117897816 401.275269773 546.526276592 305 514.282150825 c 4
 287.586537523 508.450104075 268.290335782 501.81156205 247 494 c 1
 222 535 l 1
EndSplineSet
EndChar
StartChar: ucircumflex
Encoding: 251 251 208
Width: 638
Flags: MW
LayerCount: 2
Fore
SplineSet
170 510 m 1
 329 658 l 1
 330 658 l 1
 488 510 l 1
 457 474 l 1
 330 576 l 1
 329 576 l 1
 201 474 l 1
 170 510 l 1
45 395 m 1
 45 442 l 1
 228 450 l 1
 228 109 l 2
 228 55 231 30 308 30 c 0
 381 30 432 83 432 165 c 2
 432 356 l 2
 432 395 425 395 363 395 c 1
 363 442 l 1
 546 450 l 1
 546 86 l 2
 546 47 553 47 615 47 c 1
 615 0 l 1
 438 -6 l 1
 438 72 l 1
 392 -6 320 -6 294 -6 c 0
 195 -6 114 16 114 123 c 2
 114 356 l 2
 114 395 107 395 45 395 c 1
EndSplineSet
EndChar
StartChar: udieresis
Encoding: 252 252 209
Width: 638
Flags: W
HStem: -6 36<240.906 374.098> 0 47<547.055 615> 395 47<45 112.945 363 430.945> 430 20G<45 228 363 546> 530 156<165.988 271.012 388.988 494.012>
VStem: 114 114<45.7713 393.19> 141 155<554.792 661.208> 364 155<554.792 661.208> 432 114<48.8101 72 83.6119 393.19>
LayerCount: 2
Fore
SplineSet
45 395 m 1xac
 45 442 l 1xac
 228 450 l 1x1c
 228 109 l 2
 228 55 231 30 308 30 c 0
 381 30 432 83 432 165 c 2
 432 356 l 2
 432 395 425 395 363 395 c 1
 363 442 l 1xac
 546 450 l 1
 546 86 l 2
 546 47 553 47 615 47 c 1
 615 0 l 1x5c
 438 -6 l 1
 438 72 l 1
 392 -6 320 -6 294 -6 c 0
 195 -6 114 16 114 123 c 2
 114 356 l 2
 114 395 107 395 45 395 c 1xac
141 608 m 0x34
 141 647 172 686 218 686 c 0
 259 686 296 653 296 608 c 0
 296 564 260 530 219 530 c 0
 178 530 141 563 141 608 c 0x34
364 608 m 0x32
 364 651 399 686 441 686 c 0
 482 686 519 653 519 608 c 0
 519 561 480 530 442 530 c 0
 401 530 364 563 364 608 c 0x32
EndSplineSet
EndChar
StartChar: yacute
Encoding: 253 253 210
Width: 606
Flags: MW
LayerCount: 2
Fore
SplineSet
22 -108 m 0
 22 -69 51 -50 79 -50 c 0
 113 -50 137 -74 137 -107 c 0
 137 -142 114 -156 105 -160 c 1
 113 -163 115 -164 129 -164 c 0
 200 -164 232 -96 254 -48 c 2
 277 0 l 1
 90 397 l 1
 26 397 l 1
 26 444 l 1
 67 443 112 441 140 441 c 0
 141 441 231 442 264 444 c 1
 264 397 l 1
 210 397 l 1
 210 397 l 1
 337 127 l 1
 452 373 l 2
 453 374 457 384 457 385 c 0
 457 397 412 397 410 397 c 1
 410 444 l 1
 431 443 476 441 501 441 c 0
 526 441 556 442 580 444 c 1
 580 397 l 1
 516 397 513 390 506 376 c 2
 291 -81 l 2
 264 -138 206 -200 129 -200 c 0
 69 -200 22 -159 22 -108 c 0
259 535 m 1
 387 653 392 662 419 662 c 0
 451 662 477 630 477 599 c 0
 477 556.383133582 442.732126353 547.387577157 356 518.983883182 c 4
 334.868665637 512.063633676 310.623053492 503.99131722 283 494 c 1
 259 535 l 1
EndSplineSet
EndChar
StartChar: thorn
Encoding: 254 254 211
Width: 639
Flags: MW
LayerCount: 2
Fore
SplineSet
35 -147 m 1
 35 -147 l 1
 105 -147 l 1
 105 -147 l 1
 105 611 l 1
 104 639 92 644 42 644 c 2
 35 644 l 1
 35 691 l 1
 213 700 l 1
 213 401 l 1
 241 421 290 450 366 450 c 0
 499 450 599 363 599 223 c 0
 599 81 491 -5 349 -5 c 0
 294 -5 256 11 219 40 c 1
 219 -147 l 1
 219 -147 l 1
 288 -147 l 1
 288 -147 l 1
 288 -195 l 1
 248 -193 208 -192 168 -192 c 0
 164 -192 161 -192 157 -192 c 0
 108 -192 72 -193 35 -195 c 1
 35 -147 l 1
219 120 m 2
 219 118 218 116 218 113 c 0
 218 81 275 31 337 31 c 0
 390 31 471 70 471 224 c 0
 471 338 422 409 348 409 c 0
 305 409 234 384 221 343 c 0
 220 339 219 335 219 330 c 2
 219 120 l 2
EndSplineSet
EndChar
StartChar: amacron
Encoding: 257 257 343
Width: 559
Flags: W
HStem: -6 36<214.5 252.5 214.5 265> 0 47<478 538.5> 417 36<241 284.5> 543 52<72 487 72 487>
VStem: 32 117<87 163 87 180.5> 72 125<340 376 340 405> 357 114<139 234 234 234 265 299>
LayerCount: 2
Fore
SplineSet
72 543 m 1x10
 72 595 l 1
 487 595 l 1
 487 543 l 1
 72 543 l 1x10
32 108 m 0xba
 32 186 105 224 184 244 c 0
 252 261 324 264 357 265 c 1
 357 299 l 2
 357 375 322 417 247 417 c 0
 235 417 203 416 175 410 c 1
 178 408 197 391 197 361 c 0
 197 319 165 298 134 298 c 0
 107 298 72 317 72 361 c 0
 72 449 194 453 251 453 c 0
 326 453 382 437 418 409 c 0
 454 382 471 343 471 299 c 2
 471 84 l 2
 471 61 471 48 532 47 c 0
 545 47 558 47 558 24 c 0
 558 0 546 0 526 0 c 2
 478 0 l 2x76
 374 0 374 46 374 77 c 1
 352 35 305 -6 225 -6 c 0
 156 -6 32 12 32 108 c 0xba
149 109 m 0xba
 149 65 189 30 240 30 c 0
 265 30 357 43 357 139 c 2
 357 234 l 1
 307 231 149 217 149 109 c 0xba
EndSplineSet
EndChar
StartChar: Abreve
Encoding: 258 258 477
Width: 869
Flags: W
HStem: 0 47<41 146.444 201.063 290 488 583 730 827> 193 47<275 503> 678 20G<420 442.5> 755 63<337.865 530.141>
VStem: 256 36<855.125 894> 575 36<852.844 894>
LayerCount: 2
Fore
SplineSet
256 894 m 1x3e
 292 894 l 1
 298 830 375 818 432 818 c 0
 546 818 572 858 575 894 c 1
 611 894 l 1
 607 798 514 755 434 755 c 0
 349 755 260 800 256 894 c 1x3e
41 0 m 1
 41 47 l 1
 62 47 l 2
 138 47 141 55 147 70 c 2
 395 672 l 2
 402 690 406 698 434 698 c 0
 451 698 463 698 474 672 c 2
 730 47 l 1
 827 47 l 5
 827 47 l 1
 827 0 l 1
 792 3 704 3 664 3 c 0
 621 3 526 3 488 0 c 1
 488 47 l 1
 583 47 l 1
 583 47 l 1
 523 193 l 1
 255 193 l 1
 205 72 l 2
 204 71 201 61 201 60 c 0
 201 47 288 47 290 47 c 1
 290 0 l 1
 253 3 197 3 158 3 c 0
 127 3 79 1 41 0 c 1
275 240 m 1
 503 240 l 1
 389 518 l 1
 275 240 l 1
EndSplineSet
EndChar
StartChar: Aogonek
Encoding: 260 260 458
Width: 869
Flags: MW
LayerCount: 2
Fore
SplineSet
40 0 m 1
 40 48 l 1
 134 48 139 52 148 75 c 2
 393 670 l 2
 401 688 407 698 433 698 c 0
 458 698 466 690 475 668 c 2
 730 48 l 1
 827 48 l 1
 827 48 l 1
 827 0 l 1
 819 0 779 1 751 2 c 4
 749 2 748 2 746 2 c 0
 740 2 735 2 731 2 c 0
 728 2 726 2 724 2 c 0
 713 1 706 -2 690 -16 c 1
 675 -32 665 -47 665 -68 c 0
 665 -102 697 -137 730 -137 c 0
 754 -137 762 -117 778 -117 c 0
 782 -117 790 -120 796 -125 c 0
 801 -129 804 -134 804 -140 c 0
 804 -155 764 -205 701 -205 c 0
 647 -205 585 -166 585 -100 c 0
 585 -59 608 -28 641 3 c 1
 487 0 l 1
 487 48 l 1
 487 48 l 1
 582 48 l 1
 582 48 l 1
 522 192 l 1
 254 192 l 1
 218 103 203 73 203 62 c 0
 203 53 220 48 289 48 c 1
 289 0 l 1
 245 2 201 3 156 3 c 0
 117 3 79 2 40 0 c 1
274 240 m 1
 503 240 l 1
 389 518 l 1
 274 240 l 1
EndSplineSet
EndChar
StartChar: aogonek
Encoding: 261 261 466
Width: 559
Flags: W
HStem: -205 69<438.834 520.871> -5 36<182.663 306.702> 0 46.6197<473.507 557.948> 234 31<260.151 357> 416 37<176.284 313.422>
VStem: 31 118<59.3876 166.91> 71 125<313.32 409.438> 339 80<-116.167 -34.0357> 357 114<74.1384 234 265 373.992>
LayerCount: 2
Fore
SplineSet
31 109 m 0xf4
 31 233 232 264 357 265 c 1
 357 292 l 2
 357 357 335 416 249 416 c 0
 234 416 204 415 174 410 c 1
 185 398 196 387 196 361 c 0
 196 324 168 299 133 299 c 0
 96 299 71 327 71 362 c 0
 71 442 170 453 251 453 c 0
 433 453 463 358 469 326 c 0
 471 314 471 302 471 290 c 2
 471 93 l 2xea
 471 85 470 77 472 70 c 0
 479.532924477 42.6075473549 517.079707431 52.2634512668 539.999999493 46.6196761445 c 4
 550.549207017 44.0220934074 558 38.1834907742 558 24 c 0
 558 0 540 0 525 0 c 2
 479 0 l 2
 439 0 419 -45 419 -67 c 0
 419 -109 457 -136 482 -136 c 0
 507 -136 517 -114 532 -114 c 0
 540 -114 558 -124 558 -138 c 0
 558 -153 517 -205 453 -205 c 0
 392 -205 339 -159 339 -100 c 0
 339 -46 379 -8 406 13 c 1
 373 34 375 49 373 78 c 1
 348 29 297 -5 224 -5 c 0
 150 -5 31 15 31 109 c 0xf4
149 110 m 0xf2
 149 63 191 31 240 31 c 0
 280 31 357 53 357 141 c 2
 357 234 l 1
 277 228 196 214 162 156 c 0
 154 142 149 126 149 110 c 0xf2
EndSplineSet
EndChar
StartChar: Cacute
Encoding: 262 262 479
Width: 830
Flags: W
HStem: -11 47<373.502 591.457> 650 47<368.048 582.386> 752 123<478.139 569.724>
VStem: 64 153<216.819 469.324> 712 54<426.065 517.868> 719 47<151.754 247.992>
LayerCount: 2
Fore
SplineSet
358 778 m 1
 514 877 509 875 528 875 c 2
 529 875 l 2
 561 875 585 843 585 812 c 0
 585 760 534 757 501 752 c 0
 475.408739335 748.344105619 449.817478671 744.31694558 424 740.370955893 c 4
 407.446213012 737.840845437 390.799423605 735.344105619 374 733 c 1
 358 778 l 1
64 343 m 0xe8
 64 548 217 697 466 697 c 0
 534 697 601 679 663 629 c 1
 729 688 l 2
 737 695 739 697 748 697 c 0
 766 697 766 688 766 669 c 2xe8
 766 454 l 2
 766 428 765 426 739 426 c 0
 716 426 715 428 712 447 c 0xf0
 690 574 595 650 487 650 c 0
 435 650 348 639 283 573 c 1
 220 507 217 399 217 343 c 0
 217 253 229 178 276 121 c 1
 328 60 412 36 490 36 c 0
 591 36 712 97 719 231 c 0
 720 248 729 248 742 248 c 0
 759 248 766 247 766 227 c 0
 766 112 653 -11 466 -11 c 0
 217 -11 64 138 64 343 c 0xe8
EndSplineSet
EndChar
StartChar: cacute
Encoding: 263 263 492
Width: 511
Flags: W
HStem: -6 40<231.705 380.18> 413 40<226.315 358.222>
VStem: 38 128<120.673 322.067> 340 125<313 406.246>
LayerCount: 2
Fore
SplineSet
195 535 m 1xf8
 321 651 327 662 355 662 c 0
 387 662 413 630 413 599 c 0
 413 553.215173408 376.43315523 547.728502276 273 512.915682463 c 4
 256.700098774 507.429573845 238.739625361 501.215173408 219 494 c 1
 195 535 l 1xf8
38 222 m 0
 38 338 112 453 291 453 c 0
 349 453 465 447 465 361 c 0
 465 319 433 298 402 298 c 0
 375 298 340 317 340 361 c 0
 340 370 342 391 360 407 c 1
 347 410 330 413 295 413 c 0
 166 413 166 283 166 227 c 0
 166 181 166 34 305 34 c 0
 356 34 404 53 430 116 c 0
 435 129 436 131 454 131 c 0
 464 131 478 131 478 117 c 0
 478 110 448 -6 286 -6 c 0
 132 -6 38 89 38 222 c 0
EndSplineSet
EndChar
StartChar: Cdotaccent
Encoding: 266 266 531
Width: 830
Flags: W
HStem: -11 47<373.502 591.457> 650 47<368.048 582.386> 747 155<410.792 517.012>
VStem: 64 153<216.819 469.324> 386 156<771.988 877.208> 712 54<426.065 517.868> 719 47<151.754 247.992>
LayerCount: 2
Fore
SplineSet
386 825 m 0
 386 864 418 902 464 902 c 0
 505 902 542 869 542 824 c 0
 542 786 510 747 464 747 c 0
 419 747 386 784 386 825 c 0
64 343 m 0xe8
 64 548 217 697 466 697 c 0
 534 697 601 679 663 629 c 1
 729 688 l 2
 737 695 739 697 748 697 c 0
 766 697 766 688 766 669 c 2xe8
 766 454 l 2
 766 428 765 426 739 426 c 0
 716 426 715 428 712 447 c 0xf0
 690 574 595 650 487 650 c 0
 435 650 348 639 283 573 c 1
 220 507 217 399 217 343 c 0
 217 253 229 178 276 121 c 1
 328 60 412 36 490 36 c 0
 591 36 712 97 719 231 c 0
 720 248 729 248 742 248 c 0
 759 248 766 247 766 227 c 0
 766 112 653 -11 466 -11 c 0
 217 -11 64 138 64 343 c 0xe8
EndSplineSet
EndChar
StartChar: Ccaron
Encoding: 268 268 480
Width: 830
Flags: MW
LayerCount: 2
Fore
SplineSet
321 878 m 1
 333 904 l 1
 474 864 484 861 491 861 c 0
 501 861 581 885 648 904 c 1
 660 878 l 1
 498 769 499 768 491 768 c 0
 477 768 451 793 321 878 c 1
64 343 m 0
 64 548 217 697 466 697 c 0
 534 697 601 679 663 629 c 1
 729 688 l 2
 737 695 739 697 748 697 c 0
 766 697 766 688 766 669 c 2
 766 454 l 2
 766 428 765 426 739 426 c 0
 716 426 715 428 712 447 c 0
 690 574 595 650 487 650 c 0
 435 650 348 639 283 573 c 1
 220 507 217 399 217 343 c 0
 217 253 229 178 276 121 c 1
 328 60 412 36 490 36 c 0
 591 36 712 97 719 231 c 0
 720 248 729 248 742 248 c 0
 759 248 766 247 766 227 c 0
 766 112 653 -11 466 -11 c 0
 217 -11 64 138 64 343 c 0
EndSplineSet
EndChar
StartChar: ccaron
Encoding: 269 269 493
Width: 511
Flags: MW
LayerCount: 2
Fore
SplineSet
117 641 m 1
 117 642 l 1
 134 664 l 1
 135 664 l 1
 280 580 282 578 289 578 c 0
 302 578 347 610 443 664 c 1
 444 664 l 1
 462 642 l 1
 462 641 l 1
 290 470 l 1
 289 470 l 1
 117 641 l 1
38 222 m 0
 38 338 112 453 291 453 c 0
 327 453 384 451 423 429 c 4
 448 415 465 394 465 361 c 0
 465 319 433 298 402 298 c 0
 375 298 340 317 340 361 c 0
 340 370 342 391 360 407 c 1
 347 410 330 413 295 413 c 0
 166 413 166 283 166 227 c 0
 166 181 166 34 305 34 c 0
 356 34 404 53 430 116 c 0
 435 129 436 131 454 131 c 0
 464 131 478 131 478 117 c 0
 478 110 448 -6 286 -6 c 0
 132 -6 38 89 38 222 c 0
EndSplineSet
EndChar
StartChar: Dcaron
Encoding: 270 270 482
Width: 881
Flags: W
HStem: 0 47<39 147 283 541.471> 639 47<39 147 283 540.801> 768 93<345.559 419.379> 878 26<221.769 230.605 537.285 543.231>
VStem: 147 136<47 639> 670 147<208.719 468.685>
LayerCount: 2
Fore
SplineSet
213 878 m 1xd8
 225 904 l 1
 366 864 376 861 383 861 c 2
 384 861 l 2
 390 861 392 862 540 904 c 1
 552 878 l 1
 390 769 391 768 383 768 c 0
 369 768 343 793 213 878 c 1xd8
39 0 m 1
 39 47 l 1
 39 47 l 5
 147 47 l 1
 147 639 l 1
 39 639 l 1
 39 639 l 1
 39 686 l 1
 469 686 l 2
 667 686 817 557 817 337 c 0
 817 123 667 0 470 0 c 2
 39 0 l 1
283 47 m 1
 283 47 l 1
 429 47 l 2
 490 47 578 63 626 131 c 0
 658 176 670 229 670 338 c 0
 670 431 662 499 627 550 c 0
 578 620 495 639 429 639 c 2
 283 639 l 1
 283 639 l 1
 283 47 l 1
EndSplineSet
EndChar
StartChar: dcaron
Encoding: 271 271 495
Width: 810
Flags: MW
LayerCount: 2
Fore
SplineSet
578 676 m 0
 578 719 609 754 655 754 c 0
 701 754 750 717 750 650 c 0
 750 537 652 470 628 470 c 0
 619 470 610 480 610 489 c 0
 610 501 635 508 661 532 c 4
 680 549 700 575 710 619 c 1
 693 605 678 599 656 599 c 0
 610 599 578 634 578 676 c 0
38 221 m 0
 38 362 143 450 289 450 c 0
 322 450 374 444 424 405 c 1
 424 600 l 2
 424 639 417 639 355 639 c 1
 355 686 l 1
 532 694 l 1
 532 86 l 2
 532 47 539 47 601 47 c 1
 601 0 l 1
 418 -6 l 1
 418 43 l 1
 387 18 339 -6 278 -6 c 0
 130 -6 38 89 38 221 c 0
166 221 m 0
 166 180 166 122 190 80 c 0
 208 51 238 30 288 30 c 0
 364 30 405 85 418 103 c 1
 418 103 l 5
 418 353 l 1
 418 353 l 1
 396 382 356 414 299 414 c 0
 268 414 221 404 192 362 c 0
 166 323 166 269 166 221 c 0
EndSplineSet
EndChar
StartChar: Dcroat
Encoding: 272 272 520
Width: 882
Flags: MW
LayerCount: 2
Fore
SplineSet
39 0 m 1
 39 48 l 1
 39 48 l 1
 147 48 l 1
 147 48 l 1
 147 313 l 1
 147 313 l 1
 67 313 l 2
 55 313 45 315 41 325 c 0
 40 328 39 332 39 337 c 0
 39 354 50 360 67 360 c 2
 147 360 l 1
 147 360 l 1
 147 638 l 1
 147 638 l 1
 39 638 l 1
 39 638 l 1
 39 686 l 1
 444 686 l 2
 540 686 639 672 720 593 c 0
 787 527 818 431 818 338 c 0
 818 145 695 19 510 2 c 0
 488 0 466 0 444 0 c 2
 39 0 l 1
284 48 m 1
 284 48 l 1
 416 48 l 2
 480 48 563 56 619 122 c 0
 666 178 670 260 670 318 c 2
 670 352 l 2
 670 421 668 531 585 592 c 1
 533 632 471 638 415 638 c 2
 284 638 l 1
 284 638 l 1
 284 638 l 1
 284 638 l 1
 284 360 l 1
 454 360 l 2
 478 360 484 351 484 336 c 0
 484 313 464 313 454 313 c 2
 284 313 l 1
 284 48 l 1
EndSplineSet
EndChar
StartChar: dbar
Encoding: 273 273 496
Width: 639
Flags: W
HStem: -5 36<288 294 288 306> 0 48<591 602> 413 37<274 315.5> 520 48<201 424 201 424 533 584> 638 48<354 363 354 354>
VStem: 38 128<157.5 204 204 233 157.5 290.5> 418 115<-5 80 44 80 125 335 335 340> 424 109<405 520 568 592 592 612>
LayerCount: 2
Fore
SplineSet
38 222 m 0xbe
 38 359 139 450 289 450 c 0
 343 450 386 433 424 405 c 1
 424 520 l 1
 201 520 l 1
 201 568 l 1
 424 568 l 1
 424 592 l 2
 424 632 421 638 363 638 c 2
 354 638 l 1
 354 686 l 1
 533 694 l 1
 533 568 l 1
 584 568 l 1
 584 520 l 1
 533 520 l 1
 533 80 l 2
 533 53 546 48 591 48 c 2
 602 48 l 1
 602 0 l 1x7d
 418 -5 l 1
 418 44 l 1
 380 14 336 -5 276 -5 c 0
 140 -5 38 81 38 222 c 0xbe
166 204 m 2
 166 111 187 81 206 62 c 0
 225 44 252 31 288 31 c 2
 294 31 l 1
 331 33 366 48 392 74 c 0
 398 79 403 84 408 90 c 1
 419 108 418 100 418 125 c 2
 418 335 l 2xbe
 418 345 419 354 405 368 c 0
 401 373 395 378 390 382 c 0
 364 402 332 413 299 413 c 0
 249 413 213 392 192 360 c 0
 172 330 168 292 167 256 c 0
 166 249 166 241 166 233 c 2
 166 204 l 2
EndSplineSet
EndChar
StartChar: Emacron
Encoding: 274 274 351
Width: 755
Flags: W
HStem: 0 47<39 147 39 147 289 441 441 533.5> 329 47<289 344 289 344> 633 47<39 147 39 660 289 289 289 441> 746 61<52.5 691 70 691>
VStem: 147 142<47 329 376 633> 450 47<212 249 456 493> 644 47<439 439>
LayerCount: 2
Fore
SplineSet
31 776 m 0
 31 787 37 807 70 807 c 2
 691 807 l 2
 725 807 731 789 731 776 c 0
 731 764 725 747 691 746 c 1
 70 746 l 2
 35 746 31 767 31 776 c 0
39 0 m 1
 39 47 l 1
 39 47 l 1
 147 47 l 1
 147 633 l 1
 39 633 l 5
 39 633 l 1
 39 680 l 1
 660 680 l 1
 691 439 l 1
 644 439 l 1
 628 560 602 633 441 633 c 2
 289 633 l 1
 289 633 l 1
 289 376 l 1
 344 376 l 2
 441 376 450 419 450 493 c 1
 497 493 l 1
 497 212 l 1
 450 212 l 1
 450 286 440 329 344 329 c 2
 289 329 l 1
 289 47 l 1
 289 47 l 1
 441 47 l 2
 626 47 654 136 676 274 c 1
 723 274 l 1
 677 0 l 1
 39 0 l 1
EndSplineSet
EndChar
StartChar: emacron
Encoding: 275 275 346
Width: 527
Flags: W
HStem: -6 40<231.5 334.5 231.5 372> 218 33<160 399 160 462 160 399> 417 36<264.5 313.5 199 337.5> 543 52<71 486 71 486>
VStem: 399 95<251 251>
LayerCount: 2
Fore
SplineSet
71 543 m 1
 71 595 l 1
 486 595 l 1
 486 543 l 1
 71 543 l 1
32 225 m 0xf4
 32 350 119 453 279 453 c 0
 348 453 401 435 438 399 c 0
 488 349 494 276 494 245 c 0
 494 218 484 218 462 218 c 2
 160 218 l 1
 160 186 160 123 194 80 c 4
 215 53 248 34 302 34 c 0
 367 34 424 66 445 114 c 0
 451 130 453 135 470 135 c 0
 475 135 494 135 494 117 c 0
 494 100 451 -6 293 -6 c 0
 132 -6 32 91 32 225 c 0xf4
160 251 m 1
 399 251 l 1xf8
 398 286 396 417 279 417 c 0
 250 417 210 405 184 365 c 0
 163 332 162 290 160 251 c 1
EndSplineSet
EndChar
StartChar: Edotaccent
Encoding: 278 278 532
Width: 755
Flags: MW
LayerCount: 2
Fore
SplineSet
303 825 m 0
 303 864 335 902 381 902 c 0
 422 902 459 869 459 824 c 0
 459 786 427 747 381 747 c 0
 336 747 303 784 303 825 c 0
39 0 m 1
 39 47 l 1
 39 47 l 1
 147 47 l 1
 147 47 l 1
 147 633 l 1
 147 633 l 1
 39 633 l 1
 39 633 l 1
 39 680 l 1
 660 680 l 1
 691 439 l 1
 644 439 l 1
 628 560 602 633 441 633 c 2
 289 633 l 1
 289 633 l 1
 289 376 l 1
 344 376 l 2
 441 376 450 419 450 493 c 1
 497 493 l 1
 497 212 l 1
 450 212 l 1
 450 286 440 329 344 329 c 2
 289 329 l 1
 289 47 l 1
 289 47 l 1
 441 47 l 2
 626 47 654 136 676 274 c 1
 723 274 l 1
 677 0 l 1
 39 0 l 1
EndSplineSet
EndChar
StartChar: edotaccent
Encoding: 279 279 551
Width: 527
Flags: MW
LayerCount: 2
Fore
SplineSet
200 581 m 0
 200 620 232 658 278 658 c 0
 319 658 356 625 356 580 c 0
 356 542 324 503 278 503 c 0
 233 503 200 540 200 581 c 0
32 225 m 0
 32 350 119 453 279 453 c 0
 348 453 401 435 438 399 c 0
 488 349 494 276 494 245 c 0
 494 218 484 218 462 218 c 2
 160 218 l 1
 160 186 160 123 194 80 c 4
 215 53 248 34 302 34 c 0
 367 34 424 66 445 114 c 0
 451 130 453 135 470 135 c 0
 475 135 494 135 494 117 c 0
 494 100 451 -6 293 -6 c 0
 132 -6 32 91 32 225 c 0
160 251 m 1
 399 251 l 1
 398 286 396 417 279 417 c 0
 250 417 210 405 184 365 c 0
 163 332 162 290 160 251 c 1
EndSplineSet
EndChar
StartChar: Eogonek
Encoding: 280 280 481
Width: 755
Flags: MW
LayerCount: 2
Fore
SplineSet
39 0 m 1
 39 48 l 1
 39 48 l 1
 147 48 l 1
 147 633 l 1
 39 633 l 1
 39 633 l 1
 39 680 l 1
 661 680 l 1
 691 438 l 1
 644 438 l 1
 634 510 623 566 574 601 c 0
 536 629 487 633 418 633 c 2
 289 633 l 1
 289 633 l 1
 289 377 l 1
 339 377 l 2
 409.782639845 377 438.511840031 392.527423874 447.044147042 447 c 0
 449.119568403 460.250056282 450 475.804380746 450 494 c 1
 498 494 l 1
 498 212 l 1
 450 212 l 1
 450 212 l 1
 450 304 428 329 339 329 c 2
 289 329 l 1
 289 48 l 1
 289 48 l 1
 442 48 l 1
 569.573688063 50.1381065038 620.955719096 87.8323196217 649 163.978743841 c 0
 660.30494822 194.674178176 667.817554199 231.61802736 675 275 c 1
 723 275 l 1
 677 0 l 1
 606 0 l 2
 592.338828075 0 579.807754184 -6.45770305796 569.704128207 -15.9999994905 c 0
 554.661794153 -30.2066230247 545 -51.2503768797 545 -68 c 0
 545 -101 577 -137 610 -137 c 0
 635 -137 642 -116 658 -116 c 0
 663.698273634 -116 669.396547267 -118.689849193 673.999999706 -122.469424294 c 4
 679.898830159 -127.312544323 684 -133.94495867 684 -139 c 0
 684 -156 643 -205 580 -205 c 0
 528 -205 465 -167 465 -100 c 0
 465 -54 496 -21 518 0 c 1
 39 0 l 1
EndSplineSet
EndChar
StartChar: eogonek
Encoding: 281 281 494
Width: 527
Flags: MW
LayerCount: 2
Fore
SplineSet
31 225 m 0
 31 361 129 453 279 453 c 0
 452 453 494 335 494 245 c 0
 494 219 479 218 463 218 c 2
 159 218 l 1
 159 210 160 201 160 193 c 0
 162 151 168 109 197 77 c 0
 225 48 264 35 303 35 c 0
 365 35 420 65 443 113 c 0
 448 123 452 135 470 135 c 0
 480 135 492 131 492 116 c 0
 492 101 481 81 463 61 c 4
 451 47 435 34 417 24 c 0
 402 16 327 -14 327 -68 c 0
 327 -100 357 -137 392 -137 c 0
 416 -137 425 -116 440 -116 c 0
 448 -116 466 -126 466 -139 c 0
 466 -154 427 -205 363 -205 c 0
 307 -205 248 -164 248 -101 c 0
 248 -61 269 -32 294 -5 c 1
 291 -5 287 -5 284 -5 c 0
 116 0 31 102 31 225 c 0
159 251 m 1
 399 251 l 1
 397 289 394 343 362 380 c 0
 342 404 311 416 279 416 c 0
 239 416 204 397 184 365 c 0
 163 331 161 290 159 251 c 1
EndSplineSet
EndChar
StartChar: Ecaron
Encoding: 282 282 354
Width: 755
Flags: MW
LayerCount: 2
Fore
SplineSet
177 878 m 1
 189 904 l 5
 189 904 l 1
 330 864 340 861 347 861 c 0
 357 861 437 885 504 904 c 1
 516 878 l 1
 354 769 355 768 347 768 c 0
 333 768 307 793 177 878 c 1
39 0 m 1
 39 47 l 1
 39 47 l 1
 147 47 l 1
 147 47 l 1
 147 633 l 1
 147 633 l 1
 39 633 l 1
 39 633 l 1
 39 680 l 1
 660 680 l 1
 691 439 l 1
 644 439 l 1
 628 560 602 633 441 633 c 2
 289 633 l 1
 289 633 l 1
 289 376 l 1
 344 376 l 2
 441 376 450 419 450 493 c 1
 497 493 l 1
 497 212 l 1
 450 212 l 1
 450 286 440 329 344 329 c 2
 289 329 l 1
 289 47 l 1
 289 47 l 1
 441 47 l 2
 626 47 654 136 676 274 c 1
 723 274 l 1
 677 0 l 1
 39 0 l 1
EndSplineSet
EndChar
StartChar: ecaron
Encoding: 283 283 366
Width: 527
Flags: W
HStem: -6 40<225.984 385.659> 218 33<160 399> 417 36<220.144 341.11>
VStem: 32 128<127.175 218 251 323.446> 399 95<251 347.125> 445 49<83.4296 134.931>
LayerCount: 2
Fore
SplineSet
106 641 m 1x10
 106 642 l 1
 123 664 l 1
 124 664 l 1
 269 580 271 578 278 578 c 0
 291 578 336 610 432 664 c 1
 433 664 l 1
 451 642 l 1
 451 641 l 1
 279 470 l 1
 278 470 l 1
 106 641 l 1x10
32 225 m 0xf4
 32 350 119 453 279 453 c 0
 348 453 401 435 438 399 c 0
 488 349 494 276 494 245 c 0
 494 218 484 218 462 218 c 2
 160 218 l 1
 160 186 160 123 194 80 c 4
 215 53 248 34 302 34 c 0
 367 34 424 66 445 114 c 0
 451 130 453 135 470 135 c 0
 475 135 494 135 494 117 c 0
 494 100 451 -6 293 -6 c 0
 132 -6 32 91 32 225 c 0xf4
160 251 m 1
 399 251 l 1xf8
 398 286 396 417 279 417 c 0
 250 417 210 405 184 365 c 0
 163 332 162 290 160 251 c 1
EndSplineSet
EndChar
StartChar: Gbreve
Encoding: 286 286 533
Width: 904
Flags: W
HStem: -11 47<374.423 584.13> 0 21G<747.5 758> 229 44<479 623 765 845> 650 47<366.587 581.617> 755 63<372.855 566.901>
VStem: 64 153<219.261 468.247> 292 37<853.511 894> 611 37<853.687 894> 623 142<70.4648 229> 711 54<426.065 517.868>
LayerCount: 2
Fore
SplineSet
292 894 m 1
 329 894 l 1
 332 858 357 818 472 818 c 0
 532 818 605 831 611 894 c 1
 648 894 l 1xcf
 643 798 550 755 470 755 c 0
 385 755 296 800 292 894 c 1
64 343 m 0xba
 64 550 219 697 465 697 c 0
 517 697 589 687 662 629 c 1
 728 688 l 2
 736 695 738 697 747 697 c 0
 765 697 765 688 765 669 c 2
 765 454 l 2
 765 428 764 426 738 426 c 0
 715 426 714 428 711 447 c 0xba
 689 574 594 650 487 650 c 0
 391 650 314 613 274 563 c 1
 237 514 217 456 217 344 c 0
 217 253 230 182 273 127 c 0
 322 65 408 36 494 36 c 0
 526 36 558 42 584 57 c 0
 623 80 623 109 623 128 c 2
 623 229 l 1
 479 229 l 5
 479 229 l 1
 479 276 l 1
 533 273 626 273 684 273 c 0
 723 273 810 273 845 276 c 1
 845 229 l 1
 765 229 l 1xbc
 765 28 l 2
 765 13 765 0 751 0 c 0x7a
 744 0 684 26 653 53 c 1
 603 -9 500 -11 467 -11 c 0
 209 -11 64 144 64 343 c 0xba
EndSplineSet
EndChar
StartChar: gbreve
Encoding: 287 287 553
Width: 575
Flags: W
HStem: -201 36<181.556 391.738> -13 97<138.672 429.341> 154 36<195.661 313.012> 414 36<196.936 314.824 415.891 476> 494 62<195.396 374.976>
VStem: 32 86<-121.924 -27.5791> 56 111<229.322 374.137> 74 49<99.4492 179.401> 108 36<604.809 653> 343 111<230.081 374.589> 427 36<607.528 653> 456 86<-121.412 -37.8667> 472 86<359.139 416.763>
LayerCount: 2
Fore
SplineSet
108 653 m 1x0450
 144 653 l 1
 151 567 249 556 286 556 c 0
 322 556 421 567 427 653 c 1
 463 653 l 1
 459 548 369 494 286 494 c 0
 198 494 111 552 108 653 c 1x0450
32 -75 m 0xf980
 32 -12 105 9 118 12 c 1xf980
 78 44 74 93 74 108 c 0xf3
 74 129 80 162 108 197 c 1
 76 220 56 261 56 302 c 0xf5
 56 372 111 450 255 450 c 0
 329 450 371 429 389 417 c 1
 433 452 480 455 495 455 c 0
 541 455 558 420 558 397 c 0
 558 373 541 354 515 354 c 0
 489 354 472 372 472 397 c 0
 472 403 474 412 476 417 c 1
 474 417 471 416 468 416 c 4
 456 415 438 411 414 398 c 1
 429 382 454 349 454 302 c 0
 454 232 399 154 255 154 c 0
 230 154 179 156 133 180 c 1
 127 172 123 157 123 147 c 0xf340
 123 129 134 91 178 84 c 0
 183 83 229 83 255 83 c 0
 351 83 411 83 467 55 c 0
 534 21 542 -42 542 -72 c 0
 542 -142 464 -201 287 -201 c 0
 87 -201 32 -126 32 -75 c 0xf980
118 -73 m 0
 118 -119 167 -165 287 -165 c 0
 417 -165 456 -111 456 -75 c 0
 456 -13 343 -13 312 -13 c 2
 195 -13 l 2
 181 -13 118 -13 118 -73 c 0
167 302 m 0xf5
 167 257 167 190 255 190 c 0
 295 190 317 204 329 223 c 0
 343 246 343 278 343 302 c 0
 343 347 343 414 255 414 c 0
 221 414 200 404 187 389 c 0
 167 366 167 329 167 302 c 0xf5
EndSplineSet
EndChar
StartChar: Gdotaccent
Encoding: 288 288 535
Width: 904
Flags: MW
LayerCount: 2
Fore
SplineSet
389 825 m 0
 389 864 421 902 467 902 c 0
 508 902 545 869 545 824 c 0
 545 786 513 747 467 747 c 0
 422 747 389 784 389 825 c 0
64 343 m 0
 64 550 219 697 465 697 c 0
 517 697 589 687 662 629 c 1
 728 688 l 2
 736 695 738 697 747 697 c 0
 765 697 765 688 765 669 c 2
 765 454 l 2
 765 428 764 426 738 426 c 0
 715 426 714 428 711 447 c 0
 689 574 594 650 487 650 c 0
 391 650 314 613 274 563 c 1
 237 514 217 456 217 344 c 0
 217 253 230 182 273 127 c 0
 322 65 408 36 494 36 c 0
 526 36 558 42 584 57 c 0
 623 80 623 109 623 128 c 2
 623 229 l 1
 623 229 l 1
 479 229 l 1
 479 229 l 1
 479 276 l 1
 533 273 626 273 684 273 c 0
 723 273 810 273 845 276 c 1
 845 229 l 1
 765 229 l 1
 765 229 l 1
 765 28 l 2
 765 13 765 0 751 0 c 0
 744 0 684 26 653 53 c 1
 603 -9 500 -11 467 -11 c 0
 209 -11 64 144 64 343 c 0
EndSplineSet
EndChar
StartChar: gdotaccent
Encoding: 289 289 554
Width: 575
Flags: MW
LayerCount: 2
Fore
SplineSet
216 583 m 0
 216 622 248 660 294 660 c 0
 335 660 372 627 372 582 c 0
 372 544 340 505 294 505 c 0
 249 505 216 542 216 583 c 0
32 -75 m 0
 32 -12 105 9 118 12 c 1
 78 44 74 93 74 108 c 0
 74 129 80 162 108 197 c 1
 76 220 56 261 56 302 c 0
 56 372 111 450 255 450 c 0
 329 450 371 429 389 417 c 1
 433 452 480 455 495 455 c 0
 541 455 558 420 558 397 c 0
 558 373 541 354 515 354 c 0
 489 354 472 372 472 397 c 0
 472 403 474 412 476 417 c 1
 474 417 471 416 468 416 c 4
 456 415 438 411 414 398 c 1
 429 382 454 349 454 302 c 0
 454 232 399 154 255 154 c 0
 230 154 179 156 133 180 c 1
 127 172 123 157 123 147 c 0
 123 129 134 91 178 84 c 0
 183 83 229 83 255 83 c 0
 351 83 411 83 467 55 c 0
 534 21 542 -42 542 -72 c 0
 542 -142 464 -201 287 -201 c 0
 87 -201 32 -126 32 -75 c 0
118 -73 m 0
 118 -119 167 -165 287 -165 c 0
 417 -165 456 -111 456 -75 c 0
 456 -13 343 -13 312 -13 c 2
 195 -13 l 2
 181 -13 118 -13 118 -73 c 0
167 302 m 0
 167 257 167 190 255 190 c 0
 295 190 317 204 329 223 c 0
 343 246 343 278 343 302 c 0
 343 347 343 414 255 414 c 0
 221 414 200 404 187 389 c 0
 167 366 167 329 167 302 c 0
EndSplineSet
EndChar
StartChar: Gcommaaccent
Encoding: 290 290 534
Width: 903
Flags: W
HStem: -166.127 93.5996<417.846 490.044> -11 47<374.423 584.13> 0 21G<747.5 758> 229 44<479 623 765 845> 650 47<366.587 581.617>
VStem: 64 153<219.261 468.247> 490.285 22.2002<-200.672 -154.127> 623 142<70.4648 229> 711 54<426.065 517.868>
LayerCount: 2
Fore
SplineSet
64 343 m 0xba
 64 550 219 697 465 697 c 0
 517 697 589 687 662 629 c 1
 728 688 l 2
 736 695 738 697 747 697 c 0
 765 697 765 688 765 669 c 2
 765 454 l 2
 765 428 764 426 738 426 c 0
 715 426 714 428 711 447 c 0xba
 689 574 594 650 487 650 c 0
 391 650 314 613 274 563 c 1
 237 514 217 456 217 344 c 0
 217 253 230 182 273 127 c 0
 322 65 408 36 494 36 c 0
 526 36 558 42 584 57 c 0
 623 80 623 109 623 128 c 2
 623 229 l 1
 479 229 l 5
 479 229 l 1
 479 276 l 1
 533 273 626 273 684 273 c 0
 723 273 810 273 845 276 c 1
 845 229 l 1
 765 229 l 1xbc
 765 28 l 2
 765 13 765 0 751 0 c 0x7a
 744 0 684 26 653 53 c 1
 603 -9 500 -11 467 -11 c 0
 209 -11 64 144 64 343 c 0xba
411.084960938 -119.327148438 m 0
 411.084960938 -93.52734375 429.684570312 -72.52734375 457.28515625 -72.52734375 c 0
 492.084960938 -72.52734375 512.485351562 -106.7265625 512.485351562 -147.52734375 c 4
 512.485351562 -230.926757812 449.485351562 -282.52734375 440.485351562 -282.52734375 c 0
 435.684570312 -282.52734375 429.084960938 -276.52734375 429.084960938 -270.52734375 c 0
 429.084960938 -266.926757812 430.884765625 -265.126953125 434.485351562 -262.126953125 c 0
 447.084960938 -251.327148438 483.684570312 -221.327148438 490.28515625 -160.126953125 c 4
 490.28515625 -158.327148438 490.884765625 -155.926757812 490.884765625 -154.126953125 c 1
 490.28515625 -154.7265625 489.084960938 -155.926757812 487.28515625 -157.126953125 c 0
 481.884765625 -160.7265625 471.684570312 -166.126953125 457.884765625 -166.126953125 c 0
 427.28515625 -166.126953125 411.084960938 -143.327148438 411.084960938 -119.327148438 c 0
EndSplineSet
EndChar
StartChar: hbar
Encoding: 295 295 585
Width: 671
Flags: MW
LayerCount: 2
Fore
SplineSet
17 546 m 0
 17 569 35 570 47 570 c 2
 145 570 l 1
 145 592 l 2
 145 633 140 639 84 639 c 2
 75 639 l 1
 75 686 l 1
 254 695 l 1
 254 570 l 1
 389 570 l 2
 406 570 419 565 419 546 c 0
 419 522 399 522 390 522 c 2
 254 522 l 1
 254 352 l 1
 254 352 l 1
 273 386 322 450 424 450 c 0
 573 450 578 358 578 295 c 2
 578 48 l 1
 648 48 l 1
 648 48 l 1
 648 0 l 1
 607 2 565 3 524 3 c 0
 516 3 l 0
 467 3 431 1 394 0 c 1
 394 48 l 1
 394 48 l 1
 464 48 l 1
 464 311 l 2
 464 360 459 409 414 413 c 4
 412 413 409 413 407 413 c 0
 359 413 259 380 259 248 c 2
 259 48 l 1
 329 48 l 1
 329 48 l 1
 329 0 l 1
 290 2 251 3 212 3 c 0
 197 3 l 0
 148 3 112 1 75 0 c 1
 75 48 l 1
 75 48 l 1
 145 48 l 1
 145 522 l 1
 46 522 l 2
 29 522 17 527 17 546 c 0
EndSplineSet
EndChar
StartChar: Itilde
Encoding: 296 296 359
Width: 436
Flags: MW
LayerCount: 2
Fore
SplineSet
45 821 m 1
 89 874 113 905 157 905 c 0
 206 905 248 872 295 872 c 0
 322 872 340 883 363 905 c 1
 390 881 l 1
 345 828 324 797 278 797 c 0
 230 797 189 830 140 830 c 0
 111 830 94 818 73 797 c 1
 45 821 l 1
33 0 m 1
 33 47 l 1
 33 47 l 1
 147 47 l 1
 147 47 l 1
 147 639 l 1
 147 639 l 1
 33 639 l 1
 33 639 l 1
 33 686 l 1
 74 683 172 683 218 683 c 0
 264 683 362 683 403 686 c 1
 403 639 l 1
 403 639 l 1
 289 639 l 1
 289 639 l 1
 289 47 l 1
 289 47 l 1
 403 47 l 1
 403 47 l 1
 403 0 l 1
 362 3 264 3 218 3 c 0
 172 3 74 3 33 0 c 1
EndSplineSet
EndChar
StartChar: itilde
Encoding: 297 297 371
Width: 319
Flags: MW
LayerCount: 2
Fore
SplineSet
-1 579 m 1
 45 632 65 663 111 663 c 0
 159 663 201 631 249 631 c 0
 279 631 296 642 316 663 c 1
 344 640 l 1
 298 586 278 556 232 556 c 0
 183 556 143 588 94 588 c 0
 64 588 47 576 27 555 c 1
 -1 579 l 1
47 0 m 1
 47 47 l 1
 116 47 l 1
 116 47 l 1
 116 356 l 2
 116 395 109 395 50 395 c 1
 50 442 l 1
 224 450 l 1
 224 47 l 5
 224 47 l 1
 286 47 l 1
 286 0 l 1
 250 1 199 3 169 3 c 0
 127 3 78 1 47 0 c 1
EndSplineSet
EndChar
StartChar: Imacron
Encoding: 298 298 349
Width: 436
Flags: W
HStem: 0 47<33 147> 3 44 639 44 747 52<11 426 11 426>
VStem: 147 142<47 639 47 639>
LayerCount: 2
Fore
SplineSet
11 747 m 1x10
 11 799 l 1
 426 799 l 1
 426 747 l 1
 11 747 l 1x10
33 0 m 1
 33 47 l 1
 33 47 l 1
 147 47 l 1
 147 639 l 1
 33 639 l 1
 33 639 l 1
 33 686 l 1
 74 683 172 683 218 683 c 0
 264 683 362 683 403 686 c 1
 403 639 l 1
 403 639 l 5
 289 639 l 1
 289 47 l 1
 403 47 l 1
 403 47 l 1
 403 0 l 1
 362 3 264 3 218 3 c 0
 172 3 74 3 33 0 c 1
EndSplineSet
EndChar
StartChar: imacron
Encoding: 299 299 344
Width: 319
Flags: MW
LayerCount: 2
Fore
SplineSet
-41 542 m 1
 -41 594 l 1
 374 594 l 1
 374 542 l 1
 -41 542 l 1
47 0 m 1
 47 47 l 1
 116 47 l 1
 116 356 l 2
 116 395 109 395 50 395 c 1
 50 442 l 1
 224 450 l 1
 224 47 l 1
 286 47 l 1
 286 0 l 1
 250 1 199 3 169 3 c 0
 127 3 78 1 47 0 c 1
EndSplineSet
EndChar
StartChar: Iogonek
Encoding: 302 302 537
Width: 435
Flags: MW
LayerCount: 2
Fore
SplineSet
33 0 m 1
 33 47 l 1
 33 47 l 1
 147 47 l 1
 147 639 l 1
 33 639 l 1
 33 639 l 1
 33 686 l 1
 74 683 172 683 218 683 c 0
 264 683 362 683 403 686 c 1
 403 639 l 1
 403 639 l 1
 289 639 l 1
 289 47 l 1
 403 47 l 1
 403 47 l 1
 403 0 l 1
 371.638923587 2.29471290828 306.928367408 2.83419003942 257.649006935 2.96101882511 c 1
 233.144950835 -12.6006979649 207 -36.1171568656 207 -68 c 0
 207 -100 237 -137 272 -137 c 0
 296 -137 305 -116 320 -116 c 0
 328 -116 346 -126 346 -139 c 0
 346 -154 307 -205 243 -205 c 0
 187 -205 128 -164 128 -101 c 0
 128 -63.7741733586 147.054229826 -32.6110562071 181.132522112 2.96778660387 c 1
 131.533412232 2.8539847912 64.9547145604 2.33814984592 33 0 c 1
EndSplineSet
EndChar
StartChar: iogonek
Encoding: 303 303 555
Width: 318
Flags: W
HStem: -205 68<169.361 253.449> 0 47<47 116 224 286> 395 47<50 114.965> 430 20G<50 224> 539 156<102.215 209.399>
VStem: 70 79<-116.145 -33.7575> 78 156<563.215 670.785> 116 108<47 393.416>
LayerCount: 2
Fore
SplineSet
47 0 m 1
 47 47 l 1
 116 47 l 1
 116 356 l 2
 116 395 109 395 50 395 c 1
 50 442 l 1
 224 450 l 1
 224 47 l 1
 286 47 l 1
 286 0 l 1
 260.29579434 0.714005712766 226.944526313 1.9378155834 199.050306837 2.57942036857 c 1
 188.542439298 -4.14250169147 177.774949517 -12.324854667 168.932234836 -22 c 0
 157.301077593 -34.7260847795 149 -50.0348699749 149 -68 c 0
 149 -100 179 -137 214 -137 c 0
 238 -137 247 -116 262 -116 c 0
 270 -116 288 -126 288 -139 c 0
 288 -154 249 -205 185 -205 c 0
 129 -205 70 -164 70 -101 c 0
 70 -64.9056998398 89.5419775608 -27.9971506146 122.747982651 2.37821013591 c 1
 94.4823628261 1.70617605916 66.9964233329 0.645045914065 47 0 c 1
78 617 m 0
 78 660 113 695 156 695 c 0
 198 695 234 661 234 617 c 0
 234 573 198 539 156 539 c 0
 113 539 78 574 78 617 c 0
EndSplineSet
EndChar
StartChar: Idotaccent
Encoding: 304 304 536
Width: 436
Flags: W
HStem: 0 47<33 147 289 403> 639 44<33 147 289 403> 782 155<164.792 271.012>
VStem: 140 156<806.988 912.208> 147 142<47 639>
LayerCount: 2
Fore
SplineSet
140 860 m 0x10
 140 899 172 937 218 937 c 0
 259 937 296 904 296 859 c 0
 296 821 264 782 218 782 c 0
 173 782 140 819 140 860 c 0x10
33 0 m 1
 33 47 l 1
 33 47 l 1
 147 47 l 1
 147 639 l 1
 33 639 l 1
 33 639 l 1
 33 686 l 1
 74 683 172 683 218 683 c 0
 264 683 362 683 403 686 c 1
 403 639 l 1
 403 639 l 5
 289 639 l 1
 289 47 l 1
 403 47 l 1
 403 47 l 1
 403 0 l 1
 362 3 264 3 218 3 c 0
 172 3 74 3 33 0 c 1
EndSplineSet
EndChar
StartChar: dotlessi
Encoding: 305 305 136
Width: 319
Flags: W
HStem: 0 47<47 116> 3 44<47 184> 395 47<50 79.5>
VStem: 116 108<47 356 356 375.5>
LayerCount: 2
Fore
SplineSet
47 0 m 1xb0
 47 47 l 1
 116 47 l 1
 116 356 l 2
 116 395 109 395 50 395 c 1
 50 442 l 1
 224 450 l 1
 224 47 l 1
 286 47 l 1
 286 0 l 1xb0
 250 1 199 3 169 3 c 0x70
 127 3 78 1 47 0 c 1xb0
EndSplineSet
EndChar
StartChar: IJ
Encoding: 306 306 522
Width: 1011
Flags: W
HStem: -11 37<546.526 683.96> 0 47<33 147 289 403> 638 48<33 147 289 403 585 726 863 944>
VStem: 147 142<47 639> 438 154<62.4062 167.796> 726 137<74.7666 638>
LayerCount: 2
Fore
SplineSet
438 113 m 0x96
 438 162 475 191 514 191 c 0
 557 191 592 160 592 114 c 0
 592 94.1215592376 584.831702365 64.3867092268 550.138738536 46.0000005492 c 0
 548.181330783 44.9626061573 546.13630331 43.9613364894 544 43 c 1
 568 34 594 26 627 26 c 0
 681 26 707 60 718 90 c 0
 726 113 726 136 726 160 c 2
 726 638 l 1
 585 638 l 1
 585 638 l 1x96
 585 686 l 1
 653 684 722 683 790 683 c 0x0e
 852 683 898 684 944 686 c 1
 944 638 l 1
 944 638 l 1
 863 638 l 1
 863 153 l 2
 863 131.632595702 859.433299537 112.812834592 853.000000862 96.2882988512 c 0
 821.196136037 14.5970658544 719.334035817 -11 632 -11 c 0
 515 -11 438 39 438 113 c 0x96
33 0 m 1x4c
 33 47 l 1
 33 47 l 1
 147 47 l 1
 147 639 l 1
 33 639 l 1
 33 639 l 1
 33 686 l 1
 74 683 172 683 218 683 c 0
 264 683 362 683 403 686 c 1
 403 639 l 1
 403 639 l 1
 289 639 l 1
 289 47 l 1
 403 47 l 1
 403 47 l 1
 403 0 l 1x4c
 362 3 264 3 218 3 c 0x2c
 172 3 74 3 33 0 c 1x4c
EndSplineSet
EndChar
StartChar: ij
Encoding: 307 307 526
Width: 671
Flags: W
HStem: -200 37<380.53 455.327> 0 47<66 135 243 305> 394 48<69 134.151 409 483.868> 430 20G<69 243 409 594> 539 155<121.395 227.536 463.189 569.012>
VStem: 97 155<563.395 669.755> 135 108<47 393.416> 279 125<-156.403 -61.2435> 438 156<563.988 668.803> 485 109<-121.378 390.933>
LayerCount: 2
Fore
SplineSet
279 -109 m 0
 279 -71 307 -46 342 -46 c 0
 374 -46 404 -71 404 -109 c 0
 404 -139 384 -155 380 -159 c 1
 396 -162 407 -163 415 -163 c 0
 463 -163 480 -109 483 -75 c 0
 485 -61 485 -46 485 -32 c 2
 485 360 l 2
 485 388 474 394 421 394 c 2
 409 394 l 1
 409 442 l 1
 594 450 l 1
 594 -29 l 2x94a0
 594 -75 587 -106 560 -138 c 0
 530 -174 478 -200 416 -200 c 0
 336 -200 279 -164 279 -109 c 0
438 617 m 0x84c0
 438 663 478 694 516 694 c 0
 557 694 594 661 594 616 c 0
 594 578 562 539 516 539 c 0
 472 539 438 576 438 617 c 0x84c0
66 0 m 1x49
 66 47 l 1
 66 47 l 1
 135 47 l 1
 135 356 l 2
 135 395 128 395 69 395 c 1
 69 442 l 1
 243 450 l 1
 243 47 l 1
 305 47 l 1
 305 47 l 1
 305 0 l 1x49
 269 1 218 3 188 3 c 0x29
 146 3 97 1 66 0 c 1x49
97 617 m 0x8680
 97 656 129 694 175 694 c 0
 216 694 252 662 252 617 c 0
 252 574 218 539 175 539 c 0
 135 539 97 571 97 617 c 0x8680
EndSplineSet
EndChar
StartChar: Jcircumflex
Encoding: 308 308 507
Width: 594
Flags: MW
LayerCount: 2
Fore
SplineSet
189 783 m 1
 348 931 l 1
 349 931 l 1
 507 783 l 1
 476 747 l 1
 349 849 l 1
 348 849 l 1
 220 747 l 1
 189 783 l 1
23 114 m 0
 23 166 63 191 100 191 c 0
 133 191 176 168 176 114 c 0
 176 61 130 42 130 42 c 1
 161 28 194 25 211 25 c 0
 310 25 310 130 310 149 c 2
 310 639 l 1
 169 639 l 5
 169 639 l 1
 169 686 l 1
 217 683 315 683 368 683 c 0
 407 683 492 683 527 686 c 1
 527 639 l 1
 446 639 l 1
 446 150 l 2
 446 138 444 126 442 115 c 0
 422 33 334 -11 216 -11 c 0
 102 -11 23 37 23 114 c 0
EndSplineSet
EndChar
StartChar: jcircumflex
Encoding: 309 309 513
Width: 351
Flags: MW
LayerCount: 2
Fore
SplineSet
27 543 m 1
 186 691 l 1
 187 691 l 1
 345 543 l 1
 314 507 l 1
 187 609 l 1
 186 609 l 1
 58 507 l 1
 27 543 l 1
-56 -109 m 0
 -56 -73 -31 -46 7 -46 c 0
 43 -46 69 -73 69 -108 c 0
 69 -123 64 -144 45 -158 c 1
 60 -162 68 -164 84 -164 c 0
 144 -164 159 -92 159 -42 c 2
 159 355 l 2
 159 376 159 389 137 393 c 0
 122 395 100 395 83 395 c 1
 83 442 l 1
 267 450 l 1
 267 -42 l 2
 267 -148 172 -200 86 -200 c 0
 4 -200 -56 -166 -56 -109 c 0
EndSplineSet
EndChar
StartChar: Kcommaaccent
Encoding: 310 310 538
Width: 900
Flags: MW
LayerCount: 2
Fore
SplineSet
399 -119 m 0
 399 -93 418 -73 446 -73 c 0
 481 -73 501 -107 501 -148 c 0
 501 -231 438 -283 429 -283 c 0
 424 -283 417 -277 417 -271 c 0
 417 -267 419 -265 423 -262 c 0
 436 -251 471 -221 478 -160 c 4
 478 -158 479 -156 479 -154 c 1
 478 -155 478 -156 476 -157 c 0
 471 -161 460 -166 446 -166 c 0
 415 -166 399 -143 399 -119 c 0
39 0 m 1
 39 47 l 1
 39 47 l 1
 147 47 l 1
 147 639 l 1
 39 639 l 1
 39 639 l 1
 39 686 l 1
 77 683 175 683 218 683 c 0
 261 683 359 683 397 686 c 1
 397 639 l 1
 397 639 l 5
 289 639 l 1
 289 319 l 1
 659 628 l 1
 650 631 662 630 646 634 c 0
 621 639 601 639 588 639 c 1
 588 686 l 1
 624 683 696 683 734 683 c 0
 739 683 796 683 836 686 c 1
 836 639 l 1
 819 639 l 2
 789 639 747 639 725 621 c 2
 485 421 l 1
 755 67 l 2
 767 51 770 47 823 47 c 2
 852 47 l 1
 852 0 l 1
 815 3 746 3 706 3 c 0
 661 3 571 3 530 0 c 1
 530 47 l 1
 565 47 585 47 603 55 c 1
 600 61 600 63 595 69 c 2
 389 340 l 1
 289 257 l 1
 289 47 l 1
 397 47 l 1
 397 47 l 1
 397 0 l 1
 359 3 261 3 218 3 c 0
 175 3 77 3 39 0 c 1
EndSplineSet
EndChar
StartChar: kcommaaccent
Encoding: 311 311 556
Width: 605
Flags: MW
LayerCount: 2
Fore
SplineSet
256 -128 m 0
 256 -102 274 -82 302 -82 c 0
 337 -82 358 -116 358 -157 c 0
 358 -240 295 -292 286 -292 c 0
 281 -292 274 -286 274 -280 c 0
 274 -276 276 -274 280 -271 c 0
 293 -260 328 -230 335 -169 c 4
 335 -167 336 -165 336 -163 c 1
 335 -164 334 -165 332 -166 c 0
 327 -170 317 -175 303 -175 c 0
 272 -175 256 -152 256 -128 c 0
37 0 m 1
 37 47 l 1
 106 47 l 1
 106 47 l 1
 106 600 l 2
 106 639 99 639 37 639 c 1
 37 686 l 1
 214 694 l 1
 214 237 l 1
 403 386 l 1
 403 386 l 1
 395 394 392 397 369 397 c 1
 369 444 l 1
 392 443 457 441 484 441 c 0
 510 441 535 441 562 444 c 1
 562 397 l 1
 495 397 486 390 472 379 c 2
 342 278 l 1
 342 278 l 1
 511 67 l 2
 524 51 527 47 570 47 c 2
 587 47 l 1
 587 0 l 1
 553 2 519 3 483 3 c 0
 478 3 391 2 361 0 c 1
 361 47 l 1
 374 47 392 47 392 56 c 0
 392 59 376 79 367 91 c 2
 266 217 l 1
 246 203 238 197 209 174 c 1
 209 47 l 5
 209 47 l 1
 278 47 l 1
 278 0 l 1
 242 1 194 3 157 3 c 0
 121 3 74 1 37 0 c 1
EndSplineSet
EndChar
StartChar: kra
Encoding: 312 312 527
Width: 611
Flags: W
HStem: 0 39<25 103 210 288 502.616 592> 197 41<210 268.078> 303 127<463.258 556.063> 392 38<25 103 210 288>
VStem: 103 107<39 197 238 392> 448 127<318.479 389.34>
LayerCount: 2
Fore
SplineSet
25 0 m 1
 25 39 l 1
 103 39 l 1
 103 392 l 1
 25 392 l 1
 25 430 l 1
 58 429 131 428 156 428 c 0
 182 428 255 429 288 430 c 1
 288 392 l 1
 210 392 l 1
 210 238 l 1
 232 238 l 2
 279 238 333 359 363 394 c 0
 383 417 420 430 453 430 c 0
 548 430 575 406 575 368 c 0
 575 320 546 303 512 303 c 0
 470 303 448 337 448 367 c 0
 448 378.736834945 451.124838439 385.851513032 455.813139855 389.938630478 c 1
 453.114953987 389.212697433 450.524508883 388.270756435 448 387.075647889 c 4
 436.604795322 381.68113073 426.553018973 371.128409864 414 352 c 0
 381 301 357 251 357 251 c 1
 522 37 498 39 557 39 c 2
 592 39 l 1
 592 0 l 1
 567 2 523 3 498 3 c 0
 493 3 451 0 446 0 c 0
 423 0 421 10 392 46 c 0
 370 73 360 86 279 196 c 1
 210 197 l 1
 210 39 l 1
 288 39 l 1
 288 0 l 1
 255 1 183 3 157 3 c 0
 132 3 58 1 25 0 c 1
EndSplineSet
EndChar
StartChar: Lacute
Encoding: 313 313 478
Width: 691
Flags: MW
LayerCount: 2
Fore
SplineSet
91 778 m 1
 231 867 240 875 262 875 c 0
 296 875 318 842 318 812 c 0
 318 760 267 758 234 753 c 0
 204.333333333 748.055555556 174.666666667 743.111111111 145 738.519084912 c 4
 108 733 l 1
 91 778 l 1
39 0 m 1
 39 47 l 1
 39 47 l 1
 147 47 l 1
 147 639 l 1
 39 639 l 1
 39 639 l 1
 39 686 l 1
 77 683 178 683 222 683 c 0
 271 683 380 683 424 686 c 1
 424 639 l 1
 424 639 l 1
 289 639 l 1
 289 47 l 1
 289 47 l 1
 392 47 l 2
 571 47 588 205 596 274 c 1
 643 274 l 1
 612 0 l 1
 39 0 l 1
EndSplineSet
EndChar
StartChar: lacute
Encoding: 314 314 491
Width: 319
Flags: MW
LayerCount: 2
Fore
SplineSet
114 778 m 1
 270 877 265 875 284 875 c 2
 285 875 l 2
 317 875 341 843 341 812 c 0
 341 760 290 757 257 752 c 0
 230.748064874 748.249723553 204.496129748 744.108764512 178 740.06551212 c 4
 162.105447153 737.640037553 146.1230188 735.249723553 130 733 c 1
 114 778 l 1
47 0 m 1
 47 47 l 1
 116 47 l 1
 116 600 l 2
 116 639 109 639 47 639 c 1
 47 686 l 1
 224 694 l 1
 224 47 l 1
 293 47 l 1
 293 0 l 1
 259 1 213 3 170 3 c 0
 127 3 79 1 47 0 c 1
EndSplineSet
EndChar
StartChar: Lcommaaccent
Encoding: 315 315 540
Width: 690
Flags: MW
LayerCount: 2
Fore
SplineSet
318.299804688 -119.327148438 m 0
 318.299804688 -93.52734375 336.899414062 -72.52734375 364.5 -72.52734375 c 0
 399.299804688 -72.52734375 419.700195312 -106.7265625 419.700195312 -147.52734375 c 0
 419.700195312 -230.926757812 356.700195312 -282.52734375 347.700195312 -282.52734375 c 0
 342.899414062 -282.52734375 336.299804688 -276.52734375 336.299804688 -270.52734375 c 0
 336.299804688 -266.926757812 338.099609375 -265.126953125 341.700195312 -262.126953125 c 0
 354.299804688 -251.327148438 390.899414062 -221.327148438 397.5 -160.126953125 c 4
 397.5 -158.327148438 398.099609375 -155.926757812 398.099609375 -154.126953125 c 1
 397.5 -154.7265625 396.299804688 -155.926757812 394.5 -157.126953125 c 0
 389.099609375 -160.7265625 378.899414062 -166.126953125 365.099609375 -166.126953125 c 0
 334.5 -166.126953125 318.299804688 -143.327148438 318.299804688 -119.327148438 c 0
39 0 m 1
 39 47 l 1
 39 47 l 1
 147 47 l 1
 147 639 l 1
 39 639 l 1
 39 639 l 1
 39 686 l 1
 77 683 178 683 222 683 c 0
 271 683 380 683 424 686 c 1
 424 639 l 1
 424 639 l 5
 289 639 l 1
 289 47 l 1
 289 47 l 1
 392 47 l 2
 571 47 588 205 596 274 c 1
 643 274 l 1
 612 0 l 1
 39 0 l 1
EndSplineSet
EndChar
StartChar: lcommaaccent
Encoding: 316 316 558
Width: 318
Flags: MW
LayerCount: 2
Fore
SplineSet
108 -119 m 0
 108 -93 126 -73 154 -73 c 0
 189 -73 210 -107 210 -148 c 0
 210 -231 147 -283 138 -283 c 0
 133 -283 126 -277 126 -271 c 0
 126 -267 128 -265 132 -262 c 0
 145 -251 181 -221 188 -160 c 4
 188 -158 188 -156 188 -154 c 1
 187 -155 186 -156 184 -157 c 0
 179 -161 169 -166 155 -166 c 0
 124 -166 108 -143 108 -119 c 0
47 0 m 1
 47 47 l 1
 116 47 l 1
 116 600 l 2
 116 639 109 639 47 639 c 1
 47 686 l 1
 224 694 l 1
 224 47 l 1
 293 47 l 1
 293 0 l 1
 259 1 213 3 170 3 c 0
 127 3 79 1 47 0 c 1
EndSplineSet
EndChar
StartChar: Lcaron
Encoding: 317 317 460
Width: 691
Flags: MW
LayerCount: 2
Fore
SplineSet
385 746 m 0
 385 789 416 824 462 824 c 0
 508 824 557 787 557 720 c 0
 557 607 459 540 435 540 c 0
 426 540 417 550 417 559 c 0
 417 571 441 578 467 601 c 4
 486 618 506 645 517 689 c 1
 500 675 485 669 463 669 c 0
 417 669 385 704 385 746 c 0
39 0 m 1
 39 47 l 1
 39 47 l 1
 147 47 l 1
 147 639 l 1
 39 639 l 1
 39 639 l 1
 39 686 l 1
 77 683 178 683 222 683 c 0
 271 683 380 683 424 686 c 1
 424 639 l 1
 424 639 l 1
 289 639 l 1
 289 47 l 1
 289 47 l 1
 392 47 l 2
 571 47 588 205 596 274 c 1
 643 274 l 1
 612 0 l 1
 39 0 l 1
EndSplineSet
EndChar
StartChar: lcaron
Encoding: 318 318 468
Width: 502
Flags: MW
LayerCount: 2
Fore
SplineSet
270 676 m 0
 270 719 301 754 347 754 c 0
 393 754 442 717 442 650 c 0
 442 537 343 470 320 470 c 0
 311 470 301 480 301 489 c 0
 301 499 319 506 341 522 c 4
 363 539 389 566 402 619 c 1
 385 605 369 599 348 599 c 0
 301 599 270 634 270 676 c 0
47 0 m 1
 47 47 l 1
 116 47 l 1
 116 600 l 2
 116 639 109 639 47 639 c 1
 47 686 l 1
 224 694 l 1
 224 47 l 1
 293 47 l 1
 293 0 l 1
 259 1 213 3 170 3 c 0
 127 3 79 1 47 0 c 1
EndSplineSet
EndChar
StartChar: Ldot
Encoding: 319 319 523
Width: 690
Flags: MW
LayerCount: 2
Fore
SplineSet
39 0 m 1
 39 47 l 1
 39 47 l 1
 147 47 l 1
 147 639 l 1
 39 639 l 1
 39 639 l 1
 39 686 l 1
 77 683 178 683 222 683 c 0
 271 683 380 683 424 686 c 1
 424 639 l 1
 424 639 l 5
 289 639 l 1
 289 47 l 1
 289 47 l 1
 392 47 l 2
 571 47 588 205 596 274 c 1
 643 274 l 1
 612 0 l 1
 39 0 l 1
381 348.5 m 0
 381 395.5 421 426.5 459 426.5 c 0
 500 426.5 537 393.5 537 348.5 c 4
 537 309.5 505 270.5 459 270.5 c 0
 418 270.5 381 303.5 381 348.5 c 0
EndSplineSet
EndChar
StartChar: ldot
Encoding: 320 320 528
Width: 485
Flags: W
HStem: 0 47<47 116 224 293> 158 156<317.988 424.012> 639 47<47 114.945> 674 20G<47 224>
VStem: 116 108<47 637.19> 293 156<182.792 288.64>
LayerCount: 2
Fore
SplineSet
47 0 m 1xb0
 47 47 l 1
 116 47 l 1
 116 600 l 2
 116 639 109 639 47 639 c 1
 47 686 l 1xd0
 224 694 l 1
 224 47 l 1
 293 47 l 1
 293 0 l 1
 259 1 213 3 170 3 c 0
 127 3 79 1 47 0 c 1xb0
293 236 m 0
 293 283 333 314 371 314 c 0
 412 314 449 281 449 236 c 4
 449 197 417 158 371 158 c 0
 330 158 293 191 293 236 c 0
EndSplineSet
EndChar
StartChar: Lslash
Encoding: 321 321 131
Width: 691
Flags: MW
LayerCount: 2
Fore
SplineSet
39 0 m 1
 39 48 l 1
 39 48 l 1
 147 48 l 1
 147 275 l 1
 78 224 l 1
 50 263 l 1
 153 339 147 331 147 349 c 2
 147 638 l 1
 39 638 l 1
 39 638 l 1
 39 686 l 1
 110 684 163 683 216 683 c 0
 285 683 355 684 425 686 c 1
 425 638 l 1
 425 638 l 1
 289 638 l 1
 289 439 l 1
 453 559 l 1
 481 520 l 1
 366.933485732 436.276302336 320.750236785 404.017591868 302 388.27343056 c 6
 287.381126737 375.998284309 289.438095989 373.761919777 289 365 c 1
 289 48 l 1
 289 48 l 1
 383 48 l 2
 556 48 582 166 595 275 c 1
 643 275 l 1
 613 0 l 1
 39 0 l 1
EndSplineSet
EndChar
StartChar: lslash
Encoding: 322 322 137
Width: 386
Flags: MW
LayerCount: 2
Fore
SplineSet
65 286 m 1
 147 346 l 1
 147 600 l 2
 147 632 140 638 86 638 c 2
 78 638 l 1
 78 686 l 1
 256 694 l 1
 256 426 l 1
 324 476 l 1
 352 437 l 1
 256 367 l 1
 256 48 l 1
 325 48 l 1
 325 48 l 1
 325 0 l 1
 283 2 240 3 197 3 c 0
 149 3 113 1 78 0 c 1
 78 48 l 1
 78 48 l 1
 147 48 l 1
 147 287 l 1
 93 247 l 1
 65 286 l 1
EndSplineSet
EndChar
StartChar: Nacute
Encoding: 323 323 483
Width: 900
Flags: MW
LayerCount: 2
Fore
SplineSet
346 778 m 1
 502 877 497 875 516 875 c 2
 517 875 l 2
 549 875 573 843 573 812 c 0
 573 760 522 757 489 752 c 0
 463 748 438 744 412 740 c 4
 395 737 379 735 362 733 c 1
 346 778 l 1
39 0 m 1
 39 47 l 1
 64 47 l 2
 92 47 94 47 118 50 c 0
 146 53 147 54 147 76 c 2
 147 639 l 1
 147 639 l 5
 39 639 l 1
 39 639 l 1
 39 686 l 1
 268 686 l 2
 289 686 290 685 301 673 c 2
 699 205 l 1
 699 610 l 2
 699 632 698 633 669 636 c 0
 651 638 634 639 616 639 c 2
 591 639 l 1
 591 686 l 1
 632 683 684 683 726 683 c 0
 765 683 822 683 860 686 c 1
 860 639 l 1
 835 639 l 2
 807 639 805 639 781 636 c 0
 753 633 752 632 752 610 c 2
 752 32 l 2
 752 9 752 0 725 0 c 0
 709 0 708 1 698 13 c 2
 200 599 l 1
 200 599 l 1
 200 76 l 2
 200 54 201 53 230 50 c 0
 248 48 265 47 283 47 c 2
 308 47 l 1
 308 0 l 1
 267 3 215 3 173 3 c 0
 134 3 77 3 39 0 c 1
EndSplineSet
EndChar
StartChar: nacute
Encoding: 324 324 497
Width: 638
Flags: W
HStem: 0 47<45 114 228 297 363 432 546 615> 395 47<45 112.945> 414 36<309.565 415.454>
VStem: 114 114<47 340.945> 114 103<342 393.19> 432 114<47 396.655>
LayerCount: 2
Fore
SplineSet
254 535 m 1x09
 382 653 387 662 414 662 c 0
 446 662 472 630 472 599 c 0
 472 553.759095439 433.382274614 546.407279937 335 513.504081968 c 4
 318.126830339 507.860979652 299.495723802 501.466299385 279 494 c 1
 254 535 l 1x09
45 0 m 1xb4
 45 47 l 1
 114 47 l 1xb4
 114 356 l 2
 114 395 107 395 45 395 c 1
 45 442 l 1xcc
 217 450 l 1
 217 342 l 1xac
 243 393 296 450 392 450 c 0
 444 450 484 439 510 414 c 0
 534 391 546 356 546 306 c 2
 546 47 l 1
 615 47 l 1
 615 0 l 1
 587 1 528 3 489 3 c 0
 451 3 391 1 363 0 c 1
 363 47 l 1
 432 47 l 1
 432 317 l 2
 432 393 411 414 377 414 c 0
 314 414 228 365 228 256 c 2
 228 47 l 1
 297 47 l 1
 297 0 l 1
 269 1 210 3 171 3 c 0
 133 3 73 1 45 0 c 1xb4
EndSplineSet
EndChar
StartChar: Ncommaaccent
Encoding: 325 325 541
Width: 899
Flags: MW
LayerCount: 2
Fore
SplineSet
399 -119 m 0
 399 -93 417 -73 445 -73 c 0
 480 -73 500 -107 500 -148 c 0
 500 -231 437 -283 428 -283 c 0
 423 -283 417 -277 417 -271 c 0
 417 -267 418 -265 422 -262 c 0
 435 -251 471 -221 478 -160 c 4
 478 -158 479 -156 479 -154 c 1
 478 -155 477 -156 475 -157 c 0
 470 -161 460 -166 446 -166 c 0
 415 -166 399 -143 399 -119 c 0
39 0 m 1
 39 47 l 1
 64 47 l 2
 92 47 94 47 118 50 c 0
 146 53 147 54 147 76 c 2
 147 639 l 1
 147 639 l 5
 39 639 l 1
 39 639 l 1
 39 686 l 1
 268 686 l 2
 289 686 290 685 301 673 c 2
 699 205 l 1
 699 610 l 2
 699 632 698 633 669 636 c 0
 651 638 634 639 616 639 c 2
 591 639 l 1
 591 686 l 1
 632 683 684 683 726 683 c 0
 765 683 822 683 860 686 c 1
 860 639 l 1
 835 639 l 2
 807 639 805 639 781 636 c 0
 753 633 752 632 752 610 c 2
 752 32 l 2
 752 9 752 0 725 0 c 0
 709 0 708 1 698 13 c 2
 200 599 l 1
 200 599 l 1
 200 76 l 2
 200 54 201 53 230 50 c 0
 248 48 265 47 283 47 c 2
 308 47 l 1
 308 0 l 1
 267 3 215 3 173 3 c 0
 134 3 77 3 39 0 c 1
EndSplineSet
EndChar
StartChar: ncommaaccent
Encoding: 326 326 559
Width: 637
Flags: MW
LayerCount: 2
Fore
SplineSet
268 -119 m 0
 268 -93 286 -73 314 -73 c 0
 349 -73 369 -107 369 -148 c 0
 369 -231 306 -283 297 -283 c 0
 292 -283 286 -277 286 -271 c 0
 286 -267 287 -265 291 -262 c 0
 304 -251 340 -221 347 -160 c 4
 347 -158 348 -156 348 -154 c 1
 347 -155 346 -156 344 -157 c 0
 339 -161 329 -166 315 -166 c 0
 284 -166 268 -143 268 -119 c 0
45 0 m 1
 45 47 l 1
 114 47 l 1
 114 47 l 1
 114 356 l 2
 114 395 107 395 45 395 c 1
 45 442 l 1
 217 450 l 1
 217 342 l 1
 243 393 296 450 392 450 c 0
 444 450 484 439 510 414 c 0
 534 391 546 356 546 306 c 2
 546 47 l 1
 615 47 l 1
 615 0 l 1
 587 1 528 3 489 3 c 0
 451 3 391 1 363 0 c 1
 363 47 l 1
 432 47 l 1
 432 47 l 1
 432 317 l 2
 432 393 411 414 377 414 c 0
 314 414 228 365 228 256 c 2
 228 47 l 1
 228 47 l 1
 297 47 l 1
 297 0 l 1
 269 1 210 3 171 3 c 0
 133 3 73 1 45 0 c 1
EndSplineSet
EndChar
StartChar: ncaron
Encoding: 328 328 498
Width: 638
Flags: MW
LayerCount: 2
Fore
SplineSet
126 641 m 1
 126 642 l 1
 143 664 l 1
 144 664 l 1
 289 580 291 578 298 578 c 0
 311 578 356 610 452 664 c 1
 453 664 l 1
 471 642 l 1
 471 641 l 1
 299 470 l 1
 298 470 l 1
 126 641 l 1
45 0 m 1
 45 47 l 1
 114 47 l 1
 114 356 l 2
 114 395 107 395 45 395 c 1
 45 442 l 1
 217 450 l 1
 217 342 l 1
 243 393 296 450 392 450 c 0
 444 450 484 439 510 414 c 4
 534 391 546 356 546 306 c 2
 546 47 l 1
 615 47 l 1
 615 0 l 1
 587 1 528 3 489 3 c 0
 451 3 391 1 363 0 c 1
 363 47 l 1
 432 47 l 1
 432 317 l 2
 432 393 411 414 377 414 c 0
 314 414 228 365 228 256 c 2
 228 47 l 1
 297 47 l 1
 297 0 l 1
 269 1 210 3 171 3 c 0
 133 3 73 1 45 0 c 1
EndSplineSet
EndChar
StartChar: napostrophe
Encoding: 329 329 529
Width: 669
Flags: W
HStem: 0 47<77 146 260 329 395 464 578 647> 395 47<77 144.945> 414 36<341.565 447.454> 631 105<24.5153 110.21>
VStem: 111 23<597.068 652> 146 114<47 340.945> 146 103<342 393.19> 464 114<47 396.655>
LayerCount: 2
Fore
SplineSet
15 683 m 0x99
 15 709 32 736 68 736 c 0
 105 736 134 700 134 651 c 0
 134 561 58 503 42 503 c 0
 39 503 31 505 31 513 c 0
 31 524 48 525 74 555 c 0
 97 582 111 616 111 652 c 1
 105 646 93 631 67 631 c 0
 38 631 15 652 15 683 c 0x99
77 0 m 1xb4
 77 47 l 1
 146 47 l 1xb4
 146 356 l 2
 146 395 139 395 77 395 c 1
 77 442 l 1xcc
 249 450 l 1
 249 342 l 1xac
 275 393 328 450 424 450 c 0
 476 450 516 439 542 414 c 0
 566 391 578 356 578 306 c 2
 578 47 l 1
 647 47 l 1
 647 0 l 1
 619 1 560 3 521 3 c 0
 483 3 423 1 395 0 c 1
 395 47 l 1
 464 47 l 1
 464 317 l 2
 464 393 443 414 409 414 c 0
 346 414 260 365 260 256 c 2
 260 47 l 1
 329 47 l 1
 329 0 l 1
 301 1 242 3 203 3 c 0
 165 3 105 1 77 0 c 1xb4
EndSplineSet
EndChar
StartChar: Eng
Encoding: 330 330 524
Width: 899
Flags: W
HStem: -200 36<438.422 618.13> 0 47<39 146.902 200.1 308> 639 47<39 147 591 698.9 752.098 860>
VStem: 147 53<50.9428 599> 329 153<-129.789 -20.7575> 699 53<-101.962 31.3125 205 635.057>
LayerCount: 2
Fore
SplineSet
39 0 m 1
 39 47 l 1
 64 47 l 2
 92 47 94 47 118 50 c 0
 146 53 147 54 147 76 c 2
 147 639 l 1
 147 639 l 1
 39 639 l 1
 39 639 l 1
 39 686 l 1
 268 686 l 2
 289 686 290 685 301 673 c 2
 699 205 l 1
 699 610 l 2
 699 632 698 633 669 636 c 0
 651 638 634 639 616 639 c 2
 591 639 l 1
 591 686 l 1
 632 683 684 683 726 683 c 0
 765 683 822 683 860 686 c 1
 860 639 l 1
 835 639 l 2
 807 639 805 639 781 636 c 0
 753 633 752 632 752 610 c 2
 752 32 l 1
 752 -39 l 2
 752 -51 750 -63 748 -74 c 0
 728 -156 640 -200 522 -200 c 0
 408 -200 329 -152 329 -75 c 0
 329 -23 369 2 406 2 c 0
 439 2 482 -21 482 -75 c 0
 482 -128 436 -147 436 -147 c 1
 467 -161 500 -164 517 -164 c 0
 616 -164 699 -121 699 -40 c 2
 699 11.8014713948 l 2
 698.676645149 12.1882619935 698.343636445 12.5876362664 698 13 c 2
 200 599 l 1
 200 599 l 1
 200 76 l 2
 200 54.0026660518 201 53 230 50 c 0
 248 48 265 47 283 47 c 2
 308 47 l 1
 308 0 l 1
 267 3 215 3 173 3 c 0
 134 3 77 3 39 0 c 1
EndSplineSet
EndChar
StartChar: eng
Encoding: 331 331 395
Width: 639
Flags: W
HStem: -200 154<310.66 366.689> 0 48<44 114 228 297> 394 48<44 112.741> 413 37<308.655 413.89>
VStem: 114 114<48 337.721> 114 103<341 391.375> 269 125<-155.959 -60.8933> 432 114<-95.5544 396.239>
LayerCount: 2
Fore
SplineSet
44 0 m 1x87
 44 48 l 1
 44 48 l 1
 114 48 l 1x87
 114 358 l 2
 114 389 104 394 53 394 c 2
 44 394 l 1
 44 442 l 1xab
 217 450 l 1
 217 341 l 1
 217 341 l 1x1b
 237 382 287 450 392 450 c 0
 540 450 546 360 546 295 c 2
 546 25 l 2
 546 10.8486910691 545.275447405 -2.83845135596 543.866093289 -15.9999937991 c 4
 532.029740001 -126.536206347 471.891922192 -200 387 -200 c 0
 324 -200 269 -163 269 -109 c 0
 269 -72 297 -46 331 -46 c 0
 364 -46 394 -70 394 -109 c 0
 394 -140 375 -154 367 -161 c 1
 376 -163 387 -165 397 -161 c 0
 424.163205102 -149.016233043 430.263511868 -89.162242596 431.618519657 -36.0000015157 c 0
 431.959565948 -22.6194252092 432 -9.66276776751 432 2 c 2
 432 301 l 2
 432 354 432 413 375 413 c 0
 330 413 227 380 227 249 c 0
 227 240 228 231 228 222 c 2
 228 48 l 1
 297 48 l 1
 297 48 l 1
 297 0 l 1x97
 261 1 224 3 175 3 c 0x47
 168.687167858 3 162.352782525 2.97844680927 156.000008226 2.93534042782 c 0
 119.080715616 2.68482670963 81.5403578079 1.70637990036 44 0 c 1x87
EndSplineSet
EndChar
StartChar: Omacron
Encoding: 332 332 352
Width: 863
Flags: MW
LayerCount: 2
Fore
SplineSet
81 776 m 0
 81 787 87 807 120 807 c 2
 741 807 l 2
 775 807 781 789 781 776 c 0
 781 764 775 747 741 746 c 1
 120 746 l 2
 85 746 81 767 81 776 c 0
64 339 m 0
 64 549 203 697 432 697 c 0
 654 697 799 555 799 339 c 0
 799 134 661 -11 431 -11 c 0
 204 -11 64 132 64 339 c 0
217 354 m 0
 217 268 225 197 258 135 c 0
 299 59 372 31 431 31 c 0
 485 31 555 53 600 126 c 0
 642 195 646 284 646 354 c 0
 646 422 642 499 604 563 c 0
 564 629 495 657 431 657 c 0
 372 657 305 632 264 571 c 1
 220 503 217 418 217 354 c 0
EndSplineSet
EndChar
StartChar: omacron
Encoding: 333 333 347
Width: 575
Flags: MW
LayerCount: 2
Fore
SplineSet
79 543 m 1
 79 595 l 1
 494 595 l 1
 494 543 l 1
 79 543 l 1
32 218 m 0
 32 351 123 453 287 453 c 0
 450 453 542 352 542 218 c 0
 542 95 455 -6 287 -6 c 0
 120 -6 32 94 32 218 c 0
160 229 m 0
 160 184 160 133 178 94 c 0
 195 59 226 34 287 34 c 0
 342 34 373 54 391 84 c 4
 414 124 414 180 414 229 c 0
 414 277 414 332 393 366 c 0
 371 401 329 417 287 417 c 0
 238 417 196 396 177 359 c 0
 160 325 160 274 160 229 c 0
EndSplineSet
EndChar
StartChar: Ohungarumlaut
Encoding: 336 336 485
Width: 863
Flags: MW
LayerCount: 2
Fore
SplineSet
217 354 m 0
 217 268 225 197 258 135 c 0
 299 59 372 31 431 31 c 0
 485 31 555 53 600 126 c 0
 642 195 646 284 646 354 c 0
 646 422 642 499 604 563 c 0
 564 629 495 657 431 657 c 0
 372 657 305 632 264 571 c 1
 220 503 217 418 217 354 c 0
64 339 m 0
 64 549 203 697 432 697 c 0
 654 697 799 555 799 339 c 0
 799 134 661 -11 431 -11 c 0
 204 -11 64 132 64 339 c 0
280 778 m 1
 436 877 431 875 450 875 c 2
 451 875 l 2
 483 875 507 843 507 812 c 0
 507 760 456 757 423 752 c 0
 396 748 370 744 343 740 c 0
 327 738 312 735 296 733 c 1
 280 778 l 1
471 779 m 1
 627 878 622 876 641 876 c 2
 642 876 l 2
 674 876 698 844 698 813 c 0
 698 761 647 758 614 753 c 0
 587 749 561 745 534 741 c 0
 518 739 503 736 487 734 c 1
 471 779 l 1
EndSplineSet
EndChar
StartChar: ohungarumlaut
Encoding: 337 337 499
Width: 575
Flags: W
HStem: -6 40<212.88 360.841> 417 36<219.713 357.876>
VStem: 32 128<119.931 322.065> 414 128<120.014 322.113>
LayerCount: 2
Fore
SplineSet
160 229 m 0
 160 184 160 133 178 94 c 0
 195 59 226 34 287 34 c 0
 342 34 373 54 391 84 c 0
 414 124 414 180 414 229 c 0
 414 277 414 332 393 366 c 0
 371 401 329 417 287 417 c 0
 238 417 196 396 177 359 c 0
 160 325 160 274 160 229 c 0
32 218 m 0
 32 351 123 453 287 453 c 0
 450 453 542 352 542 218 c 0
 542 95 455 -6 287 -6 c 0
 120 -6 32 94 32 218 c 0
338 535 m 1
 466 653 471 662 498 662 c 0
 530 662 556 630 556 599 c 0
 556 552.694653403 514.780350065 546.08230304 411 511.138351412 c 4
 395.995826081 506.086285898 379.683990121 500.442024973 362 494 c 1
 338 535 l 1
146 535 m 1xe8
 274 652 279 662 306 662 c 0
 338 662 365 630 365 599 c 0
 365 553.445625114 325.10649418 546.307218795 225 512.816430448 c 0
 208.638115351 507.342535671 190.66768898 501.164658128 171 494 c 1
 146 535 l 1xe8
EndSplineSet
EndChar
StartChar: OE
Encoding: 338 338 133
Width: 1169
Flags: MW
LayerCount: 2
Fore
SplineSet
83 339 m 0
 83 551 231 697 467 697 c 0
 536 697 579 686 670 686 c 2
 1074 686 l 1
 1105 444 l 1
 1057 444 l 1
 1048 513 1037 564 1004 596 c 0
 975 624 929 638 853 638 c 2
 717 638 l 1
 717 638 l 1
 717 380 l 1
 808 380 l 1
 872 381 906 393 920 435 c 0
 925 451 928 471 928 497 c 1
 975 497 l 1
 975 215 l 1
 928 215 l 1
 928 235 926 252 923 266 c 4
 911 319 875 332 802 332 c 2
 717 332 l 1
 717 48 l 1
 717 48 l 1
 838 48 l 2
 906 48 996 49 1043 122 c 0
 1070 163 1080 220 1089 275 c 1
 1137 275 l 1
 1091 0 l 1
 668 0 l 2
 588 0 527 -11 467 -11 c 0
 229 -11 83 132 83 339 c 0
231 356 m 0
 231 120 350 25 471 25 c 0
 576 25 594 65 594 224 c 2
 594 477 l 2
 594 625 570 660 473 660 c 0
 319 660 231 539 231 356 c 0
EndSplineSet
EndChar
StartChar: oe
Encoding: 339 339 139
Width: 894
Flags: MW
LayerCount: 2
Fore
SplineSet
31 225 m 0
 31 361 133 453 283 453 c 0
 399 453 453 403 476 380 c 1
 477 380 l 1
 496 399 551 453 661 453 c 0
 821 453 861 337 861 247 c 0
 861 219 847 218 831 218 c 2
 535 218 l 1
 536 195 536 126 576 79 c 0
 598 54 632 35 684 35 c 0
 742 35 790 66 810 112 c 0
 815 123 819 135 837 135 c 0
 850 135 860 129 860 116 c 0
 860 92 812 -5 675 -5 c 0
 592 -5 539 21 508 44 c 4
 493 55 484 65 478 70 c 1
 456 46 400 -5 283 -5 c 0
 130 -5 31 88 31 225 c 0
148 225 m 2
 148 179 150 127 174 88 c 0
 189 64 211 45 247 36 c 0
 260 33 272 31 284 31 c 0
 326 31 358 47 380 70 c 0
 412 104 419 152 420 197 c 0
 421 204 421 212 421 220 c 2
 421 243 l 2
 421 284 418 330 392 365 c 0
 376 388 352 404 322 412 c 0
 309 415 296 416 284 416 c 0
 241 416 206 400 185 376 c 0
 153 341 149 292 148 248 c 1
 148 225 l 2
536 251 m 1
 766 251 l 1
 764 301 758 344 739 374 c 0
 732 385 723 395 711 402 c 0
 696 412 678 416 660 416 c 0
 625 416 588 399 566 368 c 1
 541 335 537 292 536 251 c 1
EndSplineSet
EndChar
StartChar: Racute
Encoding: 340 340 476
Width: 862
Flags: W
HStem: -11 36<705.235 789.131> 0 47<39 147 283 391> 325 36<283 464.888> 639 47<39 147 283 508.862> 752 123<457.139 548.724>
VStem: 147 136<47 325 361 639> 564 153<431.61 573.06> 811 47<42.9586 116.971>
LayerCount: 2
Fore
SplineSet
337 778 m 1x05
 493 877 488 875 507 875 c 2
 508 875 l 2
 540 875 564 843 564 812 c 0
 564 760 513 757 480 752 c 0
 456.061717713 748.580245388 432.123435426 744.835637397 408 741.136482308 c 4
 389.798582048 738.345425949 371.491758611 735.580245388 353 733 c 1
 337 778 l 1x05
39 0 m 1x7e
 39 47 l 1
 39 47 l 1
 147 47 l 1x7e
 147 639 l 1
 39 639 l 1
 39 639 l 1
 39 686 l 1
 419 686 l 2
 607 686 717 602 717 501 c 0
 717 435 666 370 550 340 c 1
 593 324 648 293 662 223 c 0
 663 218 671 149 673 138 c 0
 678 96 687 25 747 25 c 0
 777 25 806 47 811 94 c 0
 812 107 813 117 834 117 c 0
 844 117 858 117 858 95 c 0
 858 79 845 -11 738 -11 c 0xbe
 697 -11 635 -7 591 15 c 0
 521 49 521 98 521 164 c 0
 521 237 521 256 489 291 c 0
 458 325 414 325 400 325 c 2
 283 325 l 1
 283 47 l 1
 391 47 l 1
 391 47 l 1
 391 0 l 1
 355 3 257 3 215 3 c 0
 173 3 75 3 39 0 c 1x7e
283 361 m 1
 399 361 l 2
 564 361 564 444 564 500 c 0
 564 561 562 639 401 639 c 2
 283 639 l 1
 283 639 l 1
 283 361 l 1
EndSplineSet
EndChar
StartChar: racute
Encoding: 341 341 489
Width: 473
Flags: W
HStem: 0 47<37 106 214 301> 395 47<37 104.945> 414 36<281.248 338.439> 533.288 128.712<290.896 367.393>
VStem: 106 108<47 334.249> 106 97<337 393.19> 320 122<321.191 413.942>
LayerCount: 2
Fore
SplineSet
175 535 m 1x09
 307 656 309 662 336 662 c 0
 371 662 394 627 394 599 c 0
 394 564.388586403 370.970702256 551.953533597 316 533.287501258 c 4
 286.794792728 523.370485084 248.573624461 511.694677482 200 494 c 1
 175 535 l 1x09
37 0 m 1xb4
 37 47 l 1
 106 47 l 1xb4
 106 356 l 2
 106 395 99 395 37 395 c 1
 37 442 l 1xcc
 203 450 l 1
 203 337 l 1xac
 226 400 266 450 336 450 c 0
 388 450 442 421 442 368 c 0
 442 328 410 307 381 307 c 0
 352 307 320 327 320 368 c 0
 320 397 338 413 339 414 c 1
 337 414 335 414 333 414 c 0
 238 409 214 290 214 222 c 2
 214 47 l 1
 301 47 l 1
 301 47 l 1
 301 0 l 1
 265 3 201 3 163 3 c 0
 117 3 72 1 37 0 c 1xb4
EndSplineSet
EndChar
StartChar: Rcommaaccent
Encoding: 342 342 542
Width: 861
Flags: MW
LayerCount: 2
Fore
SplineSet
380 -119 m 0
 380 -93 398 -73 426 -73 c 0
 461 -73 481 -107 481 -148 c 0
 481 -231 418 -283 409 -283 c 0
 404 -283 398 -277 398 -271 c 0
 398 -267 399 -265 403 -262 c 0
 416 -251 452 -221 459 -160 c 4
 459 -158 460 -156 460 -154 c 1
 459 -155 458 -156 456 -157 c 0
 451 -161 441 -166 427 -166 c 0
 396 -166 380 -143 380 -119 c 0
39 0 m 1
 39 47 l 1
 39 47 l 1
 147 47 l 1
 147 47 l 1
 147 639 l 1
 147 639 l 1
 39 639 l 1
 39 639 l 1
 39 686 l 1
 419 686 l 2
 607 686 717 602 717 501 c 0
 717 435 666 370 550 340 c 1
 593 324 648 293 662 223 c 0
 663 218 671 149 673 138 c 0
 678 96 687 25 747 25 c 0
 777 25 806 47 811 94 c 0
 812 107 813 117 834 117 c 0
 844 117 858 117 858 95 c 0
 858 79 845 -11 738 -11 c 0
 697 -11 635 -7 591 15 c 0
 521 49 521 98 521 164 c 0
 521 237 521 256 489 291 c 0
 458 325 414 325 400 325 c 2
 283 325 l 1
 283 47 l 1
 283 47 l 1
 391 47 l 1
 391 47 l 1
 391 0 l 1
 355 3 257 3 215 3 c 0
 173 3 75 3 39 0 c 1
283 361 m 1
 399 361 l 2
 564 361 564 444 564 500 c 0
 564 561 562 639 401 639 c 2
 283 639 l 1
 283 639 l 1
 283 361 l 1
EndSplineSet
EndChar
StartChar: rcommaaccent
Encoding: 343 343 560
Width: 472
Flags: MW
LayerCount: 2
Fore
SplineSet
110 -119 m 0
 110 -93 128 -73 156 -73 c 0
 191 -73 212 -107 212 -148 c 0
 212 -231 149 -283 140 -283 c 0
 135 -283 128 -277 128 -271 c 0
 128 -267 130 -265 134 -262 c 0
 147 -251 183 -221 190 -160 c 4
 190 -158 190 -156 190 -154 c 1
 189 -155 188 -156 186 -157 c 0
 181 -161 171 -166 157 -166 c 0
 126 -166 110 -143 110 -119 c 0
37 0 m 1
 37 47 l 1
 106 47 l 1
 106 47 l 1
 106 356 l 2
 106 395 99 395 37 395 c 1
 37 442 l 1
 203 450 l 1
 203 337 l 1
 226 400 266 450 336 450 c 0
 388 450 442 421 442 368 c 0
 442 328 410 307 381 307 c 0
 352 307 320 327 320 368 c 0
 320 397 338 413 339 414 c 1
 337 414 335 414 333 414 c 0
 238 409 214 290 214 222 c 2
 214 47 l 1
 214 47 l 1
 301 47 l 1
 301 47 l 1
 301 0 l 1
 265 3 201 3 163 3 c 0
 117 3 72 1 37 0 c 1
EndSplineSet
EndChar
StartChar: Rcaron
Encoding: 344 344 486
Width: 862
Flags: MW
LayerCount: 2
Fore
SplineSet
203 878 m 1
 214 904 l 5
 214 904 l 1
 355 864 365 861 372 861 c 0
 382 861 462 885 530 904 c 1
 542 878 l 1
 379 769 381 768 372 768 c 0
 358 768 333 793 203 878 c 1
39 0 m 1
 39 47 l 1
 39 47 l 1
 147 47 l 1
 147 47 l 1
 147 639 l 1
 147 639 l 1
 39 639 l 1
 39 639 l 1
 39 686 l 1
 419 686 l 2
 607 686 717 602 717 501 c 0
 717 435 666 370 550 340 c 1
 593 324 648 293 662 223 c 0
 663 218 671 149 673 138 c 0
 678 96 687 25 747 25 c 0
 777 25 806 47 811 94 c 0
 812 107 813 117 834 117 c 0
 844 117 858 117 858 95 c 0
 858 79 845 -11 738 -11 c 0
 697 -11 635 -7 591 15 c 0
 521 49 521 98 521 164 c 0
 521 237 521 256 489 291 c 0
 458 325 414 325 400 325 c 2
 283 325 l 1
 283 47 l 1
 283 47 l 1
 391 47 l 1
 391 47 l 1
 391 0 l 1
 355 3 257 3 215 3 c 0
 173 3 75 3 39 0 c 1
283 361 m 1
 399 361 l 2
 564 361 564 444 564 500 c 0
 564 561 562 639 401 639 c 2
 283 639 l 1
 283 639 l 1
 283 361 l 1
EndSplineSet
EndChar
StartChar: rcaron
Encoding: 345 345 500
Width: 473
Flags: MW
LayerCount: 2
Fore
SplineSet
71 641 m 1
 71 642 l 1
 88 664 l 1
 89 664 l 1
 234 580 236 578 243 578 c 0
 256 578 301 610 397 664 c 1
 398 664 l 1
 416 642 l 1
 416 641 l 1
 244 470 l 1
 243 470 l 1
 71 641 l 1
37 0 m 1
 37 47 l 1
 106 47 l 1
 106 356 l 2
 106 395 99 395 37 395 c 1
 37 442 l 1
 203 450 l 1
 203 337 l 1
 226 400 266 450 336 450 c 0
 388 450 442 421 442 368 c 0
 442 328 410 307 381 307 c 0
 352 307 320 327 320 368 c 0
 320 397 338 413 339 414 c 1
 337 414 335 414 333 414 c 0
 238 409 214 290 214 222 c 2
 214 47 l 1
 301 47 l 5
 301 47 l 1
 301 0 l 1
 265 3 201 3 163 3 c 0
 117 3 72 1 37 0 c 1
EndSplineSet
EndChar
StartChar: Sacute
Encoding: 346 346 461
Width: 638
Flags: MW
LayerCount: 2
Fore
SplineSet
198 778 m 1
 354 877 349 875 368 875 c 2
 369 875 l 2
 401 875 425 843 425 812 c 0
 425 760 374 757 341 752 c 0
 313 748 286 743 258 739 c 4
 243 737 229 735 214 733 c 1
 198 778 l 1
64 17 m 2
 64 199 l 2
 64 222 64 228 88 228 c 0
 110 228 110 223 111 205 c 0
 114 150 137 112 168 87 c 0
 221 44 299 36 347 36 c 0
 451 36 477 105 477 153 c 0
 477 199 452 225 437 240 c 0
 415 261 398 264 310 283 c 0
 201 307 167 314 118 363 c 0
 97 385 64 431 64 496 c 0
 64 601 136 697 288 697 c 0
 336 697 401 688 459 642 c 1
 504 686 l 2
 515 696 516 697 524 697 c 0
 542 697 542 688 542 669 c 2
 542 486 l 2
 542 463 542 458 518 458 c 0
 497 458 497 460 493 484 c 0
 470 620 369 654 289 654 c 0
 189 654 161 592 161 549 c 0
 161 488 217 454 257 445 c 2
 402 414 l 2
 493 395 574 314 574 203 c 0
 574 102 512 -11 347 -11 c 0
 306 -11 213 -5 147 44 c 1
 101 -2 l 2
 93 -9 91 -11 82 -11 c 0
 64 -11 64 -2 64 17 c 2
EndSplineSet
EndChar
StartChar: sacute
Encoding: 347 347 469
Width: 454
Flags: MW
LayerCount: 2
Fore
SplineSet
150 535 m 1
 282 656 284 662 311 662 c 0
 345 662 369 627 369 599 c 0
 369 553 328 546 226 512 c 4
 210 507 193 501 175 494 c 1
 150 535 l 1
38 22 m 2
 38 131 l 2
 38 154 38 160 62 160 c 0
 76 160 81 160 86 146 c 1
 98 103 124 30 230 30 c 0
 252 30 344 30 344 105 c 0
 344 164 269 177 233 183 c 0
 156 197 118 203 78 238 c 0
 58 255 38 282 38 322 c 0
 38 453 192 453 222 453 c 0
 262 453 297 447 323 434 c 1
 333 439 340 443 346 445 c 0
 363 453 365 453 368 453 c 0
 386 453 386 444 386 425 c 2
 386 345 l 2
 386 322 386 317 362 317 c 0
 341 317 340 322 339 337 c 0
 334 392 296 421 221 421 c 0
 202 421 109 421 109 359 c 0
 109 312 174 301 211 294 c 0
 289 281 321 275 360 246 c 1
 395 218 415 183 415 140 c 0
 415 -6 261 -6 230 -6 c 0
 210 -6 158 -6 112 26 c 1
 109 24 87 9 86 9 c 0
 65 -6 63 -6 56 -6 c 0
 38 -6 38 3 38 22 c 2
EndSplineSet
EndChar
StartChar: Scircumflex
Encoding: 348 348 508
Width: 638
Flags: W
HStem: -11 47<220.9 428.966> 654 43<206.126 389.759>
VStem: 64 97<489.859 589.673> 64 47<127.612 227.966> 477 97<104.356 218.778> 493 49<458.034 550.19>
LayerCount: 2
Fore
SplineSet
159 783 m 1x10
 318 931 l 1
 319 931 l 1
 477 783 l 1
 446 747 l 1
 319 849 l 1
 318 849 l 1
 190 747 l 1
 159 783 l 1x10
64 17 m 2xd8
 64 199 l 2
 64 222 64 228 88 228 c 0
 110 228 110 223 111 205 c 0
 114 150 137 112 168 87 c 4
 221 44 299 36 347 36 c 0
 451 36 477 105 477 153 c 0xd8
 477 199 452 225 437 240 c 0
 415 261 398 264 310 283 c 0
 201 307 167 314 118 363 c 0
 97 385 64 431 64 496 c 0
 64 601 136 697 288 697 c 0
 336 697 401 688 459 642 c 1
 504 686 l 2
 515 696 516 697 524 697 c 0
 542 697 542 688 542 669 c 2
 542 486 l 2
 542 463 542 458 518 458 c 0
 497 458 497 460 493 484 c 0
 470 620 369 654 289 654 c 0
 189 654 161 592 161 549 c 0xe4
 161 488 217 454 257 445 c 2
 402 414 l 2
 493 395 574 314 574 203 c 0
 574 102 512 -11 347 -11 c 0
 306 -11 213 -5 147 44 c 1
 101 -2 l 2
 93 -9 91 -11 82 -11 c 0
 64 -11 64 -2 64 17 c 2xd8
EndSplineSet
EndChar
StartChar: Scedilla
Encoding: 350 350 462
Width: 639
Flags: W
HStem: -199 36<198 358.031> -60 97<294.877 374.211> -10 21G<78.7689 84> 653 44<205.973 388.126>
VStem: 63 98<491.009 588.897> 63 51<124.106 227.823> 388 115<-142.082 -75.0746> 476 98<105.557 218.924> 492 50<458.129 548.164>
LayerCount: 2
Fore
SplineSet
63 18 m 2xf8
 63 206 l 1
 64 225 72 228 87 228 c 0
 117 228 107 213 114 178 c 0
 122.074326465 136.859384204 143.749371303 106.51064277 172.999997935 84.7369801639 c 0
 219.825457893 49.8809143666 286.064681905 37 347 37 c 0
 451 37 476 108 476 152 c 0
 476 201 447 236 414 255 c 1
 377 275 251 290 200 309 c 0
 136 334 63 398 63 497 c 0
 63 590 126 697 287 697 c 0
 390 697 442 654 458 641 c 1
 459 641 l 1
 498 683 513 696 526 696 c 0
 535 696 542 689 542 671 c 2
 542 481 l 1
 542 481 l 1
 541 462 534 458 518 458 c 0
 498 458 495 465 492 481 c 0
 473 607 380 653 288 653 c 0
 197 653 161 599 161 550 c 0
 161 506 189 477 217 461 c 0
 255 439 370 425 421 409 c 0
 495 385 574 314 574 203 c 0xf4
 574 116 527 19 408 -5 c 1
 408 -30 l 1
 430 -33 503 -46 503 -110 c 0
 503 -180.320247633 409.81034783 -198.650478793 204 -198.995019589 c 0
 202.010529318 -198.998350101 200.010535169 -199 198 -199 c 1
 198 -163 l 1
 204 -163 l 2
 323 -163 388 -152 388 -111 c 0
 388 -90 374 -61 293 -60 c 1
 293 -8 l 1
 202 3 157 36 145 45 c 1
 98 -7 88 -10 80 -10 c 0
 77.5377499493 -10 75.4321278582 -9.64337204047 73.6314803612 -9.00000008633 c 4
 63 -5.20136859027 63 8.59322062102 63 18 c 2xf8
EndSplineSet
EndChar
StartChar: scedilla
Encoding: 351 351 471
Width: 454
Flags: W
HStem: -199 36<73 233.635> -60 91<170.232 250.083> -5 21G<47 60> 420 33<136.135 297.42>
VStem: 38 71<309.453 395.707> 38 54<87.4365 159.384> 264 115<-142.446 -76.1131> 338 48<317.162 388.498> 343 72<57.6415 150.331>
LayerCount: 2
Fore
SplineSet
38 22 m 2xf8
 38 128 l 2
 38 152 40 160 62 160 c 0
 85 160 84 150 92 128 c 0
 120 50 176 31 231 31 c 0
 290 31 343 45 343 104 c 0
 343 136 321 169 240 182 c 0
 211.549006716 186.407900368 182.776863256 190.976375824 156.000002677 198.407931601 c 4
 115.954693564 209.521965953 80.3719896045 227.03950184 57 260 c 0
 46 276 38 297 38 321 c 0
 38 427 126 453 220 453 c 0
 297 453 306 436 321 436 c 0
 334 436 354 452 370 452 c 0
 384 452 387 439 387 425 c 0
 387 419 386 413 386 407 c 2
 386 350 l 2
 386 331 387 317 364 317 c 0
 342 317 340 325 338 341 c 0
 334 378 310 420 219 420 c 2
 218 420 l 2
 165 420 109 410 109 359 c 0
 109 295 232 296 290 280 c 0
 341 265 415 223 415 139 c 0xf4
 415 26 326 4 283 -2 c 1
 283 -30 l 1
 306 -33 379 -46 379 -110 c 0
 379 -197 221 -199 92 -199 c 2
 73 -199 l 1
 73 -163 l 1
 85 -163 l 2
 187 -163 263 -156 264 -111 c 0
 264 -90 249 -61 169 -60 c 1
 169 1.07372027509 l 1
 140.436267783 9.04184836666 123.51808769 20.3066714698 113 27 c 1
 112 27 l 1
 79 3 65 -5 55 -5 c 0
 39 -5 38 10 38 22 c 2xf8
EndSplineSet
EndChar
StartChar: Scaron
Encoding: 352 352 217
Width: 638
Flags: W
HStem: -11 47<220.9 428.966> 654 43<206.126 389.759> 768 93<281.152 354.996> 878 26<157.769 164.944 473.285 479.231>
VStem: 64 97<489.859 589.673> 64 47<127.612 227.966> 477 97<104.356 218.778> 493 49<458.034 550.19>
LayerCount: 2
Fore
SplineSet
64 17 m 2xd8
 64 199 l 2
 64 222 64 228 88 228 c 0
 110 228 110 223 111 205 c 0
 114 150 137 112 168 87 c 4
 221 44 299 36 347 36 c 0
 451 36 477 105 477 153 c 0xd8
 477 199 452 225 437 240 c 0
 415 261 398 264 310 283 c 0
 201 307 167 314 118 363 c 0
 97 385 64 431 64 496 c 0
 64 601 136 697 288 697 c 0
 336 697 401 688 459 642 c 1
 504 686 l 2
 515 696 516 697 524 697 c 0
 542 697 542 688 542 669 c 2
 542 486 l 2
 542 463 542 458 518 458 c 0
 497 458 497 460 493 484 c 0
 470 620 369 654 289 654 c 0
 189 654 161 592 161 549 c 0xe4
 161 488 217 454 257 445 c 2
 402 414 l 2
 493 395 574 314 574 203 c 0
 574 102 512 -11 347 -11 c 0
 306 -11 213 -5 147 44 c 1
 101 -2 l 2
 93 -9 91 -11 82 -11 c 0
 64 -11 64 -2 64 17 c 2xd8
149 878 m 1xd0
 161 904 l 1xe0
 302 864 311 861 318 861 c 2
 319 861 l 2
 325 861 328 862 476 904 c 1
 488 878 l 1
 326 769 327 768 318 768 c 0
 305 768 266 802 149 878 c 1xd0
EndSplineSet
EndChar
StartChar: Tcedilla
Encoding: 354 354 488
Width: 800
Flags: MW
LayerCount: 2
Fore
SplineSet
41 433 m 1
 62 675 l 1
 736 675 l 1
 758 433 l 1
 710 433 l 1
 697 578 676 627 532 627 c 2
 471 627 l 1
 471 627 l 1
 471 48 l 1
 624 48 l 1
 624 48 l 1
 624 0 l 1
 456 3 l 1
 456 -30 l 1
 479 -33 552 -46 552 -110 c 0
 552 -197 394 -199 265 -199 c 2
 246 -199 l 1
 246 -163 l 1
 258 -163 l 2
 371 -163 437 -152 437 -111 c 0
 437 -91 423 -61 342 -60 c 1
 342 3 l 1
 175 0 l 1
 175 48 l 1
 175 48 l 1
 328 48 l 1
 328 48 l 1
 328 627 l 1
 328 627 l 1
 328 627 l 1
 267 627 l 2
 220 627 160 626 124 579 c 1
 98 543 92 473 89 433 c 1
 41 433 l 1
EndSplineSet
EndChar
StartChar: tcedilla
Encoding: 355 355 502
Width: 447
Flags: MW
LayerCount: 2
Fore
SplineSet
21 397 m 5
 21 433 l 1
 128 438 168 547 169 635 c 1
 216 635 l 1
 216 445 l 1
 363 445 l 1
 363 397 l 1
 216 397 l 1
 216 123 l 2
 216 93 218 64 239 47 c 0
 248 39 261 35 273 35 c 0
 295.308594161 35 327.172517091 49.3329931547 333.774663364 105 c 0
 334.571175009 111.715909851 335 119.033438716 335 127 c 2
 335 177 l 1
 383 177 l 1
 383 134 l 1
 383 134 386 59 336 19 c 0
 335.000500125 18.2730910003 334.001000251 17.5626943973 333 16.8680600028 c 1
 333 -30 l 1
 356 -33 428 -46 428 -110 c 0
 428 -197 270 -199 142 -199 c 2
 123 -199 l 1
 123 -163 l 1
 134 -163 l 2
 242 -163 313 -154 314 -111 c 1
 313 -90 299 -61 219 -60 c 1
 219 -3 l 1
 219 -3 l 1
 112 12 102 77 102 127 c 2
 102 397 l 1
 21 397 l 5
EndSplineSet
EndChar
StartChar: Tcaron
Encoding: 356 356 463
Width: 800
Flags: MW
LayerCount: 2
Fore
SplineSet
230 878 m 1
 242 904 l 1
 242 904 l 1
 383 864 393 861 400 861 c 2
 401 861 l 2
 407 861 409 862 557 904 c 1
 569 878 l 1
 407 769 408 768 400 768 c 0
 386 768 360 793 230 878 c 1
42 434 m 1
 63 675 l 1
 736 675 l 1
 757 434 l 1
 710 434 l 1
 700 548 690 628 547 628 c 2
 471 628 l 1
 471 628 l 1
 471 47 l 1
 624 47 l 1
 624 47 l 1
 624 0 l 1
 570 3 459 3 400 3 c 0
 341 3 230 3 176 0 c 1
 176 47 l 1
 176 47 l 1
 329 47 l 1
 329 628 l 1
 329 628 l 1
 252 628 l 2
 108 628 98 547 89 434 c 1
 42 434 l 1
EndSplineSet
EndChar
StartChar: tcaron
Encoding: 357 357 472
Width: 447
Flags: MW
LayerCount: 2
Fore
SplineSet
286 713 m 0
 286 756 316 791 363 791 c 0
 408 791 457 754 457 687 c 0
 457 574 359 507 336 507 c 0
 326 507 317 516 317 526 c 0
 317 537.532104747 339.617251683 544.239195802 364.151396676 565 c 4
 384.294008976 582.044687317 405.728696127 608.562228045 417 655 c 1
 400 642 385 635 363 635 c 0
 317 635 286 670 286 713 c 0
21 397 m 1
 21 433 l 1
 120 436 169 535 170 635 c 1
 217 635 l 1
 217 444 l 1
 363 444 l 1
 363 397 l 1
 217 397 l 1
 217 121 l 2
 217 98 217 34 275 34 c 0
 303 34 335 58 335 126 c 2
 335 177 l 1
 382 177 l 1
 382 124 l 2
 382 51 337 -6 261 -6 c 0
 190 -6 103 16 103 123 c 2
 103 397 l 1
 21 397 l 1
EndSplineSet
EndChar
StartChar: Tbar
Encoding: 358 358 525
Width: 799
Flags: MW
LayerCount: 2
Fore
SplineSet
42 434 m 1
 63 675 l 1
 736 675 l 1
 757 434 l 1
 710 434 l 1
 700 548 690 628 547 628 c 2
 471 628 l 1
 471 368 l 5
 581 368 l 6
 596 368 610 366 610 344 c 4
 610 323 597 321 584 321 c 6
 471 321 l 5
 471 47 l 1
 624 47 l 1
 624 47 l 1
 624 0 l 1
 570 3 459 3 400 3 c 0
 341 3 230 3 176 0 c 1
 176 47 l 1
 176 47 l 1
 329 47 l 1
 329 321 l 5
 206 321 l 6
 192 321 181 323 181 344 c 4
 181 365 193 368 213 368 c 6
 329 368 l 5
 329 628 l 1
 252 628 l 2
 108 628 98 547 89 434 c 1
 42 434 l 1
EndSplineSet
EndChar
StartChar: tbar
Encoding: 359 359 530
Width: 446
Flags: MW
LayerCount: 2
Fore
SplineSet
19 281 m 0
 19 301 31 304 51 304 c 2
 103 304 l 1
 103 397 l 1
 21 397 l 1
 21 433 l 1
 120 436 169 535 170 635 c 1
 217 635 l 1
 217 444 l 1
 363 444 l 1
 363 397 l 1
 217 397 l 1
 217 304 l 1
 317 304 l 2
 332 304 346 302 346 281 c 0
 346 261 333 259 320 259 c 2
 217 259 l 1
 217 121 l 2
 217 98 217 34 275 34 c 0
 303 34 335 58 335 126 c 2
 335 177 l 1
 382 177 l 1
 382 124 l 2
 382 51 337 -6 261 -6 c 0
 190 -6 103 16 103 123 c 2
 103 259 l 1
 44 259 l 2
 30 259 19 261 19 281 c 0
EndSplineSet
EndChar
StartChar: Utilde
Encoding: 360 360 364
Width: 884
Flags: W
HStem: -11 47<364.3 578.911> 639 47<39 147 289 397 576 683.9 737.098 845> 797 75<458.036 579.955> 830 75<348.825 470.733>
VStem: 147 142<137.078 639> 684 53<135.47 635.057>
LayerCount: 2
Fore
SplineSet
292 821 m 1xee
 338 874 357 905 404 905 c 0xde
 452 905 493 872 542 872 c 0xee
 571 872 588 884 609 905 c 1xde
 637 881 l 1
 591 828 571 797 525 797 c 0xee
 478 797 434 830 387 830 c 0xde
 360 830 342 820 319 797 c 1
 292 821 l 1xee
39 639 m 1
 39 686 l 1
 77 683 175 683 218 683 c 0
 261 683 359 683 397 686 c 1
 397 639 l 1
 397 639 l 1
 289 639 l 1
 289 223 l 2
 289 167 291 36 466 36 c 0
 575 36 684 85 684 233 c 2
 684 610 l 2
 684 632 683 633 654 636 c 0
 636 638 619 639 601 639 c 2
 576 639 l 1
 576 686 l 1
 617 683 669 683 711 683 c 0
 750 683 807 683 845 686 c 1
 845 639 l 1
 820 639 l 2
 792 639 790 639 766 636 c 0
 738 633 737 632 737 610 c 2
 737 229 l 2
 737 216 736 202 734 189 c 0
 717 82 631 -11 462 -11 c 0
 255 -11 147 98 147 231 c 2
 147 639 l 1
 39 639 l 5
 39 639 l 1
EndSplineSet
EndChar
StartChar: Umacron
Encoding: 362 362 350
Width: 884
Flags: MW
LayerCount: 2
Fore
SplineSet
92 776 m 0
 92 787 98 807 131 807 c 2
 752 807 l 2
 786 807 792 789 792 776 c 0
 792 764 786 747 752 746 c 1
 131 746 l 2
 96 746 92 767 92 776 c 0
39 639 m 1
 39 686 l 1
 77 683 175 683 218 683 c 0
 261 683 359 683 397 686 c 1
 397 639 l 1
 397 639 l 1
 289 639 l 1
 289 223 l 2
 289 167 291 36 466 36 c 0
 575 36 684 85 684 233 c 2
 684 610 l 2
 684 632 683 633 654 636 c 0
 636 638 619 639 601 639 c 2
 576 639 l 1
 576 686 l 1
 617 683 669 683 711 683 c 0
 750 683 807 683 845 686 c 1
 845 639 l 1
 820 639 l 2
 792 639 790 639 766 636 c 0
 738 633 737 632 737 610 c 2
 737 229 l 2
 737 216 736 202 734 189 c 0
 717 82 631 -11 462 -11 c 0
 255 -11 147 98 147 231 c 2
 147 639 l 1
 39 639 l 5
 39 639 l 1
EndSplineSet
EndChar
StartChar: umacron
Encoding: 363 363 345
Width: 638
Flags: W
HStem: -6 36<269.5 307> 0 47<584 615> 395 47<45 76> 542 52<123 538 123 538>
VStem: 114 114<123 356 356 375.5> 432 114<165 356 356 375.5>
LayerCount: 2
Fore
SplineSet
123 542 m 1x10
 123 594 l 1
 538 594 l 1
 538 542 l 1
 123 542 l 1x10
45 395 m 1xac
 45 442 l 1xac
 228 450 l 1x1c
 228 109 l 2
 228 55 231 30 308 30 c 0
 381 30 432 83 432 165 c 2
 432 356 l 2
 432 395 425 395 363 395 c 1
 363 442 l 1xac
 546 450 l 1
 546 86 l 2
 546 47 553 47 615 47 c 1
 615 0 l 1x5c
 438 -6 l 1
 438 72 l 1
 392 -6 320 -6 294 -6 c 0
 195 -6 114 16 114 123 c 2
 114 356 l 2
 114 395 107 395 45 395 c 1xac
EndSplineSet
EndChar
StartChar: ubreve
Encoding: 365 365 515
Width: 638
Flags: W
HStem: -6 36<240.906 374.098> 0 47<547.055 615> 395 47<45 112.945 363 430.945> 430 20G<45 228 363 546> 503 62<239.396 418.976>
VStem: 114 114<45.7713 393.19> 152 36<613.809 662> 432 114<48.8101 72 83.6119 393.19> 471 36<616.528 662>
LayerCount: 2
Fore
SplineSet
152 662 m 1x15
 188 662 l 1
 195 576 293 565 330 565 c 0
 366 565 465 576 471 662 c 1
 507 662 l 1
 503 557 413 503 330 503 c 0
 242 503 155 561 152 662 c 1x15
45 395 m 1xac
 45 442 l 1xac
 228 450 l 1x1c
 228 109 l 2
 228 55 231 30 308 30 c 0
 381 30 432 83 432 165 c 2
 432 356 l 2
 432 395 425 395 363 395 c 1
 363 442 l 1xac
 546 450 l 1
 546 86 l 2
 546 47 553 47 615 47 c 1
 615 0 l 1x5c
 438 -6 l 1
 438 72 l 1
 392 -6 320 -6 294 -6 c 0
 195 -6 114 16 114 123 c 2
 114 356 l 2
 114 395 107 395 45 395 c 1xac
EndSplineSet
EndChar
StartChar: Uring
Encoding: 366 366 363
Width: 884
Flags: MW
LayerCount: 2
Fore
SplineSet
367 810 m 0
 367 847 394 902 487 902 c 0
 560 902 606 865 606 810 c 0
 606 774 580 719 486 719 c 0
 414 719 367 756 367 810 c 0
415 811 m 0
 415 759 448 755 484 755 c 2
 487 755 l 2
 532 755 559 762 559 810 c 0
 559 862 526 865 490 866 c 1
 486 866 l 2
 442 866 415 858 415 811 c 0
39 639 m 1
 39 686 l 1
 77 683 175 683 218 683 c 0
 261 683 359 683 397 686 c 1
 397 639 l 1
 397 639 l 1
 289 639 l 1
 289 639 l 1
 289 223 l 2
 289 167 291 36 466 36 c 0
 575 36 684 85 684 233 c 2
 684 610 l 2
 684 632 683 633 654 636 c 0
 636 638 619 639 601 639 c 2
 576 639 l 1
 576 686 l 1
 617 683 669 683 711 683 c 0
 750 683 807 683 845 686 c 1
 845 639 l 1
 820 639 l 2
 792 639 790 639 766 636 c 0
 738 633 737 632 737 610 c 2
 737 229 l 2
 737 216 736 202 734 189 c 0
 717 82 631 -11 462 -11 c 0
 255 -11 147 98 147 231 c 2
 147 639 l 1
 147 639 l 1
 39 639 l 1
 39 639 l 1
EndSplineSet
EndChar
StartChar: uring
Encoding: 367 367 375
Width: 638
Flags: MW
LayerCount: 2
Fore
SplineSet
211 574 m 0
 211 626 258 661 328 661 c 0
 424 661 449 609 449 574 c 0
 449 538 422 487 330 487 c 0
 237 487 211 539 211 574 c 0
258 574 m 0
 258 524 294 522 328 522 c 2
 330 522 l 2
 373 522 402 528 402 574 c 0
 402 623 367 626 333 626 c 2
 329 626 l 2
 286 626 258 620 258 574 c 0
45 395 m 1
 45 442 l 1
 228 450 l 1
 228 109 l 2
 228 55 231 30 308 30 c 0
 381 30 432 83 432 165 c 2
 432 356 l 2
 432 395 425 395 363 395 c 1
 363 442 l 1
 546 450 l 1
 546 86 l 2
 546 47 553 47 615 47 c 1
 615 0 l 1
 438 -6 l 1
 438 72 l 1
 392 -6 320 -6 294 -6 c 0
 195 -6 114 16 114 123 c 2
 114 356 l 2
 114 395 107 395 45 395 c 1
EndSplineSet
EndChar
StartChar: Uhungarumlaut
Encoding: 368 368 487
Width: 884
Flags: W
HStem: -11 47<364.3 578.911> 639 47<39 147 289 397 576 683.9 737.098 845> 752 123<411.139 481.684 600.072 692.051>
VStem: 147 142<137.078 639> 684 53<135.47 635.057>
LayerCount: 2
Fore
SplineSet
39 639 m 1
 39 686 l 1
 77 683 175 683 218 683 c 0
 261 683 359 683 397 686 c 1
 397 639 l 1
 397 639 l 1
 289 639 l 1
 289 223 l 2
 289 167 291 36 466 36 c 0
 575 36 684 85 684 233 c 2
 684 610 l 2
 684 632 683 633 654 636 c 0
 636 638 619 639 601 639 c 2
 576 639 l 1
 576 686 l 1
 617 683 669 683 711 683 c 0
 750 683 807 683 845 686 c 1
 845 639 l 1
 820 639 l 2
 792 639 790 639 766 636 c 0
 738 633 737 632 737 610 c 2
 737 229 l 2
 737 216 736 202 734 189 c 0
 717 82 631 -11 462 -11 c 0
 255 -11 147 98 147 231 c 2
 147 639 l 1
 39 639 l 1
 39 639 l 1
482 779 m 1
 638 878 633 876 652 876 c 2
 653 876 l 2
 685 876 709 844 709 813 c 0
 709 761 658 758 625 753 c 0
 598.41796875 749.202148438 571.8359375 745.004882812 545 740.913085938 c 0
 529.435546875 738.540039062 513.78515625 736.202148438 498 734 c 1
 482 779 l 1
291 778 m 1
 447 877 442 875 461 875 c 2
 462 875 l 2
 494 875 518 843 518 812 c 0
 518 760 467 757 434 752 c 0
 407.41796875 748.202148438 380.8359375 744.004882812 354 739.913085938 c 0
 338.435546875 737.540039062 322.78515625 735.202148438 307 733 c 1
 291 778 l 1
EndSplineSet
EndChar
StartChar: uhungarumlaut
Encoding: 369 369 501
Width: 638
Flags: MW
LayerCount: 2
Fore
SplineSet
45 395 m 1
 45 442 l 1
 228 450 l 1
 228 109 l 2
 228 55 231 30 308 30 c 0
 381 30 432 83 432 165 c 2
 432 356 l 2
 432 395 425 395 363 395 c 1
 363 442 l 1
 546 450 l 1
 546 86 l 2
 546 47 553 47 615 47 c 1
 615 0 l 1
 438 -6 l 1
 438 72 l 1
 392 -6 320 -6 294 -6 c 0
 195 -6 114 16 114 123 c 2
 114 356 l 2
 114 395 107 395 45 395 c 1
381 535 m 1
 509 653 514 662 541 662 c 0
 574 662 600 630 600 599 c 0
 600 552.104282599 557.722588548 545.920146597 451 509.787838999 c 4
 437.108223174 505.084598943 422.124520074 499.873932313 406 494 c 1
 381 535 l 1
190 535 m 1
 317 652 323 662 349 662 c 0
 382 662 408 630 408 599 c 0
 408 552.064868978 366.435725961 545.909780409 259 509.696673033 c 0
 245.11735842 505.017283698 230.134840111 499.836005998 214 494 c 1
 190 535 l 1
EndSplineSet
EndChar
StartChar: Uogonek
Encoding: 370 370 543
Width: 883
Flags: W
HStem: -205 68<436.361 520.449> -11 47<427.574 578.457> 639 47<39 147 289 397 576 683.9 737.098 845>
VStem: 147 142<135.321 639> 337 79<-116.145 -35.2751> 684 53<135.47 635.057>
LayerCount: 2
Fore
SplineSet
39 639 m 1
 39 686 l 1
 77 683 175 683 218 683 c 0
 261 683 359 683 397 686 c 1
 397 639 l 1
 397 639 l 1
 289 639 l 1
 289 223 l 2
 289 167 291 36 466 36 c 0
 575 36 684 85 684 233 c 2
 684 610 l 2
 684 632 683 633 654 636 c 0
 636 638 619 639 601 639 c 2
 576 639 l 1
 576 686 l 1
 617 683 669 683 711 683 c 0
 750 683 807 683 845 686 c 1
 845 639 l 1
 820 639 l 2
 792 639 790 639 766 636 c 0
 738 633 737 632 737 610 c 2
 737 229 l 2
 737 216 736 202 734 189 c 0
 717 82 631 -11 462 -11 c 0
 457.166460989 -11 452.386900993 -10.9405685586 447.661434595 -10.8227878622 c 1
 430.300498133 -25.4167121109 416.000000003 -44.4202763566 416 -68 c 0
 416 -100 446 -137 481 -137 c 0
 505 -137 514 -116 529 -116 c 0
 537 -116 555 -126 555 -139 c 0
 555 -154 516 -205 452 -205 c 0
 396 -205 337 -164 337 -101 c 0
 337 -61.0674029136 357.92928657 -32.0977654588 382.873653692 -5.13650797984 c 1
 227.557150288 19.1694235265 147 116.133917287 147 231 c 2
 147 639 l 1
 39 639 l 1
 39 639 l 1
EndSplineSet
EndChar
